<svg width="140" height="48" viewBox="0 0 140 48" fill="none" xmlns="http://www.w3.org/2000/svg">
<g clip-path="url(#clip0_6811_7111)">
<path d="M128.851 0.000156H11.155C10.726 0.000156 10.3021 0.000156 9.87425 0.002556C9.51607 0.004956 9.16075 0.011928 8.79913 0.017796C8.01353 0.0272782 7.22978 0.0981675 6.45469 0.229848C5.68068 0.364395 4.93092 0.618055 4.23077 0.982248C3.53147 1.34952 2.8925 1.82676 2.33704 2.39664C1.77867 2.96492 1.31322 3.62178 0.958592 4.34195C0.602988 5.06069 0.356412 5.83088 0.227378 6.62593C0.097118 7.41998 0.0270238 8.22318 0.0177246 9.02833C0.00686756 9.39625 0.00572102 9.7654 0 10.1334V37.8705C0.00572102 38.2431 0.00686756 38.604 0.0177246 38.9768C0.0270266 39.7819 0.0971208 40.585 0.227378 41.379C0.356055 42.1746 0.602647 42.9452 0.958592 43.6642C1.31306 44.382 1.77857 45.0362 2.33704 45.6014C2.89039 46.1738 3.52978 46.6513 4.23077 47.0158C4.93092 47.381 5.68059 47.6361 6.45469 47.7728C7.22991 47.9034 8.01358 47.9743 8.79913 47.9849C9.16075 47.9931 9.51607 47.9978 9.87425 47.9978C10.3021 48.0002 10.726 48.0002 11.155 48.0002H128.851C129.272 48.0002 129.699 48.0002 130.119 47.9978C130.476 47.9978 130.842 47.9931 131.198 47.9849C131.982 47.9749 132.764 47.9039 133.538 47.7728C134.315 47.6352 135.067 47.3801 135.77 47.0158C136.471 46.6511 137.11 46.1736 137.662 45.6014C138.219 45.034 138.686 44.3803 139.045 43.6642C139.398 42.9447 139.642 42.1741 139.769 41.379C139.9 40.5849 139.972 39.7819 139.986 38.9768C139.991 38.604 139.991 38.2431 139.991 37.8705C140 37.4345 140 37.001 140 36.5579V11.4435C140 11.0041 140 10.5681 139.991 10.1334C139.991 9.7654 139.991 9.39625 139.986 9.02828C139.972 8.22306 139.9 7.42004 139.769 6.62588C139.642 5.83129 139.398 5.06116 139.045 4.3419C138.323 2.89839 137.178 1.72339 135.77 0.98214C135.067 0.618837 134.314 0.365245 133.538 0.22974C132.764 0.0974793 131.982 0.0265653 131.198 0.017628C130.842 0.011772 130.476 0.00474 130.119 0.0024C129.699 0 129.272 0 128.851 0V0.000156Z" fill="#C7C7C7"/>
<path d="M9.88007 46.9469C9.52362 46.9469 9.17577 46.9422 8.82211 46.934C8.08947 46.9242 7.35854 46.8588 6.63532 46.7383C5.96096 46.6192 5.30768 46.3976 4.69703 46.0808C4.09199 45.7667 3.54014 45.3548 3.06262 44.8609C2.5782 44.3728 2.17489 43.8068 1.86869 43.1851C1.55911 42.5594 1.34486 41.8888 1.23341 41.1965C1.11305 40.4526 1.04793 39.7004 1.03861 38.9465C1.03119 38.6934 1.02148 37.8508 1.02148 37.8508V10.1301C1.02148 10.1301 1.03183 9.30039 1.03867 9.05663C1.04759 8.30385 1.11233 7.55286 1.23233 6.81015C1.34399 6.11597 1.5584 5.44337 1.86815 4.81563C2.17323 4.19441 2.5743 3.62791 3.0558 3.13809C3.53677 2.64362 4.09038 2.2296 4.69646 1.91113C5.3057 1.59539 5.95774 1.37535 6.63075 1.2584C7.35634 1.13668 8.08981 1.07087 8.82499 1.06153L9.88065 1.04688H130.114L131.182 1.06212C131.911 1.07099 132.637 1.13621 133.356 1.25722C134.036 1.37565 134.695 1.59721 135.311 1.91464C136.525 2.55646 137.513 3.57187 138.137 4.81856C138.441 5.44197 138.653 6.10908 138.763 6.79726C138.884 7.54606 138.952 8.30296 138.966 9.06191C138.97 9.40175 138.97 9.76679 138.97 10.1301C138.979 10.5801 138.979 11.0084 138.979 11.4402V36.5546C138.979 36.9906 138.979 37.416 138.97 37.8449C138.97 38.2351 138.97 38.5926 138.965 38.9605C138.951 39.7059 138.884 40.4493 138.765 41.1847C138.656 41.882 138.443 42.5579 138.133 43.1887C137.825 43.8036 137.424 44.3648 136.945 44.8516C136.467 45.3481 135.914 45.7624 135.308 46.0786C134.693 46.3977 134.035 46.6202 133.356 46.7383C132.633 46.8595 131.902 46.9249 131.17 46.934C130.827 46.9422 130.468 46.9469 130.12 46.9469L128.851 46.9493L9.88007 46.9469Z" fill="#202020"/>
<path d="M28.978 24.3588C28.9906 23.3572 29.25 22.3752 29.732 21.504C30.2141 20.6329 30.9031 19.901 31.7351 19.3764C31.2065 18.6022 30.5093 17.965 29.6988 17.5156C28.8882 17.0661 27.9866 16.8167 27.0656 16.7871C25.101 16.5756 23.1964 17.9929 22.1953 17.9929C21.1748 17.9929 19.6334 16.8081 17.9735 16.8432C16.8999 16.8788 15.8536 17.199 14.9365 17.7726C14.0194 18.3463 13.2628 19.1539 12.7405 20.1166C10.4778 24.1347 12.1656 30.04 14.333 33.2879C15.4174 34.8783 16.6848 36.6549 18.3431 36.5919C19.9659 36.5228 20.572 35.5305 22.5308 35.5305C24.4715 35.5305 25.0401 36.5919 26.7321 36.5518C28.4734 36.5228 29.5705 34.9543 30.6169 33.3488C31.396 32.2156 31.9956 30.9631 32.3934 29.6378C31.3817 29.199 30.5184 28.4643 29.911 27.5256C29.3037 26.5868 28.9792 25.4855 28.978 24.3588V24.3588Z" fill="white"/>
<path d="M25.7827 14.6497C26.7321 13.4806 27.1999 11.978 27.0866 10.4609C25.6361 10.6172 24.2962 11.3283 23.3339 12.4525C22.8634 13.0017 22.5031 13.6406 22.2735 14.3327C22.0439 15.0248 21.9495 15.7566 21.9958 16.4861C22.7214 16.4938 23.4391 16.3325 24.0951 16.0144C24.751 15.6963 25.328 15.2297 25.7827 14.6497Z" fill="white"/>
<path d="M49.4906 32.5692H43.9528L42.6229 36.5969H40.2773L45.5227 21.6953H47.9597L53.205 36.5969H50.8194L49.4906 32.5692ZM44.5264 30.7106H48.916L46.7521 24.1739H46.6915L44.5264 30.7106Z" fill="white"/>
<path d="M64.5324 31.1657C64.5324 34.5419 62.7706 36.711 60.1119 36.711C59.4385 36.7471 58.7687 36.588 58.1793 36.2518C57.5899 35.9157 57.1047 35.4161 56.7792 34.8102H56.7289V40.1915H54.5547V25.7329H56.6592V27.5399H56.6992C57.0396 26.9369 57.533 26.4399 58.1269 26.1017C58.7208 25.7635 59.393 25.5967 60.072 25.6192C62.7603 25.6192 64.5324 27.7989 64.5324 31.1657ZM62.2976 31.1657C62.2976 28.9661 61.1893 27.52 59.4984 27.52C57.8372 27.52 56.7198 28.9965 56.7198 31.1657C56.7198 33.3548 57.8372 34.8208 59.4984 34.8208C61.1893 34.8208 62.2976 33.3852 62.2976 31.1657Z" fill="white"/>
<path d="M76.1906 31.1657C76.1906 34.5419 74.4288 36.711 71.7701 36.711C71.0967 36.7471 70.4269 36.588 69.8375 36.2518C69.2481 35.9157 68.7629 35.416 68.4374 34.8102H68.3871V40.1914H66.2129V25.7329H68.3174V27.5399H68.3574C68.6978 26.9369 69.1912 26.4399 69.7851 26.1017C70.379 25.7635 71.0512 25.5967 71.7301 25.6192C74.4185 25.6192 76.1906 27.7989 76.1906 31.1657ZM73.9558 31.1657C73.9558 28.9661 72.8475 27.52 71.1566 27.52C69.4954 27.52 68.378 28.9965 68.378 31.1657C68.378 33.3547 69.4954 34.8208 71.1566 34.8208C72.8475 34.8208 73.9558 33.3852 73.9558 31.1657H73.9558Z" fill="white"/>
<path d="M83.8956 32.4434C84.0567 33.9212 85.4563 34.8914 87.3689 34.8914C89.2015 34.8914 90.5199 33.9211 90.5199 32.5887C90.5199 31.432 89.7247 30.7395 87.8419 30.2649L85.959 29.7996C83.2912 29.1387 82.0527 27.859 82.0527 25.7824C82.0527 23.2113 84.2372 21.4453 87.3391 21.4453C90.4091 21.4453 92.5136 23.2113 92.5845 25.7824H90.3897C90.2583 24.2953 89.0598 23.3977 87.3083 23.3977C85.5568 23.3977 84.3583 24.3059 84.3583 25.6277C84.3583 26.6813 85.1238 27.3012 86.9964 27.7757L88.597 28.1789C91.5779 28.9019 92.8164 30.1301 92.8164 32.3097C92.8164 35.0976 90.6513 36.8437 87.2077 36.8437C83.9858 36.8437 81.8105 35.1386 81.6699 32.4433L83.8956 32.4434Z" fill="white"/>
<path d="M97.5098 23.1562V25.7273H99.524V27.4934H97.5098V33.4828C97.5098 34.4133 97.9131 34.8469 98.7985 34.8469C99.0377 34.8426 99.2764 34.8254 99.5138 34.7953V36.5507C99.1157 36.627 98.711 36.6616 98.3061 36.6539C96.1616 36.6539 95.3253 35.8277 95.3253 33.7207V27.4934H93.7852V25.7273H95.3252V23.1562H97.5098Z" fill="white"/>
<path d="M100.691 31.1602C100.691 27.7418 102.654 25.5938 105.715 25.5938C108.786 25.5938 110.74 27.7417 110.74 31.1602C110.74 34.5879 108.796 36.7266 105.715 36.7266C102.635 36.7266 100.691 34.5879 100.691 31.1602ZM108.525 31.1602C108.525 28.8152 107.477 27.4312 105.715 27.4312C103.953 27.4312 102.907 28.8258 102.907 31.1602C102.907 33.5144 103.953 34.8879 105.715 34.8879C107.477 34.8879 108.524 33.5144 108.524 31.1602H108.525Z" fill="white"/>
<path d="M112.531 25.7328H114.605V27.582H114.655C114.796 27.0044 115.125 26.494 115.589 26.1366C116.053 25.7791 116.623 25.5964 117.203 25.6191C117.454 25.6182 117.703 25.6461 117.948 25.7023V27.7882C117.632 27.6891 117.302 27.6436 116.971 27.6535C116.655 27.6403 116.34 27.6974 116.048 27.8209C115.756 27.9444 115.493 28.1312 115.278 28.3687C115.062 28.6062 114.9 28.8886 114.801 29.1966C114.702 29.5046 114.67 29.8309 114.705 30.1531V36.5972H112.531L112.531 25.7328Z" fill="white"/>
<path d="M127.973 33.4008C127.68 35.373 125.808 36.7266 123.412 36.7266C120.331 36.7266 118.418 34.609 118.418 31.2117C118.418 27.8039 120.341 25.5938 123.321 25.5938C126.251 25.5938 128.094 27.6586 128.094 30.9527V31.7168H120.613V31.8516C120.578 32.2514 120.627 32.6542 120.756 33.0332C120.885 33.4122 121.091 33.7588 121.36 34.0498C121.63 34.3409 121.957 34.5698 122.319 34.7213C122.681 34.8729 123.071 34.9437 123.462 34.9289C123.976 34.9783 124.492 34.8562 124.932 34.5809C125.373 34.3056 125.715 33.8917 125.908 33.4008L127.973 33.4008ZM120.623 30.1582H125.919C125.938 29.7987 125.885 29.4389 125.763 29.1015C125.64 28.764 125.451 28.4562 125.207 28.1972C124.963 27.9383 124.669 27.7339 124.345 27.5969C124.02 27.4598 123.672 27.393 123.321 27.4008C122.966 27.3986 122.615 27.4684 122.288 27.6061C121.96 27.7438 121.662 27.9466 121.412 28.203C121.161 28.4594 120.962 28.7641 120.827 29.0997C120.691 29.4353 120.622 29.795 120.623 30.1582V30.1582Z" fill="white"/>
<path d="M44.254 10.4769C44.7098 10.4433 45.1672 10.514 45.5932 10.6837C46.0192 10.8534 46.4031 11.118 46.7174 11.4583C47.0316 11.7987 47.2683 12.2063 47.4103 12.6518C47.5523 13.0974 47.5962 13.5697 47.5387 14.0347C47.5387 16.3222 46.3334 17.6371 44.254 17.6371H41.7324V10.4769H44.254ZM42.8167 16.6245H44.1329C44.4586 16.6444 44.7845 16.5897 45.087 16.4641C45.3895 16.3386 45.6609 16.1455 45.8814 15.8988C46.1019 15.6521 46.266 15.3581 46.3618 15.0381C46.4576 14.7182 46.4826 14.3804 46.435 14.0493C46.4791 13.7195 46.4516 13.3837 46.3543 13.0662C46.2571 12.7486 46.0926 12.457 45.8726 12.2122C45.6525 11.9675 45.3825 11.7757 45.0817 11.6507C44.7809 11.5256 44.4569 11.4703 44.1329 11.4887H42.8167V16.6245Z" fill="white"/>
<path d="M48.7637 14.9365C48.7306 14.5814 48.7702 14.2231 48.88 13.8846C48.9898 13.5461 49.1673 13.2349 49.4012 12.9709C49.6352 12.7069 49.9203 12.496 50.2383 12.3517C50.5564 12.2074 50.9003 12.1328 51.2481 12.1328C51.5959 12.1328 51.9399 12.2074 52.2579 12.3517C52.576 12.496 52.8611 12.7069 53.095 12.9709C53.3289 13.2349 53.5065 13.5461 53.6163 13.8846C53.726 14.2231 53.7656 14.5814 53.7325 14.9365C53.7663 15.2919 53.7271 15.6507 53.6176 15.9897C53.5082 16.3288 53.3307 16.6406 53.0967 16.905C52.8627 17.1695 52.5774 17.3809 52.259 17.5255C51.9407 17.6702 51.5963 17.7449 51.2481 17.7449C50.8999 17.7449 50.5556 17.6702 50.2372 17.5255C49.9188 17.3809 49.6335 17.1695 49.3995 16.905C49.1655 16.6406 48.9881 16.3288 48.8786 15.9897C48.7691 15.6507 48.73 15.2919 48.7637 14.9365V14.9365ZM52.6631 14.9365C52.6631 13.7652 52.1501 13.0802 51.2498 13.0802C50.3461 13.0802 49.8377 13.7652 49.8377 14.9365C49.8377 16.1171 50.3461 16.7968 51.2498 16.7968C52.1501 16.7968 52.6631 16.1124 52.6631 14.9365H52.6631Z" fill="white"/>
<path d="M60.3367 17.6379H59.2582L58.1693 13.6582H58.0871L57.0028 17.6379H55.9346L54.4824 12.2344H55.537L56.4807 16.3576H56.5584L57.6415 12.2344H58.6389L59.722 16.3576H59.8043L60.7434 12.2344H61.7831L60.3367 17.6379Z" fill="white"/>
<path d="M63.0059 12.2346H64.0067V13.093H64.0844C64.2162 12.7847 64.4385 12.5263 64.7203 12.3537C65.0021 12.1811 65.3294 12.103 65.6565 12.1303C65.9128 12.1106 66.1702 12.1502 66.4096 12.2463C66.649 12.3424 66.8642 12.4925 67.0393 12.6856C67.2144 12.8786 67.345 13.1095 67.4212 13.3613C67.4975 13.6131 67.5176 13.8793 67.48 14.1401V17.6381H66.4403V14.4079C66.4403 13.5395 66.0724 13.1077 65.3035 13.1077C65.1294 13.0994 64.9557 13.1297 64.7942 13.1967C64.6327 13.2637 64.4872 13.3658 64.3677 13.4958C64.2482 13.6259 64.1576 13.7809 64.102 13.9503C64.0464 14.1196 64.0271 14.2993 64.0455 14.477V17.6381H63.0059L63.0059 12.2346Z" fill="white"/>
<path d="M69.1367 10.125H70.1764V17.6379H69.1367V10.125Z" fill="white"/>
<path d="M71.6211 14.9366C71.588 14.5814 71.6276 14.2231 71.7374 13.8846C71.8473 13.5461 72.0248 13.2349 72.2588 12.9709C72.4927 12.707 72.7779 12.496 73.096 12.3517C73.414 12.2074 73.758 12.1328 74.1058 12.1328C74.4536 12.1328 74.7976 12.2074 75.1157 12.3517C75.4337 12.496 75.7189 12.707 75.9528 12.9709C76.1868 13.2349 76.3643 13.5461 76.4741 13.8846C76.584 14.2231 76.6236 14.5814 76.5905 14.9366C76.6242 15.292 76.585 15.6508 76.4755 15.9899C76.366 16.3289 76.1885 16.6407 75.9545 16.9052C75.7205 17.1696 75.4351 17.381 75.1167 17.5256C74.7984 17.6703 74.454 17.745 74.1058 17.745C73.7576 17.745 73.4132 17.6703 73.0948 17.5256C72.7765 17.381 72.4911 17.1696 72.2571 16.9052C72.0231 16.6407 71.8456 16.3289 71.7361 15.9899C71.6266 15.6508 71.5874 15.292 71.6211 14.9366V14.9366ZM75.5205 14.9366C75.5205 13.7653 75.0075 13.0803 74.1072 13.0803C73.2035 13.0803 72.6951 13.7653 72.6951 14.9366C72.6951 16.1172 73.2035 16.7969 74.1072 16.7969C75.0075 16.7969 75.5205 16.1125 75.5205 14.9366H75.5205Z" fill="white"/>
<path d="M77.6855 16.1125C77.6855 15.1398 78.3916 14.5791 79.645 14.4994L81.072 14.415V13.9486C81.072 13.3779 80.7041 13.0557 79.9934 13.0557C79.413 13.0557 79.0109 13.2742 78.8955 13.6562H77.8889C77.9952 12.7281 78.8464 12.1328 80.0414 12.1328C81.3622 12.1328 82.1071 12.8072 82.1071 13.9486V17.6406H81.1063V16.8812H81.024C80.857 17.1536 80.6226 17.3757 80.3446 17.5248C80.0666 17.6738 79.755 17.7445 79.4416 17.7296C79.2204 17.7532 78.9969 17.729 78.7854 17.6586C78.574 17.5882 78.3792 17.4731 78.2138 17.3207C78.0483 17.1683 77.9158 16.9821 77.8249 16.774C77.7339 16.5659 77.6864 16.3406 77.6855 16.1125V16.1125ZM81.072 15.6508V15.199L79.7855 15.2834C79.06 15.3332 78.7309 15.5863 78.7309 16.0627C78.7309 16.549 79.1422 16.832 79.7078 16.832C79.8736 16.8492 80.041 16.8321 80.2001 16.7815C80.3592 16.731 80.5068 16.6482 80.6341 16.538C80.7613 16.4278 80.8657 16.2925 80.9409 16.14C81.0162 15.9876 81.0607 15.8212 81.072 15.6508V15.6508Z" fill="white"/>
<path d="M83.4727 14.9338C83.4727 13.2264 84.3284 12.1447 85.6594 12.1447C85.9887 12.1292 86.3154 12.2101 86.6015 12.3779C86.8876 12.5458 87.1212 12.7937 87.275 13.0927H87.3527V10.125H88.3923V17.6379H87.3961V16.7842H87.3138C87.1481 17.0812 86.9064 17.326 86.6148 17.4922C86.3232 17.6584 85.9928 17.7395 85.6594 17.7269C84.3193 17.727 83.4727 16.6453 83.4727 14.9338ZM84.5467 14.9338C84.5467 16.0799 85.0734 16.7696 85.9543 16.7696C86.8305 16.7696 87.3721 16.07 87.3721 14.9385C87.3721 13.8123 86.8249 13.1028 85.9543 13.1028C85.079 13.1028 84.5466 13.7971 84.5466 14.9338H84.5467Z" fill="white"/>
<path d="M92.6934 14.9365C92.6603 14.5814 92.6999 14.2231 92.8097 13.8846C92.9195 13.5461 93.097 13.2349 93.3309 12.9709C93.5648 12.7069 93.85 12.496 94.168 12.3517C94.4861 12.2074 94.83 12.1328 95.1778 12.1328C95.5256 12.1328 95.8695 12.2074 96.1876 12.3517C96.5056 12.496 96.7908 12.7069 97.0247 12.9709C97.2586 13.2349 97.4362 13.5461 97.5459 13.8846C97.6557 14.2231 97.6953 14.5814 97.6622 14.9365C97.696 15.2919 97.6568 15.6507 97.5473 15.9897C97.4378 16.3288 97.2604 16.6406 97.0264 16.905C96.7924 17.1695 96.5071 17.3809 96.1887 17.5255C95.8704 17.6702 95.526 17.7449 95.1778 17.7449C94.8296 17.7449 94.4852 17.6702 94.1669 17.5255C93.8485 17.3809 93.5632 17.1695 93.3292 16.905C93.0952 16.6406 92.9178 16.3288 92.8083 15.9897C92.6988 15.6507 92.6596 15.2919 92.6934 14.9365V14.9365ZM96.5928 14.9365C96.5928 13.7652 96.0798 13.0802 95.1795 13.0802C94.2758 13.0802 93.7674 13.7652 93.7674 14.9365C93.7674 16.1171 94.2758 16.7968 95.1795 16.7968C96.0798 16.7968 96.5928 16.1124 96.5928 14.9365Z" fill="white"/>
<path d="M99.0586 12.2346H100.059V13.093H100.137C100.269 12.7847 100.491 12.5263 100.773 12.3537C101.055 12.1811 101.382 12.103 101.709 12.1303C101.966 12.1106 102.223 12.1502 102.462 12.2463C102.702 12.3424 102.917 12.4925 103.092 12.6856C103.267 12.8786 103.398 13.1095 103.474 13.3613C103.55 13.6131 103.57 13.8793 103.533 14.1401V17.6381H102.493V14.4079C102.493 13.5395 102.125 13.1077 101.356 13.1077C101.182 13.0994 101.008 13.1297 100.847 13.1967C100.685 13.2637 100.54 13.3658 100.42 13.4958C100.301 13.6259 100.21 13.7809 100.155 13.9503C100.099 14.1196 100.08 14.2993 100.098 14.477V17.6381H99.0586V12.2346Z" fill="white"/>
<path d="M109.406 10.8906V12.2605H110.548V13.1588H109.406V15.9373C109.406 16.5033 109.634 16.7512 110.151 16.7512C110.284 16.7507 110.416 16.7425 110.548 16.7266V17.6148C110.361 17.6491 110.172 17.6673 109.982 17.6693C108.826 17.6693 108.366 17.2521 108.366 16.2103V13.1587H107.529V12.2605H108.366V10.8906H109.406Z" fill="white"/>
<path d="M111.969 10.125H112.999V13.1027H113.082C113.22 12.7916 113.448 12.5316 113.736 12.3584C114.023 12.1852 114.356 12.1071 114.688 12.1348C114.943 12.1205 115.198 12.1642 115.434 12.2627C115.671 12.3611 115.884 12.5119 116.057 12.7043C116.23 12.8967 116.36 13.126 116.437 13.3757C116.514 13.6255 116.536 13.8896 116.502 14.1492V17.6379H115.461V14.4123C115.461 13.5492 115.07 13.1121 114.335 13.1121C114.156 13.0971 113.977 13.1223 113.808 13.1859C113.64 13.2496 113.487 13.3502 113.361 13.4807C113.235 13.6112 113.138 13.7684 113.077 13.9413C113.016 14.1143 112.993 14.2988 113.008 14.482V17.6379H111.969L111.969 10.125Z" fill="white"/>
<path d="M122.565 16.1817C122.424 16.6756 122.118 17.1028 121.7 17.3885C121.283 17.6743 120.781 17.8005 120.282 17.745C119.935 17.7544 119.59 17.6862 119.271 17.5452C118.953 17.4041 118.668 17.1936 118.436 16.9283C118.204 16.6629 118.032 16.349 117.931 16.0085C117.829 15.6679 117.801 15.3087 117.849 14.956C117.802 14.6021 117.831 14.2422 117.932 13.9006C118.033 13.559 118.205 13.2436 118.435 12.9759C118.665 12.7083 118.949 12.4945 119.267 12.349C119.585 12.2036 119.93 12.1299 120.278 12.1329C121.743 12.1329 122.628 13.1601 122.628 14.8569V15.229H118.908V15.2888C118.891 15.4871 118.916 15.6867 118.979 15.8748C119.042 16.0629 119.143 16.2353 119.275 16.3811C119.408 16.5268 119.568 16.6426 119.746 16.7211C119.924 16.7996 120.117 16.839 120.311 16.8368C120.559 16.8674 120.811 16.8215 121.035 16.7048C121.258 16.5882 121.442 16.4061 121.564 16.1817L122.565 16.1817ZM118.908 14.4403H121.569C121.582 14.259 121.558 14.0768 121.498 13.9055C121.438 13.7343 121.345 13.5777 121.222 13.4459C121.1 13.3141 120.953 13.2099 120.789 13.1401C120.625 13.0703 120.449 13.0364 120.272 13.0405C120.092 13.0382 119.914 13.0728 119.747 13.1424C119.58 13.2119 119.429 13.3149 119.302 13.4454C119.175 13.5758 119.075 13.7311 119.007 13.902C118.939 14.0728 118.905 14.2559 118.908 14.4403H118.908Z" fill="white"/>
</g>
<defs>
<clipPath id="clip0_6811_7111">
<rect width="140" height="48" fill="white"/>
</clipPath>
</defs>
</svg>
