<svg width="314" height="233" viewBox="0 0 314 233" fill="none" xmlns="http://www.w3.org/2000/svg">
<path d="M313.51 142.104C313.781 92.2001 243.928 51.3648 157.49 50.896C71.0519 50.4273 0.760591 90.5027 0.489982 140.407C0.219372 190.311 70.0719 231.147 156.51 231.615C242.948 232.084 313.239 192.009 313.51 142.104Z" fill="#E1EAFB"/>
<path d="M192.65 194.877L249.459 162.075C253.928 159.497 253.357 154.945 248.199 151.962L132.537 85.1813C127.379 82.1982 119.499 81.8773 115.031 84.4563L58.2217 117.258C53.753 119.837 54.3235 124.389 59.4814 127.372L175.144 194.152C180.302 197.135 188.181 197.456 192.65 194.877Z" fill="#DEE5E9"/>
<path d="M55.2029 109.747L58.7802 111.268L115.031 78.7991C119.499 76.2201 127.379 76.541 132.537 79.524L248.199 146.304C248.425 146.435 248.627 146.578 248.841 146.708L252.466 145.639V152.104H252.454C252.418 153.72 251.432 155.254 249.447 156.406L192.638 189.208C188.169 191.787 180.29 191.466 175.132 188.483L59.4695 121.703C56.6885 120.099 55.2623 118.042 55.2148 116.081H55.2029V109.747Z" fill="url(#paint0_linear_673_2254)"/>
<path d="M192.649 182.957L249.458 150.155C253.927 147.576 253.356 143.024 248.198 140.041L132.536 73.2611C127.378 70.278 119.498 69.9572 115.03 72.5361L58.2207 105.338C53.752 107.917 54.3225 112.469 59.4805 115.452L175.143 182.232C180.301 185.215 188.18 185.548 192.649 182.957Z" fill="#EFF0F5"/>
<path d="M59.4815 114.821L175.144 181.602C180.302 184.585 188.181 184.906 192.65 182.327L249.459 149.525C251.349 148.431 252.323 146.993 252.454 145.46C252.585 147.219 251.61 148.919 249.459 150.155L192.65 182.956C188.181 185.535 180.302 185.215 175.144 182.231L59.4815 115.451C56.4984 113.728 55.0604 111.494 55.2386 109.402C55.3694 111.303 56.7955 113.276 59.4815 114.821Z" fill="#BFC4D5"/>
<path d="M58.8516 112.1C59.4458 113.015 60.3966 113.883 61.692 114.643L89.8589 130.902L125.691 151.593L176.558 180.96C180.872 183.456 187.456 183.729 191.2 181.566L243.124 151.593L247.034 149.335C250.778 147.172 250.291 143.369 245.977 140.873L228.72 130.902L196.156 112.1L151.529 86.3339L131.123 74.5561C126.808 72.0603 120.212 71.787 116.469 73.95L95.0168 86.3339L60.6462 106.181C58.0434 107.691 57.4848 109.996 58.8516 112.1Z" fill="#2A2A2C"/>
<path d="M59.6122 111.613C59.7073 111.791 59.838 111.934 59.9688 112.1C60.4679 112.73 61.2048 113.324 62.1437 113.871L91.6297 130.902L95.7062 133.255L127.486 151.593L132.941 154.743L159.432 170.027L177.021 180.176C179.149 181.412 182.001 182.137 184.854 182.137C187.159 182.137 189.275 181.65 190.76 180.782L202.395 174.067L241.342 151.581L246.583 148.575C247.938 147.778 248.663 146.768 248.663 145.675C248.663 144.249 247.51 142.799 245.537 141.622L226.925 130.89L194.373 112.088L190.927 110.104L149.722 86.3223L143.827 82.9233L130.683 75.329C128.556 74.0811 125.679 73.3799 122.827 73.3799C121.223 73.3799 119.749 73.5938 118.477 74.0335C117.895 74.2118 117.384 74.4376 116.909 74.711L96.8114 86.3223L88.1831 91.302L61.0978 106.93C59.9688 107.584 59.2795 108.38 59.0774 109.248C58.8991 110.032 59.0893 110.829 59.6122 111.613Z" fill="#3A3F47"/>
<path d="M143.827 82.9351L159.432 170.026L177.021 180.176C179.149 181.412 182.001 182.137 184.853 182.137C187.159 182.137 189.275 181.65 190.76 180.782L202.395 174.067L190.927 110.115L149.722 86.3341L143.827 82.9351Z" fill="#3E444D"/>
<path d="M88.1831 91.3137L95.7061 133.243L127.486 151.581L132.941 154.731L118.477 74.0452C117.895 74.2234 117.384 74.4493 116.909 74.7226L96.8114 86.334L88.1831 91.3137Z" fill="#3E444D"/>
<path d="M65.2812 112.588C65.3763 112.754 65.4951 112.885 65.614 113.051C66.0894 113.645 66.7787 114.204 67.6582 114.715L95.3615 130.712L99.1884 132.922L129.055 150.155L134.189 153.114L159.076 167.471L177.639 178.191C179.648 179.356 182.322 180.033 185.008 180.033C187.171 180.033 189.168 179.57 190.558 178.762L201.492 172.451L238.097 151.32L243.029 148.491C244.301 147.743 244.978 146.804 244.978 145.77C244.978 144.427 243.897 143.06 242.043 141.967L222.516 130.7L191.925 113.039L188.692 111.173L149.972 88.83L144.434 85.633L132.073 78.5021C130.065 77.3255 127.379 76.6719 124.693 76.6719C123.196 76.6719 121.793 76.8739 120.605 77.278C120.058 77.4444 119.571 77.6583 119.131 77.9198L110.36 83.3867L110.562 88.9726L91.3801 100.061L83.0727 99.55L66.7074 108.202C65.6496 108.808 65.0079 109.569 64.8177 110.377C64.6276 111.102 64.7939 111.851 65.2812 112.588Z" fill="#FCFBFA"/>
<path d="M87.4581 97.5058L101.458 89.4242C101.708 89.2816 101.684 89.0201 101.387 88.8418C101.09 88.6754 100.638 88.6517 100.389 88.8062L86.3884 96.8878C86.1389 97.0304 86.1626 97.2919 86.4597 97.4702C86.745 97.6365 87.1966 97.6603 87.4581 97.5058Z" fill="#2A2A2C"/>
<path d="M101.553 89.3288C101.518 89.2693 101.458 89.2218 101.375 89.1743C101.078 89.0079 100.626 88.9841 100.377 89.1386L86.3766 97.2202C86.3291 97.244 86.2934 97.2797 86.2696 97.3153C86.1627 97.1727 86.1983 97.0063 86.3766 96.8994L100.377 88.8177C100.626 88.6751 101.078 88.687 101.375 88.8534C101.613 88.9841 101.672 89.1743 101.553 89.3288Z" fill="#3A3F47"/>
<path d="M105.095 86.5243C105.939 87.0116 107.294 87.0116 108.137 86.5243C108.981 86.037 108.981 85.2526 108.149 84.7654C107.306 84.2781 105.951 84.2781 105.107 84.7654C104.251 85.2526 104.251 86.037 105.095 86.5243Z" fill="#3A3F47"/>
<path d="M105.654 86.1915C106.188 86.5005 107.044 86.5005 107.579 86.1915C108.114 85.8825 108.114 85.3834 107.591 85.0862C107.056 84.7772 106.2 84.7772 105.665 85.0862C105.131 85.3952 105.119 85.8944 105.654 86.1915Z" fill="#516F83"/>
<path d="M102.183 88.4495C102.777 88.7941 103.74 88.7941 104.334 88.4495C104.929 88.1048 104.929 87.5463 104.346 87.2016C103.752 86.857 102.789 86.857 102.195 87.2016C101.601 87.5463 101.589 88.1048 102.183 88.4495Z" fill="#2A2A2C"/>
<path d="M68.3237 125.566L76.6311 130.355C77.3085 130.747 77.8671 130.331 77.8671 129.428C77.8671 128.525 77.3085 127.467 76.6311 127.075L68.3237 122.285C67.6462 121.893 67.0876 122.309 67.0876 123.212C67.0876 124.116 67.6462 125.173 68.3237 125.566Z" fill="#C4C8D8"/>
<path d="M67.6938 125.958L76.0012 130.747C76.6786 131.139 77.2372 130.723 77.2372 129.82C77.2372 128.917 76.6786 127.859 76.0012 127.467L67.6938 122.677C67.0163 122.285 66.4578 122.701 66.4578 123.604C66.4578 124.508 67.0163 125.565 67.6938 125.958Z" fill="#A0A6C0"/>
<path d="M121.151 156.05L129.458 160.839C130.136 161.231 130.694 160.816 130.694 159.912C130.694 159.009 130.136 157.951 129.458 157.559L121.151 152.77C120.474 152.377 119.915 152.793 119.915 153.697C119.927 154.6 120.474 155.658 121.151 156.05Z" fill="#C4C8D8"/>
<path d="M120.533 156.442L128.841 161.232C129.518 161.624 130.077 161.208 130.077 160.305C130.077 159.401 129.518 158.344 128.841 157.951L120.533 153.162C119.856 152.77 119.297 153.186 119.297 154.089C119.297 154.992 119.856 156.05 120.533 156.442Z" fill="#A0A6C0"/>
<path d="M216.835 172.118C216.835 172.891 217.311 173.247 217.893 172.914L225.024 168.814C225.606 168.481 226.082 167.566 226.082 166.794C226.082 166.021 225.606 165.653 225.024 165.986L224.323 166.39L217.893 170.098C217.441 170.347 217.061 170.965 216.907 171.571C216.847 171.762 216.835 171.952 216.835 172.118Z" fill="#A0A6C0"/>
<path d="M216.906 171.571L223.336 167.851C223.788 167.602 224.168 166.996 224.323 166.39L217.893 170.098C217.441 170.359 217.061 170.965 216.906 171.571Z" fill="#191F28"/>
<path d="M208.765 101.986L208.504 102.747L196.369 99.0032L158.291 77.0283L208.765 101.986Z" fill="#AE835B"/>
<path d="M158.291 77.0405L118.536 99.9899L102.088 101.024L101.862 100.204L158.291 77.0405Z" fill="#AE835B"/>
<path d="M132.216 109.783L156.603 154.719H130.516L92.4375 132.744L132.216 109.783Z" fill="#BECDD4"/>
<path d="M156.603 154.719L196.369 131.758V98.1714L156.603 121.121V154.719Z" fill="#C99A6B"/>
<path d="M196.369 98.1714L156.603 121.121L177.651 109.652L196.369 98.1714Z" fill="#87623F"/>
<path d="M156.603 154.719L118.513 132.72V99.1338L156.603 121.121V154.719Z" fill="#AE835B"/>
<path d="M154.63 151.581L146.085 146.649V136.844L154.63 141.776V151.581ZM146.644 146.328L154.06 150.619V142.109L146.644 137.831V146.328Z" fill="#87623F"/>
<path d="M151.303 148.444L149.413 147.35V142.406L151.303 143.5V148.444Z" fill="#87623F"/>
<path d="M153.157 145.508L147.559 142.287L150.364 140.529L153.157 145.508Z" fill="#87623F"/>
<path d="M106.129 117.306L156.603 121.121V121.964L144.481 139.708L106.402 117.745L106.129 117.306Z" fill="#D6B28E"/>
<path d="M212.735 118.934L172.968 141.896L156.603 121.953V121.121L213.044 118.471L212.735 118.934Z" fill="#D6B28E"/>
<path d="M118.536 99.1577L156.603 121.121L144.207 139.281L106.129 117.306L118.536 99.1577Z" fill="#EDBC8E"/>
<path d="M170.687 80.0234L208.765 101.986L196.369 98.1714L158.291 76.1965L170.687 80.0234Z" fill="#EDBC8E"/>
<path d="M158.303 76.1965L196.381 98.1595L156.603 121.121L118.524 99.1578L158.303 76.1965Z" fill="#E8B687"/>
<path d="M119.523 99.1341L158.291 76.7551L195.359 98.1476L156.591 120.527L119.523 99.1341Z" fill="#C99A6B"/>
<path d="M213.044 118.471L173.277 141.42L156.603 121.121L196.369 98.1714L213.044 118.471Z" fill="#F7CCA3"/>
<path d="M158.291 76.2083L118.536 99.1577L101.862 100.204L141.616 77.2541L158.291 76.2083Z" fill="#E8B687"/>
<path d="M177.568 109.164L177.235 109.343L177.116 109.26L177.437 109.081L177.568 109.164Z" fill="#D1A986"/>
<path d="M149.151 116.224L156.591 120.526L165.742 115.238L158.291 110.947L149.151 116.224Z" fill="#AD8057"/>
<path d="M158.291 110.947V76.7551L195.359 98.1476L165.742 115.238L158.291 110.947Z" fill="#AE835B"/>
<path d="M185.233 103.995L156.591 120.515L139.275 110.531L134.973 108.036L130.409 105.409L134.117 104.577L140.06 99.6093L147.214 97.3393L151.754 93.4887L158.303 91.3613L161.999 92.0506L165.731 94.4038L171.091 95.9964L176.082 98.1713L180.503 101.856L185.233 103.995Z" fill="#EBEDFA"/>
<path d="M142.246 103.698H139.644C138.693 103.698 137.92 104.47 137.92 105.421C137.92 106.36 138.693 107.144 139.644 107.144H142.246C143.185 107.144 143.97 106.372 143.97 105.421C143.958 104.47 143.185 103.698 142.246 103.698Z" fill="#E1E7F7"/>
<path d="M153.24 115.297L155.557 114.109C156.401 113.681 156.734 112.635 156.306 111.791C155.878 110.948 154.832 110.615 153.989 111.043L151.671 112.231C150.827 112.659 150.494 113.705 150.922 114.537C151.35 115.392 152.396 115.725 153.24 115.297Z" fill="#E1E7F7"/>
<path d="M161.357 101.404L162.867 103.531C163.413 104.304 164.495 104.482 165.267 103.936C166.04 103.389 166.218 102.307 165.671 101.535L164.162 99.4074C163.615 98.6349 162.534 98.4567 161.761 99.0034C160.989 99.5619 160.799 100.643 161.357 101.404Z" fill="#E1E7F7"/>
<path d="M172.041 106.289L174.359 105.1C175.203 104.672 175.535 103.626 175.108 102.783C174.68 101.939 173.634 101.606 172.79 102.034L170.473 103.222C169.629 103.65 169.296 104.696 169.724 105.54C170.152 106.384 171.198 106.716 172.041 106.289Z" fill="#E1E7F7"/>
<path d="M159.693 113.871L162.26 114.346C163.187 114.525 164.091 113.907 164.269 112.98C164.447 112.053 163.829 111.149 162.902 110.971L160.335 110.496C159.408 110.317 158.505 110.936 158.327 111.863C158.148 112.79 158.766 113.693 159.693 113.871Z" fill="#EDF5FC"/>
<path d="M154.808 104.981L152.824 106.669C152.099 107.287 152.016 108.368 152.622 109.093C153.228 109.818 154.321 109.901 155.046 109.295L157.031 107.608C157.756 107.001 157.839 105.908 157.233 105.183C156.615 104.458 155.533 104.363 154.808 104.981Z" fill="#EDF5FC"/>
<path d="M158.885 91.7654L156.9 93.4531C156.175 94.0711 156.092 95.1526 156.698 95.8776C157.304 96.6025 158.398 96.6857 159.123 96.0796L161.108 94.392C161.832 93.7858 161.916 92.6924 161.31 91.9675C160.703 91.2425 159.61 91.1593 158.885 91.7654Z" fill="#EDF5FC"/>
<path d="M169.153 105.124L166.955 103.722C166.158 103.211 165.089 103.448 164.578 104.245C164.067 105.041 164.304 106.11 165.101 106.621L167.299 108.024C168.096 108.535 169.165 108.297 169.676 107.501C170.176 106.705 169.95 105.635 169.153 105.124Z" fill="#F0F2FF"/>
<path d="M172.648 105.706L170.853 107.596C170.199 108.285 170.235 109.379 170.912 110.021C171.602 110.674 172.695 110.639 173.337 109.961L175.131 108.071C175.785 107.382 175.749 106.289 175.072 105.647C174.395 104.993 173.301 105.017 172.648 105.706Z" fill="#F0F2FF"/>
<path d="M165.529 95.2478L163.33 93.8454C162.534 93.3343 161.464 93.572 160.953 94.3683C160.442 95.1646 160.68 96.2342 161.476 96.7453L163.675 98.1477C164.471 98.6587 165.541 98.421 166.052 97.6247C166.563 96.8284 166.325 95.7588 165.529 95.2478Z" fill="#F0F2FF"/>
<path d="M145.883 106.99L143.28 106.859C142.341 106.812 141.521 107.548 141.474 108.487C141.426 109.426 142.163 110.246 143.102 110.294L145.705 110.425C146.644 110.472 147.464 109.735 147.511 108.796C147.559 107.846 146.822 107.026 145.883 106.99Z" fill="#F0F2FF"/>
<path d="M154.024 94.0594L151.421 93.9287C150.483 93.8812 149.663 94.618 149.615 95.5569C149.567 96.4958 150.304 97.3158 151.243 97.3634L153.846 97.4941C154.785 97.5416 155.605 96.8048 155.652 95.8659C155.7 94.9151 154.963 94.1069 154.024 94.0594Z" fill="#F0F2FF"/>
<path d="M170.722 97.0065L168.428 98.2544C167.596 98.706 167.287 99.7519 167.739 100.584C168.191 101.416 169.237 101.725 170.068 101.273L172.362 100.025C173.194 99.5736 173.503 98.5277 173.052 97.6958C172.6 96.852 171.554 96.543 170.722 97.0065Z" fill="#F7F8FF"/>
<path d="M156.995 114.798L154.428 115.25C153.501 115.416 152.871 116.307 153.026 117.234C153.192 118.161 154.083 118.791 155.011 118.637L157.578 118.185C158.505 118.019 159.135 117.127 158.98 116.2C158.826 115.273 157.922 114.643 156.995 114.798Z" fill="#F7F8FF"/>
<path d="M140.214 108.701C140.345 109.474 139.929 110.223 139.275 110.532L134.973 108.048C135.175 107.893 135.413 107.798 135.662 107.751L138.229 107.311C139.168 107.133 140.06 107.774 140.214 108.701Z" fill="#F7F8FF"/>
<path d="M180.48 101.535L177.913 101.986C176.986 102.153 176.356 103.044 176.51 103.971C176.677 104.898 177.568 105.528 178.495 105.374L181.062 104.922C181.989 104.756 182.619 103.864 182.464 102.937C182.31 102.01 181.407 101.38 180.48 101.535Z" fill="#F7F8FF"/>
<path d="M154.737 97.5174L152.17 97.969C151.243 98.1354 150.613 99.0267 150.768 99.9537C150.934 100.881 151.825 101.511 152.752 101.356L155.32 100.905C156.247 100.738 156.876 99.8468 156.722 98.9198C156.556 97.9809 155.664 97.351 154.737 97.5174Z" fill="#F7F8FF"/>
<path d="M146.632 98.8964L144.029 98.7656C143.09 98.7181 142.27 99.4549 142.223 100.394C142.175 101.333 142.912 102.153 143.851 102.2L146.454 102.331C147.392 102.379 148.213 101.642 148.26 100.703C148.32 99.752 147.583 98.9439 146.632 98.8964Z" fill="#F7F8FF"/>
<path d="M150.958 106.384L148.759 104.982C147.963 104.471 146.893 104.708 146.382 105.505C145.871 106.301 146.109 107.37 146.905 107.881L149.104 109.284C149.9 109.795 150.97 109.557 151.481 108.761C151.992 107.965 151.754 106.895 150.958 106.384Z" fill="#F2F4FF"/>
<path d="M156.27 104.637L158.778 103.9C159.681 103.638 160.216 102.676 159.943 101.772C159.681 100.869 158.719 100.346 157.815 100.608L155.308 101.345C154.405 101.606 153.882 102.569 154.143 103.472C154.405 104.387 155.355 104.91 156.27 104.637Z" fill="#F2F4FF"/>
<path d="M161.381 110.306L163.888 109.569C164.792 109.308 165.327 108.345 165.053 107.442C164.792 106.538 163.829 106.004 162.926 106.277L160.418 107.014C159.515 107.275 158.992 108.238 159.253 109.141C159.515 110.044 160.466 110.567 161.381 110.306Z" fill="#F2F4FF"/>
<path d="M161.559 98.4564L162.819 96.1745C163.282 95.3425 162.973 94.2967 162.153 93.8332C161.333 93.3697 160.275 93.6787 159.812 94.4987L158.552 96.7806C158.089 97.6125 158.398 98.6584 159.218 99.1219C160.05 99.5854 161.107 99.2883 161.559 98.4564Z" fill="#F2F4FF"/>
<path d="M136.221 104.767L138.075 102.937C138.752 102.271 138.752 101.178 138.099 100.513C137.433 99.8351 136.34 99.8351 135.674 100.489L133.82 102.319C133.143 102.985 133.143 104.078 133.796 104.744C134.462 105.421 135.555 105.433 136.221 104.767Z" fill="#F2F4FF"/>
<path d="M167.941 112.504L170.449 111.767C171.352 111.506 171.887 110.543 171.614 109.64C171.352 108.737 170.39 108.202 169.486 108.475L166.979 109.212C166.075 109.474 165.552 110.436 165.814 111.339C166.075 112.243 167.026 112.777 167.941 112.504Z" fill="#F2F4FF"/>
<path d="M104.572 121.121H101.969C101.018 121.121 100.246 121.893 100.246 122.844C100.246 123.783 101.018 124.567 101.969 124.567H104.572C105.511 124.567 106.295 123.795 106.295 122.844C106.283 121.893 105.511 121.121 104.572 121.121Z" fill="#DFE3FF"/>
<path d="M199.02 147.529L201.575 147.03C202.502 146.852 203.108 145.948 202.93 145.009C202.752 144.082 201.848 143.476 200.909 143.655L198.354 144.154C197.427 144.332 196.821 145.247 196.999 146.174C197.178 147.089 198.093 147.707 199.02 147.529Z" fill="#DFE3FF"/>
<path d="M163.473 165.522L165.79 164.334C166.634 163.906 166.967 162.86 166.539 162.016C166.111 161.172 165.065 160.839 164.221 161.267L161.904 162.456C161.06 162.884 160.727 163.929 161.155 164.773C161.583 165.617 162.629 165.95 163.473 165.522Z" fill="#DFE3FF"/>
<path d="M144.493 158.249L147.06 158.724C147.987 158.903 148.89 158.285 149.068 157.358C149.247 156.431 148.629 155.527 147.701 155.349L145.134 154.874C144.207 154.695 143.304 155.313 143.126 156.24C142.948 157.179 143.566 158.083 144.493 158.249Z" fill="#D5E7F7"/>
<path d="M175.488 152.58L173.503 154.268C172.778 154.874 172.695 155.967 173.301 156.692C173.907 157.417 175.001 157.5 175.726 156.894L177.711 155.206C178.436 154.6 178.519 153.507 177.913 152.782C177.306 152.057 176.213 151.974 175.488 152.58Z" fill="#D5E7F7"/>
<path d="M159.515 163.609L157.316 162.206C156.52 161.695 155.45 161.933 154.939 162.729C154.428 163.526 154.666 164.595 155.462 165.106L157.661 166.509C158.457 167.02 159.527 166.782 160.038 165.986C160.549 165.178 160.311 164.12 159.515 163.609Z" fill="#F0F2FF"/>
<path d="M131.348 147.35L133.915 147.825C134.842 148.004 135.745 147.386 135.924 146.459C136.102 145.532 135.484 144.628 134.557 144.45L131.99 143.975C131.063 143.796 130.16 144.414 129.981 145.341C129.803 146.268 130.421 147.172 131.348 147.35Z" fill="#DFE3FF"/>
<path d="M124.764 142.466L122.779 144.153C122.054 144.771 121.971 145.853 122.577 146.578C123.183 147.303 124.277 147.386 125.002 146.78L126.986 145.092C127.711 144.486 127.795 143.393 127.188 142.668C126.57 141.943 125.477 141.848 124.764 142.466Z" fill="#F0F2FF"/>
<path d="M155.07 157.845L152.871 156.442C152.075 155.931 151.005 156.169 150.494 156.965C149.983 157.762 150.221 158.831 151.017 159.342L153.216 160.745C154.012 161.256 155.082 161.018 155.593 160.222C156.104 159.414 155.866 158.344 155.07 157.845Z" fill="#F0F2FF"/>
<path d="M190.284 149.977L192.673 151.023C193.541 151.403 194.563 151.011 194.931 150.143C195.312 149.276 194.919 148.254 194.052 147.885L191.663 146.839C190.795 146.459 189.773 146.851 189.405 147.719C189.025 148.586 189.417 149.597 190.284 149.977Z" fill="#F0F2FF"/>
<path d="M187.563 158.356L189.916 157.227C190.772 156.823 191.128 155.789 190.724 154.933C190.32 154.077 189.286 153.721 188.43 154.125L186.077 155.254C185.222 155.658 184.865 156.692 185.269 157.548C185.685 158.403 186.719 158.76 187.563 158.356Z" fill="#DFE3FF"/>
<path d="M109.896 126.457L107.294 126.326C106.355 126.279 105.535 127.016 105.487 127.955C105.44 128.893 106.176 129.714 107.115 129.761L109.718 129.892C110.657 129.939 111.477 129.203 111.524 128.264C111.572 127.313 110.835 126.505 109.896 126.457Z" fill="#F0F2FF"/>
<path d="M99.8417 126.588L97.643 125.185C96.8467 124.674 95.7771 124.912 95.266 125.708C94.755 126.505 94.9927 127.574 95.789 128.085L97.9876 129.488C98.7839 129.999 99.8535 129.761 100.365 128.965C100.876 128.157 100.638 127.087 99.8417 126.588Z" fill="#D1D7FF"/>
<path d="M198.033 153.697L200.636 153.685C201.587 153.685 202.348 152.901 202.348 151.962C202.348 151.023 201.563 150.25 200.624 150.25L198.021 150.262C197.083 150.262 196.31 151.047 196.31 151.986C196.31 152.936 197.094 153.709 198.033 153.697Z" fill="#D1D7FF"/>
<path d="M77.2726 86.0964L77.5103 85.9538L74.1826 83.7433C79.9943 80.8434 86.2456 78.2168 92.8654 75.9587L95.4682 78.5021C89.0148 80.7127 82.9298 83.2441 77.2726 86.0964Z" fill="url(#paint1_linear_673_2254)"/>
<path d="M141.225 69.5408C139.941 69.6121 138.681 69.7309 137.421 69.8498L133.63 70.2182L129.875 70.6817L127.997 70.9194L126.143 71.2046L122.423 71.7751L118.762 72.4525C116.302 72.8685 113.937 73.4508 111.536 73.95L109.623 71.2165C112.131 70.6936 114.591 70.0874 117.158 69.6477L120.973 68.9465L124.847 68.3523L126.785 68.0552L128.746 67.8056L132.668 67.3183L136.625 66.938C137.944 66.8073 139.264 66.6884 140.595 66.6052L141.225 69.5408Z" fill="url(#paint2_linear_673_2254)"/>
<path d="M189.524 71.6207L185.804 71.0384L182.037 70.5511C179.541 70.1945 176.986 70.0163 174.454 69.7429C169.356 69.3626 164.245 69.0299 159.099 69.0061L159.182 66.0706C164.53 66.0943 169.867 66.439 175.179 66.8312C177.818 67.1164 180.48 67.3065 183.083 67.675L187.004 68.1741L190.879 68.7803L189.524 71.6207Z" fill="url(#paint3_linear_673_2254)"/>
<path d="M232.666 84.4442C230.621 83.5409 228.625 82.5902 226.486 81.7701C225.428 81.3542 224.382 80.9144 223.312 80.4984L220.044 79.31C218.963 78.9059 217.845 78.5375 216.716 78.1809L213.353 77.0875L209.895 76.1011C208.742 75.7683 207.589 75.4356 206.4 75.1503L208.468 72.4644C209.704 72.7615 210.917 73.1062 212.105 73.4508L215.706 74.4848L219.212 75.6138C220.389 75.9823 221.553 76.3744 222.682 76.7904L226.093 78.0264C227.211 78.4543 228.304 78.9059 229.409 79.3456C231.644 80.2013 233.723 81.1878 235.851 82.1266L232.666 84.4442Z" fill="url(#paint4_linear_673_2254)"/>
<path d="M263.804 105.956C258.859 100.75 252.893 95.842 245.81 91.5159L249.53 89.5193C256.899 94.0236 263.126 99.134 268.284 104.565L263.804 105.956Z" fill="url(#paint5_linear_673_2254)"/>
<path d="M277.935 132.744C276.913 126.837 274.69 121.002 271.16 115.416L275.95 114.429C279.634 120.241 281.94 126.338 283.009 132.482L277.935 132.744Z" fill="url(#paint6_linear_673_2254)"/>
<path d="M272.848 160.519C275.997 154.885 277.733 149.002 278.327 143.084L283.413 143.25C282.807 149.418 280.989 155.539 277.709 161.422L272.848 160.519Z" fill="url(#paint7_linear_673_2254)"/>
<path d="M249.304 184.847C252.715 182.636 255.698 180.235 258.598 177.799C261.343 175.303 264.006 172.772 266.192 170.098L270.768 171.405C268.474 174.186 265.717 176.836 262.853 179.427C259.834 181.97 256.72 184.478 253.167 186.772L249.304 184.847Z" fill="url(#paint8_linear_673_2254)"/>
<path d="M211.13 201.889C215.765 200.618 220.151 199.096 224.465 197.504C228.684 195.828 232.856 194.105 236.683 192.144L240.022 194.378C236.029 196.422 231.691 198.229 227.294 199.964C222.801 201.616 218.226 203.22 213.388 204.54L211.13 201.889Z" fill="url(#paint9_linear_673_2254)"/>
<path d="M164.34 208.889C174.585 208.557 184.782 207.546 194.539 205.728L196.096 208.533C185.923 210.423 175.31 211.48 164.626 211.825L164.34 208.889Z" fill="url(#paint10_linear_673_2254)"/>
<path d="M116.409 204.765C126.071 206.81 136.197 208.081 146.418 208.675L145.966 211.599C135.318 210.981 124.764 209.65 114.698 207.523L116.409 204.765Z" fill="url(#paint11_linear_673_2254)"/>
<path d="M75.0267 190.123C82.5259 194.212 91.0235 197.658 100.044 200.511L97.6433 203.09C88.2425 200.118 79.3883 196.517 71.5801 192.263L75.0267 190.123Z" fill="url(#paint12_linear_673_2254)"/>
<path d="M46.6933 167.364C47.1806 168.053 47.751 168.719 48.3334 169.384L50.0567 171.381L51.9464 173.33C52.5644 173.984 53.2061 174.626 53.9073 175.244L55.9634 177.133C56.6646 177.751 57.4252 178.357 58.1621 178.964C59.5882 180.2 61.2283 181.352 62.7971 182.529L58.8395 184.359C57.1994 183.135 55.4999 181.935 54.0143 180.639C53.2537 179.997 52.4574 179.379 51.7324 178.726L49.5932 176.753C48.8563 176.099 48.1908 175.434 47.549 174.756L45.588 172.724L43.7934 170.644C43.1873 169.955 42.5931 169.254 42.082 168.541L46.6933 167.364Z" fill="url(#paint13_linear_673_2254)"/>
<path d="M36.0446 140.053C36.0803 143.024 36.6507 145.971 37.3163 148.919C37.7917 150.381 38.1007 151.854 38.7187 153.292L39.5506 155.467L40.5608 157.618L35.6643 158.403L34.6065 156.168L33.739 153.898C33.0972 152.389 32.7644 150.856 32.2771 149.335C31.5759 146.268 30.9936 143.19 30.946 140.1L36.0446 140.053Z" fill="url(#paint14_linear_673_2254)"/>
<path d="M44.6255 112.575C43.7579 113.966 42.7477 115.333 42.0228 116.747L40.858 118.862L39.8716 121.002L39.3725 122.071L38.9684 123.153L38.1602 125.328L37.5303 127.514C37.3045 128.239 37.1144 128.976 36.9836 129.713L31.9326 129.321C32.0633 128.548 32.2654 127.788 32.5031 127.027L33.1686 124.745L34.0124 122.487L34.4403 121.358L34.9513 120.241L35.9853 118.007L37.1976 115.808C37.9582 114.322 39.004 112.908 39.9073 111.458L44.6255 112.575Z" fill="url(#paint15_linear_673_2254)"/>
<path d="M65.6734 92.7873C60.7412 96.0556 56.3201 99.5735 52.4813 103.305L48.084 101.808C51.8633 98.0998 56.2369 94.6057 61.074 91.3374L64.889 93.239L65.6734 92.7873Z" fill="url(#paint16_linear_673_2254)"/>
<path d="M238.156 187.996C233.212 190.849 233.236 195.496 238.216 198.36C243.195 201.236 251.23 201.248 256.174 198.395C261.118 195.543 261.094 190.896 256.114 188.032C251.146 185.156 243.1 185.144 238.156 187.996Z" fill="#DEE5E9"/>
<path d="M235.328 171.548L234.258 189.434H234.294C234.377 191.276 235.625 193.118 238.073 194.533C243.136 197.456 251.313 197.468 256.34 194.568C258.657 193.237 259.846 191.502 260.024 189.755H260.095L259.026 172.059L235.328 171.548Z" fill="#554D4E"/>
<path d="M259.023 172.12C259.044 168.346 253.755 165.258 247.211 165.222C240.667 165.187 235.346 168.218 235.325 171.992C235.305 175.766 240.593 178.854 247.137 178.89C253.681 178.925 259.003 175.894 259.023 172.12Z" fill="#6B6164"/>
<path d="M258.466 171.866C258.486 168.263 253.447 165.314 247.211 165.28C240.976 165.247 235.905 168.14 235.885 171.744C235.866 175.347 240.905 178.296 247.141 178.33C253.376 178.364 258.447 175.47 258.466 171.866Z" fill="#85787C"/>
<path d="M240.295 169.337V171.679H240.307C240.355 172.665 241.02 173.64 242.316 174.388C245.014 175.945 249.363 175.945 252.038 174.4C253.274 173.687 253.903 172.772 253.999 171.833H254.034V169.646L240.295 169.337Z" fill="#493F41"/>
<path d="M241.484 163.989C238.358 165.796 238.382 168.719 241.52 170.538C244.657 172.356 249.732 172.356 252.858 170.561C255.983 168.755 255.96 165.831 252.822 164.013C249.673 162.194 244.598 162.183 241.484 163.989Z" fill="#DCDBE5"/>
<path d="M238.037 162.944V167.353H238.061C238.121 168.66 239 169.956 240.735 170.954C244.312 173.022 250.1 173.034 253.654 170.978C255.294 170.027 256.138 168.815 256.257 167.579H256.304V163.383L238.037 162.944Z" fill="#554D4E"/>
<path d="M240.688 158.903C237.134 160.959 237.146 164.298 240.723 166.366C244.301 168.434 250.089 168.446 253.642 166.39C257.196 164.334 257.184 160.994 253.606 158.926C250.029 156.858 244.241 156.847 240.688 158.903Z" fill="#6B6164"/>
<path d="M240.937 158.998C237.562 160.947 237.586 164.108 240.973 166.069C244.36 168.03 249.851 168.042 253.214 166.093C256.59 164.144 256.566 160.982 253.179 159.021C249.791 157.06 244.313 157.049 240.937 158.998Z" fill="#85787C"/>
<path d="M232.475 200.558C232.488 198.247 229.252 196.357 225.248 196.335C221.245 196.313 217.989 198.169 217.976 200.479C217.964 202.79 221.199 204.68 225.203 204.702C229.207 204.724 232.463 202.868 232.475 200.558Z" fill="#DEE5E9"/>
<path d="M218.178 188.221L217.976 198.05H217.988C218.036 199.084 218.737 200.118 220.116 200.914C222.956 202.554 227.544 202.566 230.372 200.938C231.668 200.189 232.345 199.215 232.44 198.24H232.476L232.274 188.316L218.178 188.221Z" fill="#554D4E"/>
<path d="M220.223 185.429C217.477 187.009 217.489 189.588 220.258 191.181C223.015 192.773 227.484 192.785 230.229 191.205C232.975 189.624 232.963 187.045 230.194 185.452C227.425 183.848 222.968 183.848 220.223 185.429Z" fill="#6B6164"/>
<path d="M220.448 185.417C217.834 186.926 217.845 189.386 220.484 190.907C223.122 192.429 227.377 192.441 229.992 190.919C232.606 189.41 232.594 186.95 229.956 185.429C227.329 183.907 223.075 183.907 220.448 185.417Z" fill="#85787C"/>
<path d="M221.126 186.7V188.103H221.138C221.161 188.685 221.554 189.268 222.338 189.719C223.942 190.646 226.533 190.646 228.126 189.731C228.863 189.303 229.231 188.756 229.291 188.21H229.314V186.902L221.126 186.7Z" fill="#493F41"/>
<path d="M221.839 183.515C219.985 184.585 219.985 186.332 221.862 187.413C223.728 188.495 226.759 188.495 228.613 187.425C230.467 186.356 230.467 184.609 228.589 183.527C226.711 182.446 223.693 182.434 221.839 183.515Z" fill="#DCDBE5"/>
<path d="M219.783 182.897V185.524H219.795C219.83 186.296 220.353 187.081 221.387 187.675C223.515 188.899 226.961 188.911 229.077 187.687C230.051 187.128 230.55 186.403 230.622 185.655H230.657V183.159L219.783 182.897Z" fill="#554D4E"/>
<path d="M221.363 180.485C219.248 181.709 219.26 183.694 221.387 184.93C223.514 186.154 226.961 186.166 229.076 184.942C231.192 183.718 231.18 181.733 229.053 180.497C226.925 179.273 223.479 179.261 221.363 180.485Z" fill="#6B6164"/>
<path d="M221.518 180.544C219.509 181.697 219.521 183.586 221.542 184.751C223.562 185.916 226.818 185.928 228.827 184.763C230.835 183.61 230.824 181.72 228.803 180.556C226.783 179.391 223.526 179.379 221.518 180.544Z" fill="#85787C"/>
<path d="M108.815 0.0390214C109.219 -0.11548 109.575 0.21729 109.575 0.538178C109.563 13.0647 108.791 20.1361 108.791 32.9835C107.151 36.5964 105.19 39.2467 102.967 41.2315C100.674 43.3113 98.1066 44.7019 95.3136 45.7834C91.6056 47.2095 87.5173 48.1009 83.1674 49.3369C76.5358 51.2147 71.77 52.6527 67.4558 54.7207C66.2792 55.2793 65.1264 55.8973 63.9736 56.5747C60.634 58.5594 57.7222 61.6257 53.7408 65.7141C53.622 65.8448 53.111 65.7378 52.9802 65.619V32.6745C57.128 28.2415 60.5151 25.5199 63.9855 23.4638C65.1264 22.7745 66.2674 22.1684 67.4677 21.6098C71.6036 19.6607 76.203 18.2821 82.597 16.5113C87.1607 15.2396 91.4511 14.3958 95.3255 12.9102C100.828 10.8304 105.475 7.5264 108.815 0.0390214Z" fill="#98D19C"/>
<path d="M109.575 0.53833C109.564 13.7185 109.564 20.3026 109.564 33.4828C107.923 37.0958 105.962 39.7461 103.74 41.7308C101.446 43.8106 98.8792 45.2011 96.0863 46.2827C92.3782 47.7088 88.2899 48.6002 83.9401 49.8362C77.3084 51.714 72.5426 53.1521 68.2285 55.22C67.0519 55.7786 65.899 56.3966 64.7462 57.074C61.2997 59.1301 57.9006 61.816 53.741 65.7142V32.7579C57.8887 28.7289 61.2759 26.0073 64.7462 23.9513C65.8872 23.262 67.0281 22.6558 68.2285 22.0973C72.3643 20.1482 76.9637 18.7695 83.3577 16.9987C87.9215 15.727 92.2118 14.8832 96.0863 13.3976C101.589 11.3297 106.236 8.01383 109.575 0.53833Z" fill="#A4E2A9"/>
<path d="M109.575 0.53833C109.563 13.7185 109.563 20.3026 109.563 33.4828C107.27 37.2978 105.487 39.8649 103.74 41.7308C101.446 43.8106 98.8791 45.2011 96.0862 46.2827V13.4095C101.589 11.3297 106.236 8.01383 109.575 0.53833Z" fill="#9CD6A1"/>
<path d="M78.1878 46.9242C76.6785 46.627 75.2879 45.9734 74.0995 44.9869C71.9008 43.1567 70.7004 40.3519 70.7004 36.8459C70.7004 29.7269 75.5375 22.4416 81.468 21.3957C84.3679 20.8847 87.1133 21.6216 89.1812 23.3568C91.3799 25.187 92.5802 27.9918 92.5802 31.4978C92.5802 38.6167 87.755 45.9021 81.8127 46.9479C80.5767 47.1737 79.3525 47.15 78.1878 46.9242ZM85.1166 22.4297C84.0826 22.2277 82.9774 22.2158 81.8364 22.4178C76.3457 23.3924 71.6988 30.2855 71.6988 36.9053C71.6988 40.0667 72.7565 42.61 74.6699 44.2263C76.4764 45.7595 78.9009 46.3775 81.4799 45.9258C86.9706 44.9513 91.6176 38.0582 91.6176 31.4384C91.6176 28.277 90.5598 25.7337 88.6464 24.1174C87.6243 23.2617 86.4239 22.6912 85.1166 22.4297Z" fill="#98D19C"/>
<path d="M61.0975 46.9839C61.0975 47.4712 61.0975 47.7207 61.0975 48.2199C59.6594 49.5391 58.6373 50.6206 56.9141 52.9263C56.9141 52.3914 56.9141 52.1181 56.9141 51.5833C58.4947 49.5153 59.5168 48.4219 61.0975 46.9839Z" fill="#98D19C"/>
<path d="M61.0975 50.5015C61.0975 50.9887 61.0975 51.2383 61.0975 51.7375C59.6594 53.0448 58.6373 54.1263 56.9141 56.4319C56.9141 55.8971 56.9141 55.6357 56.9141 55.1127C58.4947 53.021 59.5168 51.9276 61.0975 50.5015Z" fill="#98D19C"/>
<path d="M86.3407 36.2042C86.3407 38.4742 84.8432 40.2569 82.7159 40.9581C82.7159 42.0871 82.7159 42.6576 82.7159 43.7866C82.0503 43.9055 81.7176 43.9649 81.0401 44.0838C81.0401 42.9547 81.0401 42.3961 81.0401 41.2671C79.4357 41.3384 77.9144 40.8155 76.821 39.9241C77.2014 38.9377 77.3915 38.4504 77.7599 37.4759C78.9722 38.4861 80.5766 38.9733 81.8364 38.7475C83.0962 38.5217 83.8568 37.8324 83.8568 36.8578C83.8568 33.9698 77.5104 36.7865 77.5104 31.8663C77.5104 29.7508 78.8771 27.9918 81.0164 27.2906C81.0164 26.221 81.0164 25.6862 81.0164 24.6166C81.6819 24.4858 82.0147 24.4264 82.6921 24.2957C82.6921 25.3653 82.6921 25.9001 82.6921 26.9697C83.9875 26.8984 85.2592 27.1837 86.1981 27.7066C85.8297 28.7049 85.6514 29.2041 85.283 30.2024C84.0232 29.5725 82.6564 29.3586 81.7413 29.5131C80.6836 29.7032 79.9824 30.2856 79.9824 31.1294C80.018 33.9579 86.3526 31.2364 86.3407 36.2042Z" fill="#98D19C"/>
<path d="M106.675 12.8629C106.675 13.8731 105.986 15.4657 105.023 16.7492C105.023 17.2603 105.023 17.5099 105.023 18.009C104.714 18.3656 104.572 18.5438 104.263 18.8766C104.263 18.3774 104.263 18.1278 104.263 17.6168C103.526 18.3299 102.837 18.6508 102.337 18.6033C102.516 18.0447 102.599 17.7594 102.765 17.2008C103.324 17.2246 104.049 16.8087 104.631 16.1431C105.214 15.4894 105.558 14.8001 105.558 14.3723C105.558 13.0768 102.658 16.975 102.658 14.7764C102.658 13.8256 103.276 12.6015 104.263 11.3892C104.263 10.9138 104.263 10.6761 104.263 10.2007C104.572 9.85608 104.726 9.68969 105.023 9.32126C105.023 9.79665 105.023 10.0343 105.023 10.5097C105.618 9.87985 106.188 9.38068 106.628 9.1311C106.461 9.76099 106.378 10.0819 106.212 10.6999C105.629 11.0564 105.011 11.5912 104.596 12.0666C104.108 12.6252 103.799 13.1482 103.799 13.5285C103.787 14.8001 106.687 10.6405 106.675 12.8629Z" fill="#D0EAD2"/>
<path d="M68.2283 22.1086V55.2195C67.0517 55.7781 65.8989 56.3961 64.7461 57.0735V23.9627C65.887 23.2733 67.0161 22.6672 68.2283 22.1086Z" fill="#AEF0B3"/>
<path d="M263.816 100.12C261.094 101.689 256.673 101.689 253.928 100.096C251.194 98.5156 251.17 95.9604 253.892 94.3917C256.614 92.8229 261.035 92.8229 263.78 94.4154C266.525 95.9842 266.537 98.5394 263.816 100.12Z" fill="#BDC2FF"/>
<path d="M264.446 43.1688C262.318 42.2893 259.549 42.6102 256.519 44.3572C249.827 48.2198 244.408 57.5731 244.408 65.2506C244.408 75.6973 256.519 87.582 256.519 87.582L260.702 89.745L268.7 45.3674L264.446 43.1688Z" fill="#FFC536"/>
<path d="M260.702 46.5205C267.393 42.658 272.812 45.748 272.812 53.4255C272.812 63.8722 260.702 89.7572 260.702 89.7572C260.702 89.7572 248.591 77.8724 248.591 67.4257C248.579 59.7363 254.011 50.383 260.702 46.5205Z" fill="#FFC536"/>
<path d="M253.678 64.478C253.678 68.9229 256.816 70.7176 260.702 68.4832C264.576 66.2489 267.726 60.8294 267.726 56.3727C267.726 51.9278 264.588 50.1332 260.702 52.3675C256.827 54.6019 253.678 60.0213 253.678 64.478Z" fill="white"/>
<path d="M248.948 67.8059C248.948 60.2115 254.308 50.9652 260.928 47.1383C266.692 43.8106 271.505 45.7121 272.646 51.2742C271.707 45.213 266.727 43.0381 260.702 46.5203C254.011 50.3828 248.591 59.7361 248.591 67.4136C248.591 77.8603 260.702 89.757 260.702 89.757C260.702 89.757 260.714 89.7332 260.726 89.6975C259.24 88.1882 248.948 77.385 248.948 67.8059Z" fill="#FFEF86"/>
<path d="M288.988 53.4375L288.964 53.4493C288.5 53.1878 287.93 53.1522 287.442 53.4375L282.819 56.1115C282.427 52.7125 280.953 50.1216 278.553 48.743C276.532 47.5664 274.084 47.4119 271.469 48.1963L272.052 41.8023L270.388 40.7564C270.269 40.6614 270.15 40.5782 270.008 40.5188L269.984 40.5069V40.5188C269.806 40.4474 269.604 40.3999 269.401 40.3999C268.486 40.3999 267.738 41.1486 267.738 42.0638V49.9077C260.654 54.2813 255.175 63.8723 255.152 72.0846L249.804 75.1746C249.067 75.6025 248.817 76.5414 249.245 77.2782C249.364 77.4803 249.518 77.6348 249.708 77.7655V77.7774L251.658 79.0015L255.698 76.1967C256.376 78.538 257.671 80.3564 259.537 81.426C260.749 82.1272 262.104 82.4718 263.554 82.4718C264.885 82.4718 266.288 82.151 267.738 81.5805V89.2343C267.738 89.8047 268.035 90.2801 268.474 90.5772V90.6129L270.424 91.837L270.542 90.4465C270.863 90.1375 271.065 89.7215 271.065 89.2462V84.4328L271.493 79.5244C277.436 75.2816 282.023 67.4258 282.807 60.188L286.836 57.3832L288.988 56.1472C289.261 55.9927 289.439 55.7431 289.57 55.4816L290.782 54.6378L288.988 53.4375ZM275.201 60.5088C274.464 60.9367 274.215 61.8756 274.643 62.6125C274.761 62.8145 274.928 62.9809 275.118 63.0997V63.1116L276.901 64.2526L277.958 62.553L277.887 62.5174L279.183 61.7686C279.135 61.9707 279.123 62.1608 279.076 62.3629C279.052 62.4461 279.028 62.5411 279.004 62.6243C278.838 63.2542 278.648 63.896 278.422 64.5259C278.398 64.6091 278.363 64.6923 278.339 64.7755C278.089 65.4648 277.804 66.1541 277.495 66.8315C277.459 66.9147 277.424 66.986 277.388 67.0692C276.722 68.4716 275.938 69.8265 275.059 71.0981C275.035 71.1338 275.011 71.1695 274.975 71.2051C274.048 72.5124 273.026 73.7365 271.921 74.8062C271.648 75.0795 271.362 75.3291 271.077 75.5787V75.3529L272.135 73.1542L270.293 71.9538L270.281 71.9776C270.031 71.8231 269.746 71.7043 269.413 71.7043C268.498 71.7043 267.749 72.453 267.749 73.3681V77.9081C266.216 78.7163 264.766 79.1322 263.495 79.1203C263.21 79.1203 262.936 79.0966 262.675 79.049C262.152 78.954 261.665 78.7876 261.213 78.5261C260.904 78.3478 260.642 78.122 260.381 77.8725C260.322 77.8249 260.274 77.7655 260.215 77.7061C259.965 77.4446 259.739 77.1475 259.549 76.8147V76.8028C259.347 76.4582 259.181 76.0778 259.038 75.6619C259.026 75.6143 259.002 75.5668 258.99 75.5193C258.848 75.0914 258.729 74.6279 258.658 74.1288C258.634 73.9743 258.61 73.8079 258.598 73.6534L263.625 70.7535C263.649 70.7416 263.649 70.7297 263.673 70.7178L264.077 70.9318L265.539 69.3392L263.519 68.0081L263.483 68.0438C263.043 67.8536 262.532 67.8298 262.092 68.0913L258.658 70.0761C258.705 69.672 258.765 69.2679 258.848 68.852C258.848 68.8282 258.86 68.8044 258.86 68.7806C259.299 66.475 260.167 64.1218 261.344 61.8994C261.795 61.0318 262.306 60.1998 262.841 59.3917C264.255 57.2881 265.931 55.4103 267.773 53.9485V57.8942C267.773 58.536 268.154 59.0827 268.688 59.356L268.677 59.3679L270.388 60.4613L271.517 58.9044L270.923 58.5835C271.03 58.3696 271.089 58.1319 271.089 57.8823V51.8568C271.113 51.8449 271.125 51.833 271.149 51.833C271.957 51.4646 272.741 51.2269 273.49 51.0962C273.858 51.0367 274.215 51.0011 274.559 51.0011C275.13 51.0011 275.641 51.1199 276.14 51.2863C276.413 51.3814 276.687 51.4646 276.925 51.6072C278.672 52.6174 279.634 54.8636 279.646 57.9536L275.201 60.5088Z" fill="#FF4C4A"/>
<path d="M265.206 83.5178C263.756 83.5178 262.401 83.1731 261.189 82.4719C258.361 80.8437 256.804 77.5398 256.804 73.19C256.804 64.7756 262.544 54.8756 269.865 50.6565C273.68 48.4579 277.352 48.1369 280.205 49.7889C283.033 51.4171 284.59 54.7211 284.59 59.0709C284.59 67.4853 278.85 77.3853 271.529 81.6043C269.33 82.876 267.179 83.5178 265.206 83.5178ZM276.188 52.0708C274.797 52.0708 273.217 52.5581 271.541 53.5326C265.254 57.1575 260.143 65.9878 260.143 73.19C260.143 76.3038 261.106 78.5737 262.865 79.5958C264.636 80.6179 267.132 80.3089 269.877 78.7283C276.164 75.1034 281.274 66.2849 281.274 59.0709C281.274 55.9571 280.312 53.6871 278.553 52.665C277.863 52.2729 277.067 52.0708 276.188 52.0708Z" fill="#FF7270"/>
<path d="M271.054 60.6158C270.138 60.6158 269.39 59.8671 269.39 58.952V43.1097C269.39 42.1945 270.138 41.4458 271.054 41.4458C271.969 41.4458 272.717 42.1945 272.717 43.1097V58.952C272.717 59.8671 271.969 60.6158 271.054 60.6158Z" fill="#FF7270"/>
<path d="M271.054 91.9438C270.138 91.9438 269.39 91.195 269.39 90.2799V74.4375C269.39 73.5224 270.138 72.7737 271.054 72.7737C271.969 72.7737 272.717 73.5224 272.717 74.4375V90.2799C272.717 91.195 271.969 91.9438 271.054 91.9438Z" fill="#FF7270"/>
<path d="M276.295 63.67C275.867 62.9331 276.117 61.9824 276.853 61.5664L289.107 54.495C289.843 54.0671 290.782 54.3167 291.21 55.0536C291.638 55.7904 291.388 56.7412 290.64 57.1572L278.387 64.2286C277.662 64.6683 276.711 64.4068 276.295 63.67Z" fill="#FF7270"/>
<path d="M250.897 78.336C250.469 77.5992 250.719 76.6484 251.468 76.2324L263.721 69.161C264.458 68.7331 265.397 68.9827 265.824 69.7196C266.252 70.4564 266.003 71.4072 265.266 71.8232L253.013 78.8946C252.264 79.3224 251.325 79.0729 250.897 78.336Z" fill="#FF7270"/>
<path d="M89.7873 83.8978C87.0657 85.4665 82.6446 85.4665 79.8992 83.8859C77.1658 82.3052 77.142 79.75 79.8636 78.1812C82.5852 76.6124 87.0063 76.6124 89.7517 78.205C92.4852 79.7619 92.5089 82.3171 89.7873 83.8978Z" fill="#BDC2FF"/>
<path d="M96.9799 182.942C97.0213 175.301 86.3224 169.05 73.0833 168.978C59.8442 168.906 49.0783 175.042 49.0369 182.682C48.9955 190.322 59.6943 196.574 72.9334 196.646C86.1725 196.717 96.9385 190.582 96.9799 182.942Z" fill="#BECDD4"/>
<path d="M75.3711 193.475C89.8639 193.475 101.613 181.726 101.613 167.233C101.613 152.741 89.8639 140.992 75.3711 140.992C60.8784 140.992 49.1296 152.741 49.1296 167.233C49.1296 181.726 60.8784 193.475 75.3711 193.475Z" fill="url(#paint17_linear_673_2254)"/>
<path d="M75.371 191.229C88.6232 191.229 99.3663 180.486 99.3663 167.233C99.3663 153.981 88.6232 143.238 75.371 143.238C62.1188 143.238 51.3757 153.981 51.3757 167.233C51.3757 180.486 62.1188 191.229 75.371 191.229Z" fill="url(#paint18_linear_673_2254)"/>
<path d="M68.5968 144.212C70.5459 143.642 72.602 143.309 74.7294 143.25L74.8125 143.368L74.1232 143.903V144.462L73.9568 144.949L73.2675 145.365L72.6495 145.912L72.2336 146.874L71.6156 147.778L71.2234 148.99L71.0926 149.239L70.6885 149.263L70.5578 149.132L70.439 148.883L70.1537 148.835L69.9398 148.966L69.5476 149.061L69.3693 148.621L69.2386 148.277L69.2861 147.98V147.623L69.0722 147.183L68.9415 146.744V146.221L68.7038 145.805C68.7038 145.805 68.6563 146.221 68.6563 145.163C68.6563 144.153 67.9788 145.163 68.5968 144.212ZM98.8435 168.409L98.2492 168.79L97.3935 168.469L97.5243 167.97L97.5956 167.233L97.3817 167.102L97.2153 167.364C97.2153 167.364 96.8944 168.005 96.8944 167.506C96.8944 167.007 96.8944 167.007 96.8944 167.007L97.037 166.698L96.7636 166.187L96.4309 165.51L96.419 164.82L96.5854 164.761L96.6686 164.44L96.9063 164.761L97.1202 164.499L97.5599 165.926L97.9521 166.365L98.2611 166.758L98.5345 167.066L98.9029 167.399L99.1525 167.066L99.3783 167.34C99.3783 167.304 99.3783 167.257 99.3783 167.221C99.3783 158.616 94.8383 151.058 88.0284 146.827L87.6718 147.065L87.446 147.552L87.1727 147.682L86.8637 147.944L86.519 147.623C86.519 147.623 86.8637 147.409 86.4358 147.469C86.008 147.528 86.008 147.528 86.008 147.528L85.0572 147.849L84.9621 147.789L84.9502 147.255L84.5818 147.207L84.1658 147.48L83.94 147.564L84.0232 147.373L84.1302 147.29V147.124H83.9638L83.8331 147.16L83.7736 147.076L83.8331 146.969L83.7261 146.791L83.7023 146.601L83.8093 146.458L84.0113 146.233L84.0708 146.066C84.0708 146.066 83.9994 146.078 84.0232 145.912C84.047 145.745 84.047 145.745 84.047 145.745L84.1658 145.674L84.249 145.496V145.329L84.1777 145.27L84.047 145.294L83.9519 145.46L83.7974 145.519L83.6904 145.484L83.6429 145.424L83.5122 145.472L83.4765 145.543L83.3458 145.603L83.2388 145.662C83.2388 145.662 83.2626 145.71 83.2388 145.864C83.2151 146.019 83.215 146.019 83.215 146.019L83.1081 146.244L83.1319 146.47L83.1913 146.66L83.1081 146.744L83.0487 146.934C83.0487 146.934 83.12 147.053 83.1913 146.981C83.2626 146.91 83.2507 146.91 83.2507 146.91L83.3458 146.958L83.2626 147.088H83.1913L83.1556 147.219L83.2982 147.243L83.2388 147.362C83.2388 147.362 83.2032 147.243 83.12 147.385C83.0249 147.528 83.0249 147.528 83.0249 147.528L82.9298 147.492L82.9061 147.421L82.8704 147.314C82.8704 147.314 82.8466 147.267 82.7634 147.326C82.6802 147.385 82.6802 147.385 82.6802 147.385L82.5852 147.373L82.502 147.397L82.4663 147.48L82.3356 147.516L82.1811 147.48C82.1811 147.48 82.2524 147.492 82.1811 147.421C82.1217 147.35 82.1217 147.35 82.1217 147.35L81.9315 147.385L81.8483 147.492L81.8127 147.54L81.6463 147.611L81.6344 147.659V147.754L81.575 147.908L81.4086 148.051L81.3016 148.194L81.2303 148.265L81.0996 148.301L80.9926 148.289L80.7549 148.431L80.6242 148.55L80.4934 148.526L80.3508 148.491L80.232 148.633L80.3152 148.716L80.2558 148.859L80.1844 148.942L79.9705 149.085L79.8754 149.061H79.7209L79.6496 149.085L79.5427 149.18L79.5546 149.275V149.358H79.4238L79.3525 149.299L79.2574 149.251H79.1267L79.1029 149.192L79.1148 149.168L79.1624 149.121L79.1505 149.049L79.0792 149.014L78.9841 148.99L78.9247 148.93L78.9128 148.859L78.8652 148.8V148.859L78.8415 148.942L78.8058 149.025L78.8415 149.144L78.8534 149.228L78.9128 149.263L78.9009 149.323L78.8771 149.406V149.465L78.8415 149.513L78.8296 149.56L78.7821 149.608L78.7107 149.572L78.5562 149.513L78.4493 149.548L78.4136 149.56L78.4017 149.489L78.4136 149.441L78.3067 149.382L78.1997 149.37L78.1284 149.382L78.0571 149.418H77.9263L77.8075 149.394H77.7362L77.6292 149.43L77.5936 149.477L77.6292 149.572C77.6292 149.572 77.6173 149.584 77.6649 149.62C77.7243 149.655 77.7243 149.655 77.7243 149.655L77.653 149.703L77.6411 149.774L77.6768 149.798L77.6292 149.917L77.7005 149.952H77.7956L77.8669 149.929L77.9026 149.952L77.9739 149.964L78.0808 150.048L78.1165 150.107L78.1759 150.119C78.1759 150.119 78.1759 150.119 78.1878 150.178C78.2116 150.25 78.2116 150.25 78.2116 150.25L78.2829 150.261L78.378 150.226L78.3661 150.285L78.3185 150.333V150.404L78.3661 150.452L78.4612 150.487L78.4849 150.547L78.4374 150.594L78.3899 150.677L78.4017 150.773L78.4493 150.832L78.4968 150.879V150.951L78.5681 150.963L78.6513 151.022L78.687 151.105L78.6394 151.165L78.5681 151.284L78.6157 151.379L78.5919 151.45L78.5325 151.581L78.5087 151.735L78.4255 151.806L78.3661 152.009L78.3423 152.175L78.2116 152.365L78.1522 152.52L78.1046 152.591L77.9977 152.603L77.9501 152.579C77.9501 152.579 77.9263 152.567 77.8669 152.591C77.8075 152.603 77.8075 152.603 77.8075 152.603L77.7243 152.555L77.6768 152.46L77.6292 152.448L77.5817 152.496L77.5223 152.508L77.3915 152.401H77.2608L77.1657 152.377H76.9993L76.8805 152.341L76.8211 152.294L76.7616 152.246L76.6428 152.234H76.5358L76.4051 152.211L76.3219 152.139L76.2149 152.08L76.1199 152.092H76.001L75.9891 152.032C75.9891 152.032 76.0961 151.997 75.9535 151.949C75.8109 151.902 75.8109 151.902 75.8109 151.902H75.7039L75.6326 151.949L75.5732 152.009L75.5851 152.068C75.5851 152.068 75.5851 152.08 75.5494 152.092C75.5137 152.092 75.5138 152.092 75.5138 152.092L75.4068 152.068L75.2404 152.139L75.1691 152.234L75.1929 152.365L75.2642 152.413L75.276 152.496L75.3117 152.52L75.2523 152.567L75.1572 152.781L75.1097 152.971V153.09V153.256L75.0859 153.375L75.0265 153.637L74.9314 153.898L74.8244 153.981L74.658 154.219L74.5035 154.409L74.3847 154.671L74.456 154.932L74.5867 154.956L74.6699 155.003V155.075L74.5867 155.17L74.4798 155.313V155.479L74.4085 155.586V155.693L74.3015 155.847L74.349 155.895L74.4322 155.835L74.5986 155.776L74.658 155.812L74.7056 155.859L74.8957 155.895L74.9552 155.8L75.0502 155.764L75.074 155.8L75.0859 155.871L75.2998 155.978L75.3117 156.061L75.2998 156.168L75.3236 156.287V156.382L75.3711 156.465L75.4068 156.501L75.4187 156.608L75.49 156.667L75.5969 156.679L75.692 156.632L75.799 156.608L75.8822 156.513L75.9891 156.418L76.0961 156.442L76.2149 156.465L76.4051 156.442L76.6666 156.453L76.8092 156.548L76.9399 156.525H77.035H77.0944L77.142 156.442L77.1776 156.394L77.2251 156.24L77.4747 156.133L77.5579 156.168L77.6055 156.204L77.6886 156.216L77.7005 156.156C77.7005 156.156 77.7005 156.168 77.7005 156.085C77.7005 156.014 77.7005 156.014 77.7005 156.014L77.7124 155.942L77.7956 155.812L77.855 155.728L77.9263 155.693L77.9858 155.669L78.1046 155.657L78.1165 155.562L78.2354 155.515V155.443L78.1403 155.348L78.0571 155.289V155.015L78.1403 154.908L78.2829 154.778L78.6513 154.433L78.6751 154.29L78.7107 154.207L78.8058 154.183H78.996C78.996 154.183 79.0316 154.231 79.1148 154.148C79.198 154.065 79.198 154.065 79.198 154.065L79.3644 154.053L79.4714 154.005L79.5308 153.922L79.7209 153.863L79.7804 153.791V153.637L79.816 153.494L79.7923 153.387L79.8636 153.221L79.9349 153.138L80.0181 153.043L80.1131 153.031L80.1488 152.983C80.1488 152.983 80.1369 152.959 80.1963 152.983C80.2558 153.007 80.2558 153.007 80.2558 153.007L80.3508 153.066L80.5172 153.138L80.648 153.149L80.7549 153.233L80.9094 153.316L81.0283 153.363L81.2303 153.304L81.2778 153.221L81.361 153.233L81.4086 153.28C81.4086 153.28 81.4205 153.34 81.4561 153.328C81.5037 153.316 81.5037 153.316 81.5037 153.316L81.575 153.292L81.6463 153.161L81.7057 153.078L81.8008 152.971L81.8483 152.9L81.9672 152.876L81.9909 152.864L82.0504 152.805L82.2286 152.781L82.2762 152.805L82.3237 152.888L82.3831 152.947C82.3831 152.947 82.2762 152.995 82.3712 153.066C82.4782 153.138 82.4782 153.138 82.4782 153.138L82.5495 153.126L82.6089 153.209L82.5614 153.375L82.6089 153.518L82.6802 153.577L82.6446 153.684L82.597 153.744L82.5376 153.756H82.4663L82.4188 153.839L82.4425 153.886L82.5139 153.934L82.6089 153.97L82.6802 153.827L82.7159 153.863L82.7515 153.946L82.8229 154.029L82.7991 154.172L82.8229 154.255C82.8229 154.255 82.8942 154.231 82.9655 154.255C83.0368 154.279 83.0368 154.279 83.0368 154.279L82.9892 154.362L83.0368 154.433L83.0962 154.504L83.1437 154.492V154.671L83.2507 154.778L83.4052 154.825V154.908L83.5241 154.944L83.6073 155.039L83.7023 155.229L83.7855 155.301L83.8925 155.348L83.8093 155.467L83.8806 155.479L83.9876 155.491L84.0589 155.55L84.047 155.693L84.1539 155.776L84.1421 155.871L84.2728 155.919L84.3441 155.942L84.3798 156.109L84.4035 156.323L84.3441 156.43L84.4035 156.56L84.3916 156.751L84.3322 156.774L84.2847 156.941L84.2134 156.964H84.0826L84.0113 157.024L83.8925 157.012L83.7974 156.964L83.6548 157.048C83.6548 157.048 83.6786 157.083 83.5003 157.024C83.322 156.976 83.322 156.976 83.322 156.976C83.322 156.976 83.4171 156.905 83.2626 156.846C83.1081 156.798 83.1081 156.798 83.1081 156.798L83.0606 156.846C83.0606 156.846 83.1081 156.715 82.9774 156.81C82.8585 156.905 82.8585 156.905 82.8585 156.905L82.8704 157.083L82.8823 157.238L83.0724 157.297L83.1913 157.44L83.322 157.547L83.4409 157.666L83.5122 157.725L83.5835 157.891L83.7023 157.951L83.8331 157.963L83.8806 157.82L83.9876 157.666L83.9281 157.535L83.94 157.38L84.0232 157.25L84.0945 157.167L84.1539 157.238V157.297L84.2371 157.345L84.3203 157.392L84.3441 157.297L84.356 157.202L84.4511 157.143L84.4986 157.19L84.558 157.167L84.5699 157.095C84.5699 157.095 84.463 157.095 84.558 156.953C84.665 156.822 84.665 156.822 84.665 156.822L84.7363 156.81L84.7601 156.858L84.7957 156.881L84.867 156.81L84.8551 156.703L84.9502 156.537L84.9383 156.442L84.8314 156.418L84.7125 156.335L84.7006 156.228L84.6888 156.156L84.8789 155.907L84.9146 155.859H84.9978L84.974 155.931L84.9978 155.99L85.1285 156.026V156.061L85.1879 156.085L85.2355 156.049L85.2592 156.204L85.283 156.358L85.39 156.418L85.4732 156.311L85.485 156.144L85.4494 155.966L85.3068 155.693L85.1047 155.562L85.0572 155.431L84.9027 155.372L84.7363 155.313L84.6531 155.17V155.099L84.7838 155.122L84.7957 155.051L84.8195 154.92L84.7244 154.849L84.5343 154.837L84.463 154.813L84.3679 154.825L84.3085 154.766L84.0351 154.29L84.0232 154.076L83.9638 153.922L83.9876 153.791L83.8568 153.565L83.6904 153.494L83.6073 153.34L83.5478 153.256L83.5716 153.09L83.5597 152.959H83.6904L83.7261 152.924L83.7142 152.769L83.6548 152.757V152.674L83.6904 152.615H83.7855L83.8449 152.627L83.9281 152.508L83.9876 152.52L84.0589 152.496L84.0945 152.531L84.0826 152.627C84.0826 152.627 83.9281 152.674 84.047 152.722C84.1539 152.769 84.1539 152.769 84.1539 152.769L84.1896 152.817L84.1777 152.947L84.1064 153.019L84.1896 153.138L84.249 153.149L84.2966 153.054L84.3322 153.138L84.3203 153.209L84.3441 153.268L84.4273 153.28H84.4748L84.4986 153.102L84.6056 153.28L84.665 153.399L84.5937 153.47L84.5343 153.542L84.5224 153.625L84.558 153.684L84.7482 153.767L84.8433 153.898L84.8195 153.981L84.8551 154.076L84.8908 154.136L84.9027 154.219L85.0096 154.231C85.0096 154.231 85.0928 154.148 85.0691 154.255C85.0453 154.374 85.0691 154.326 85.0453 154.374C85.0215 154.409 85.0215 154.409 85.0215 154.409L85.0691 154.457L85.2355 154.504L85.3068 154.457L85.4732 154.504C85.4732 154.504 85.5445 154.504 85.5801 154.611C85.6158 154.718 85.6158 154.718 85.6158 154.718L85.794 154.908C85.794 154.908 85.901 154.837 85.9129 155.003C85.9248 155.17 85.9248 155.17 85.9248 155.17L85.9367 155.265L86.0436 155.313H86.0912C86.0912 155.313 86.0198 155.467 85.9723 155.491C85.9248 155.515 85.9248 155.515 85.9248 155.515L85.9485 155.621L85.9248 155.871L85.8653 155.99L85.8178 156.168L85.901 156.216L85.9248 156.299H86.0317L86.0555 156.406V156.453L85.9604 156.465L85.9485 156.418L85.8891 156.501C85.8891 156.501 85.8416 156.489 85.8772 156.584C85.9129 156.679 85.901 156.655 85.901 156.655L85.9961 156.751L86.1506 156.786L86.1862 156.881L86.317 157.012V157.071C86.317 157.071 86.1862 156.964 86.2575 157.19C86.3289 157.404 86.3289 157.392 86.3289 157.392L86.3526 157.487L86.5071 157.535L86.5309 157.464L86.7092 157.535L86.8755 157.618L86.9825 157.606L87.03 157.678L87.1489 157.689L87.2083 157.654V157.82L87.1964 157.915L87.3153 157.987H87.3985L87.4936 158.153L87.6124 158.117L87.5054 157.939L87.4341 157.856V157.749L87.4698 157.725L87.5411 157.868L87.6956 157.939L87.7669 157.844L87.8026 157.808L87.7907 157.678L87.6124 157.654L87.5886 157.618L87.5649 157.464L87.4936 157.38L87.4222 157.285V157.202L87.3153 157.131L87.2083 156.751L87.1132 156.667L87.0657 156.513L87.03 156.346L87.0657 156.228H87.1132C87.1132 156.228 87.137 156.216 87.1489 156.263C87.1608 156.311 87.1608 156.311 87.1608 156.311L87.2677 156.43L87.3153 156.489H87.4579L87.5292 156.43L87.5768 156.382L87.6481 156.287L87.755 156.24L87.7788 156.133L87.8857 156.085H88.0284L88.0997 156.168L88.1829 156.216L88.2661 156.287L88.4324 156.24L88.4443 156.335C88.4443 156.335 88.2661 156.299 88.4206 156.406C88.5751 156.513 88.5751 156.513 88.5751 156.513H88.6701V156.548L88.6345 156.655L88.5988 156.703L88.5275 156.751L88.48 156.691L88.3849 156.715L88.3611 156.786V156.929L88.373 157.036L88.3493 157.119L88.2898 157.143L88.2423 157.155L88.1472 157.226L88.1948 157.285L88.2304 157.333L88.3374 157.38L88.4087 157.369L88.4443 157.392L88.5156 157.333L88.4681 157.214L88.5513 157.095L88.6107 157.083L88.6701 157.119L88.6226 157.25L88.5632 157.369L88.6345 157.452L88.5513 157.523L88.4681 157.559L88.3849 157.511L88.3136 157.547L88.2423 157.535L88.1948 157.487L88.1353 157.559L88.1235 157.654C88.1235 157.654 88.0759 157.773 88.1353 157.796C88.1948 157.808 88.1948 157.808 88.1948 157.808L88.2542 157.82L88.2898 157.725L88.3493 157.689L88.3849 157.773L88.3968 157.915C88.3968 157.915 88.4087 157.987 88.4562 157.975C88.5038 157.951 88.5038 157.951 88.5038 157.951H88.6107L88.7296 158.046L88.682 158.129L88.6226 158.165L88.4919 158.105L88.4206 158.141L88.3968 158.248V158.331L88.4562 158.379L88.5513 158.331L88.5751 158.367L88.5632 158.486L88.6583 158.521L88.587 158.569C88.587 158.569 88.6226 158.605 88.5751 158.652C88.5275 158.7 88.5275 158.7 88.5275 158.7L88.4443 158.723L88.4206 158.83L88.3493 158.937L88.4919 158.925L88.5513 158.83L88.5988 158.795L88.6583 158.676L88.8128 158.652C88.8128 158.652 89.0029 158.628 88.9316 158.688C88.8603 158.747 88.8603 158.747 88.8603 158.747L88.7771 158.759L88.7177 158.854L88.7652 158.914L88.896 158.89L88.8722 159.009C88.8722 159.009 88.8841 158.925 88.8009 159.044C88.7058 159.151 88.7058 159.139 88.7058 159.139L88.6939 159.223V159.294L88.7652 159.341L88.9316 159.258L88.9078 159.199L88.9673 159.092L88.9791 158.937L89.098 158.89V159.009L89.1931 159.08L89.2406 159.056L89.3238 158.997V159.116L89.2644 159.211L89.3119 159.341L89.4427 159.425L89.5615 159.472L89.6328 159.52L89.7398 159.508L89.8111 159.389L89.8824 159.282L89.8586 159.104L89.9656 159.009L90.0844 159.032L90.1557 159.127L90.4529 159.27V159.401L90.5598 159.579L90.8569 159.722L90.9758 159.662L91.0709 159.722L91.2254 159.781L91.2967 159.591L91.368 159.52L91.5106 159.401L91.5819 159.555L91.7126 159.603L91.8434 159.639L91.8909 159.543L91.986 159.437L92.0454 159.46L92.1405 159.496L92.1167 159.591L91.986 159.627L91.9503 159.757V159.852L91.8434 160.043L91.8077 160.197L91.9384 160.459L91.8077 160.566L91.8196 160.661L91.8671 160.768L91.7483 160.863L91.57 161.255L91.5225 161.481L91.4036 161.647L91.1065 162.491L90.9045 162.693H90.7381C90.7381 162.693 90.7619 162.598 90.4647 162.657C90.1676 162.717 90.1676 162.717 90.1676 162.717L89.9894 162.348L89.8111 162.289L89.6685 162.182L89.3951 162.206L89.2406 162.324L89.0148 162.408L88.8841 162.538L88.7177 162.527L88.6226 162.348L88.3968 162.313L87.8976 161.956L87.2321 161.825L86.9469 161.374L86.4002 161.172L86.103 160.672L85.592 160.791L85.1285 160.875L85.1404 161.409L85.081 161.909L84.7244 161.98L84.4511 161.647L84.2015 161.243L83.7023 161.207L83.3814 160.732L83.4409 160.328L83.0249 160.15L82.6089 160.09L81.8958 159.745L81.575 159.127L81.8602 158.616L82.0622 158.403L81.979 157.927L82.3118 157.333L82.0266 157.178L81.8364 157.297L81.7651 157.048C81.7651 157.048 81.9315 156.834 81.3729 157.012C80.8143 157.19 80.8143 157.19 80.8143 157.19L80.3627 157.012L79.7091 156.822L78.3899 156.893L77.451 157.155L76.9637 157.404L76.4051 157.25L76.0486 156.941L75.799 157.107L75.6088 156.869H75.3474L75.1453 157.273L74.8482 157.666L74.2183 157.998L73.5409 158.438L73.2438 159.246L73.327 159.745L72.8635 160.375L72.2217 160.696L71.4729 160.958L71.152 161.469L70.5697 161.742L70.3201 162.586L69.6902 163.109L69.298 163.929L68.8583 164.452L68.9177 164.868L69.2861 164.999L69.0603 165.426L68.9771 165.747L69.0247 166.342L68.7751 167.043L68.5731 167.459L68.5018 167.744L68.0739 168.314L68.2878 168.98L68.0739 169.467L67.9788 169.943L68.1928 170.347L68.4305 170.275L68.5493 170.751L68.8108 171.404L68.9653 171.476L68.8821 172.486L69.4169 173.401L69.9279 174.102L70.4033 174.982L70.9144 175.481L71.4492 175.35L71.6869 175.089L72.5901 175.148L72.9585 175.588L73.4101 175.719L73.6122 175.41L73.8142 175.54L74.3372 175.172L74.7888 175.208L75.8346 175.077L76.3457 175.231L76.4408 175.909L76.4051 176.432L76.7735 176.586L76.9518 176.491L77.6055 176.539L77.9977 176.895L78.0808 177.513L77.9382 178.405L77.7124 178.666L77.6768 179.094L77.3559 179.486L77.1895 180.282L77.9263 182.374L78.2354 182.992L77.855 183.349L78.2829 184.466L78.0452 185.06L78.3067 186.225L78.0333 187.08L77.6055 187.247L77.0944 187.71L76.9637 188.673L76.7022 189.529L76.5834 190.23L76.7616 190.884L76.8092 191.204C81.3729 190.931 85.5801 189.386 89.098 186.914L89.0861 186.165L89.3832 185.975L89.1574 185.464L89.7398 184.418L90.1676 183.563L90.5836 183.289L90.9164 183.004L91.1897 182.338L92.0098 181.804L92.8655 181.15L93.7093 180.484L94.3986 179.593L94.8145 179.023L95.3256 178.012L95.7534 177.335L95.9317 176.848L96.2288 176.669L96.3714 176.372L96.1456 176.253L96.2883 175.754L96.4071 175.671L96.0862 175.588L96.003 175.469L95.9079 175.719L95.7178 175.802L95.4444 175.861H95.2424L94.8502 175.742L94.3867 175.778L94.1134 176.123L93.7212 175.814L93.4478 176.028L93.02 175.909L93.0318 175.552L92.9011 175.362H92.6278L92.711 175.148L92.8892 175.089L93.0318 174.958L92.9724 174.792L93.0437 174.411L92.8179 174.304L92.604 174.114L92.6159 173.841L92.4376 173.532L92.3901 173.294L92.1524 173.08L91.8671 172.938L91.6413 172.545L91.6651 171.892L91.5344 171.678L91.6413 171.143L91.368 170.941L91.1422 170.988L90.7262 168.837L90.75 166.651L90.0725 165.189L89.7754 163.572L90.1082 163.406L90.8451 164.464L91.0827 165.022C91.0827 165.022 91.4036 165.735 91.57 166.936C91.7364 168.124 91.7364 168.124 91.7364 168.124L92.3188 169.859L93.3527 171.642L93.0081 173.045L93.3527 174.506L94.7195 174.34L96.2883 173.829L97.0132 173.46V172.902L98.0947 172.961L98.582 172.64L98.7603 172.438C99.1049 170.882 99.307 169.265 99.3308 167.613L98.8435 168.409ZM63.8429 146.185V146.268L64.2589 146.482L64.6392 146.565C64.6392 146.565 64.8056 146.839 65.0433 146.351C65.281 145.852 65.281 145.852 65.281 145.852L65.5662 145.579L65.9941 145.436L65.7326 146.256L65.9703 146.625L66.208 146.934L65.7088 147.433L65.9109 147.837L66.2674 147.92L66.3268 148.158L66.8379 148.324L66.9211 148.538L66.7904 148.812L66.826 149.025L67.2182 149.168L66.9092 149.691L67.0043 150.012C67.0043 150.012 66.5883 149.857 66.315 150.166C66.0297 150.475 66.0297 150.475 66.0297 150.475L65.7802 150.452L65.1265 150.82L64.9601 151.034L64.2233 150.998L64.1401 150.761L63.2962 150.677L62.8684 150.927L62.5713 151.177L61.7156 151.319L61.5135 151.7L61.2758 151.997L60.6935 152.436H61.2758L61.7988 151.997L62.1553 151.652L62.5 151.474L62.8209 151.391L63.0823 151.355L63.5696 151.367L63.8192 151.438L63.4983 151.902L63.0229 152.187L62.9872 152.543L63.3081 152.936L63.7598 153.161L63.8786 153.078L64.2589 152.829L64.4015 152.353H64.8413C64.8413 152.353 64.4015 152.662 64.5441 152.829C64.6868 152.995 64.6868 152.995 64.6868 152.995L64.556 153.363L64.1044 153.47L63.9737 153.72L63.3557 153.815L62.9635 153.756L62.7971 154.041L62.3455 154.35H61.9652L61.9889 154.053L62.5119 153.815L62.6188 153.53C62.6188 153.53 62.595 153.185 62.3455 153.447C62.0959 153.708 62.1197 153.637 62.1197 153.637L61.775 153.791L61.2402 153.958L60.9312 153.91C60.9312 153.91 60.8361 153.767 60.5271 154.231C60.23 154.694 60.23 154.694 60.23 154.694L60.2775 154.92L60.0161 154.98L60.23 155.253L60.539 155.146L60.5865 155.408L60.432 155.538L60.1706 155.61L60.0042 155.621L59.814 155.515L59.7308 155.479L59.2198 155.526L59.1009 155.764L59.3862 155.931L59.1366 156.073L58.78 156.097L58.7444 156.572L58.3284 156.774L58.2571 157.012L58.0907 156.739L57.9362 156.62L58.0075 156.893L58.1739 157.119L58.0313 157.357L57.8293 157.594L57.6272 157.856C57.6272 157.856 57.4846 157.927 57.6035 157.654C57.7223 157.38 57.8055 157.559 57.7223 157.38C57.6391 157.202 57.6391 157.202 57.6391 157.202C57.6391 157.202 57.7223 156.394 57.5678 157.178C57.4846 157.594 57.3895 157.582 57.342 157.559C57.3539 157.582 57.3776 157.618 57.4133 157.678C57.449 157.749 57.4727 157.808 57.4965 157.844C57.5559 157.844 57.6272 157.88 57.6391 158.105C57.6629 158.462 57.6629 158.462 57.6629 158.462L57.3776 158.605L57.3895 158.866L57.235 159.044L57.0805 158.973L57.0449 159.175L56.8785 159.353L56.7002 159.365L56.5338 159.52L56.4388 159.734L56.1892 159.769L56.0584 159.888L55.8564 160.221L55.3097 160.554C55.3097 160.554 55.1195 160.34 55.0126 160.839C54.9056 161.338 54.9056 161.302 54.9056 161.302L54.763 161.564L54.8462 161.956L54.9056 162.36L54.8105 162.574L54.965 162.74L54.9056 163.014L54.9413 163.418L55.0958 163.608L54.9413 163.929L54.7274 164.167L54.7155 164.428L54.5253 164.499L54.3589 164.357L54.252 164.024L54.0975 163.846V163.62L54.0856 163.418C54.0856 163.418 53.9192 163.275 53.9667 163.085C54.0024 162.895 54.0024 162.895 54.0024 162.895L54.145 162.491L54.1569 162.122L54.0024 162.099L53.7528 161.813L53.6577 161.635L53.5032 161.742L53.5151 161.861L53.5032 162.015L53.325 162.051L53.1942 161.802L53.1467 161.623L52.8852 161.528L52.8615 161.623L52.6475 161.564L52.493 161.671L52.3266 161.611L52.3979 161.362C52.3979 161.362 52.2197 161.243 52.2197 161.374C52.2197 161.504 52.2197 161.504 52.2197 161.504L52.1484 161.516C53.7053 154.885 58.0432 149.37 63.8429 146.185ZM65.792 189.243C59.4694 186.486 54.561 181.079 52.4693 174.423V174.376L52.5287 174.304L52.7307 174.221L52.7545 174.126L52.6713 174.043L52.6594 173.912L52.6713 173.888L52.7545 173.853L52.8258 173.793L52.802 173.639L52.8377 173.484L52.9565 173.413L53.0991 173.342L53.2061 173.27C53.2061 173.27 53.2061 173.27 53.1942 173.175C53.1823 173.08 53.2299 173.056 53.2299 173.056L53.4676 172.783L53.4081 172.747L53.3131 172.819C53.3131 172.819 53.3131 172.819 53.218 172.771C53.1942 172.759 53.1823 172.747 53.1823 172.747C53.1823 172.747 53.1942 172.736 53.1467 172.688C53.0516 172.581 53.1823 172.735 53.1586 172.593C53.1229 172.45 53.1705 172.462 53.1705 172.462L53.2655 172.51L53.3368 172.486L53.325 172.343L53.4438 172.272C53.4438 172.272 53.4438 172.272 53.4081 172.094C53.3725 171.915 53.3487 171.88 53.3487 171.88L53.3131 171.725L53.3606 171.654H53.4319V171.523L53.3368 171.428L53.325 171.309L53.3963 171.214L53.3844 170.988L53.2774 170.775L53.0278 170.466L53.0397 170.228V170.026L52.9446 169.978L52.8852 169.848L52.7545 169.812L52.6356 169.824L52.5287 170.168L52.4098 170.18L52.3266 170.192L52.2553 170.24L52.3385 170.335C52.3385 170.335 52.3385 170.335 52.3029 170.382C52.2672 170.43 52.4217 170.513 52.4217 170.513L52.4574 170.62L52.4217 170.691L52.3504 170.798L52.2791 170.822L52.0533 170.81C52.0533 170.81 52.0533 170.81 51.982 170.751C51.9107 170.691 52.0176 170.596 52.0176 170.596L51.8631 170.608V170.739L51.7681 170.775L51.6849 170.715V170.608L51.7086 170.537L51.7562 170.549L51.8037 170.442L51.8394 170.347L51.7443 170.382L51.6492 170.335L51.5898 170.228H51.5779C51.5541 169.99 51.5185 169.752 51.5066 169.515C51.5185 169.527 51.5422 169.55 51.5898 169.586C51.6849 169.669 51.5898 169.681 51.5898 169.681L51.6136 169.776C51.6136 169.776 51.6136 169.776 51.7205 169.764C51.8275 169.752 51.8275 169.752 51.8275 169.752L51.9226 169.788L51.9582 169.907H52.0889L52.2553 169.776L52.3029 169.681L52.4693 169.657L52.5406 169.61C52.5406 169.61 52.5406 169.61 52.5762 169.515C52.6119 169.42 52.6238 169.432 52.6238 169.432L52.7307 169.467L52.8733 169.479L52.8496 169.562L52.8852 169.598L53.0397 169.574L53.2655 169.645L53.3725 169.836L53.5508 170.073L53.6102 170.263C53.6102 170.263 53.6102 170.263 53.5745 170.406C53.5389 170.549 53.6696 170.477 53.6696 170.477L53.7647 170.394L53.729 170.263L53.6458 170.168L53.6696 170.085L53.6934 170.014L53.8598 169.943L53.9192 169.741L54.0975 169.634L54.2163 169.622L54.2044 169.539L54.1688 169.36L54.2282 168.944L54.3708 168.825L54.5015 168.695H54.5728L54.7036 168.778L54.7511 168.73L54.7036 168.528L54.8462 168.457L54.965 168.54L55.179 168.552L55.3097 168.398L55.381 168.279L55.5593 168.243L55.5831 168.124L55.6662 167.887L55.9158 167.946L56.0466 168.136L55.999 168.338L55.8802 168.493L55.69 168.505L55.7138 168.671L55.8207 168.742L55.8802 168.576L55.9752 168.73L56.0466 168.564L56.2486 168.54L56.3556 168.493L56.3674 168.398L56.2961 168.231V168.112C56.2961 168.112 56.2961 168.112 56.3912 167.982C56.4863 167.851 56.5101 168.005 56.5101 168.005C56.5101 168.005 56.5101 168.005 56.5814 168.172C56.6527 168.338 56.5101 168.255 56.5101 168.255L56.5457 168.386L56.8191 168.457L57.2113 168.612L57.1162 168.837L57.2113 168.992L57.6153 168.956L57.8174 168.885L58.2333 169.241H58.4473L58.6374 168.968L58.4116 168.683L58.6018 168.516L58.9108 168.469H59.1485L59.5526 168.683L59.1485 168.98L59.2911 169.17H59.5288L59.8378 169.134L60.0755 169.443L59.9448 169.622L59.7665 169.931L60.3251 170.204L60.7291 171.107L61.0857 171.286L61.775 171.618L62.2504 172.308L62.191 173.294L61.7988 174.578V175.291C61.7988 175.291 61.7988 174.578 62.2504 176.218L62.5237 176.634L63.2131 177.026L62.8803 177.537L62.6663 178.167L62.8803 178.797H63.5458L63.6528 179.427L63.7716 180.259L63.9499 180.556L64.4253 180.77L64.3302 181.815L64.663 183.491L64.1044 184.513L64.4134 184.62L64.9482 185.143L64.8056 185.773L64.1044 186.225L64.4134 186.617L65.1621 187.092L65.6732 187.603C65.6732 187.603 65.6732 187.603 65.7802 188.887C65.8039 189.018 65.8039 189.136 65.792 189.243Z" fill="url(#paint19_linear_673_2254)"/>
<path d="M90.6311 154.933C89.5258 156.371 86.5902 155.955 84.0707 154.006C81.5511 152.057 80.4221 149.323 81.5273 147.885C82.6326 146.447 85.5681 146.863 88.0877 148.812C90.5954 150.761 91.7363 153.495 90.6311 154.933Z" fill="#7DD171"/>
<path d="M75.371 143.238C62.1195 143.238 51.3757 153.982 51.3757 167.233C51.3757 180.485 62.1195 191.229 75.371 191.229C88.6225 191.229 99.3663 180.485 99.3663 167.233C99.3782 153.982 88.6344 143.238 75.371 143.238ZM61.9531 180.2C53.0634 171.405 52.4572 157.595 60.5983 149.359C68.7512 141.123 82.5613 141.562 91.451 150.357C100.341 159.152 100.959 172.962 92.8059 181.198C84.6649 189.434 70.8429 188.982 61.9531 180.2Z" fill="#D1E89B"/>
<path d="M99.5803 159.128C101.91 159.639 104.215 160.281 106.402 161.6C107.484 162.265 108.589 163.109 109.385 164.44C110.181 165.771 110.348 167.661 109.872 169.159C108.874 172.142 106.949 174.067 105.107 175.814C104.168 176.682 103.181 177.49 102.195 178.239C101.696 178.619 101.197 178.999 100.697 179.344L99.9368 179.879L99.5565 180.14C99.4258 180.235 99.2475 180.211 99.4377 180.913L95.5632 173.283C96.003 173.853 96.0743 173.699 96.205 173.651L96.5972 173.508L97.3697 173.223C97.8926 173.045 98.3918 172.831 98.891 172.617C99.913 172.213 100.888 171.761 101.815 171.274C103.657 170.311 105.463 169.123 106.283 167.78C106.675 167.114 106.806 166.508 106.628 165.736C106.414 164.963 105.82 164.131 105.059 163.406C103.502 161.98 101.446 160.816 99.3545 159.996L99.5803 159.128Z" fill="#FFC536"/>
<path d="M92.0811 187.437L100.935 182.327V172.177L92.0811 177.288V187.437Z" fill="#C99A6B"/>
<path d="M100.935 172.177L92.0811 177.288L96.8587 174.733L100.935 172.177Z" fill="#87623F"/>
<path d="M92.081 187.437L83.2388 182.327V172.177L92.081 177.288V187.437Z" fill="#AE835B"/>
<path d="M92.081 177.288L83.2388 172.178L92.081 167.067L100.935 172.178L92.081 177.288Z" fill="#E8B687"/>
<path d="M96.0742 178.999L97.4885 178.179V174.162L96.0742 174.982V178.999Z" fill="#D9AF84"/>
<path d="M96.0743 174.982L87.2202 169.872L88.6464 169.052L97.4886 174.162L96.0743 174.982Z" fill="#EBCBAB"/>
<path d="M83.2388 172.177L92.081 177.288L87.3152 174.733L83.2388 172.177Z" fill="#87623F"/>
<path d="M88.2422 179.082L86.8279 178.262V174.245L88.2422 175.065V179.082Z" fill="#9C754E"/>
<path d="M88.2422 175.065L97.0963 169.967L95.6701 169.147L86.8279 174.245L88.2422 175.065Z" fill="#54493E"/>
<path d="M87.5885 174.685L96.4307 169.587L96.3357 169.527L87.4934 174.638L87.5885 174.685Z" fill="#D1A986"/>
<path d="M88.2422 175.065V175.232L87.3746 174.768L86.8279 174.423V174.245L88.2422 175.065Z" fill="#AE835B"/>
<path d="M96.8586 174.733L96.0742 175.149V174.982L97.4885 174.162V174.329L96.8586 174.733Z" fill="#AE835B"/>
<path d="M88.1828 180.901C88.5869 182.66 87.3866 184.383 85.592 184.632C81.0995 185.262 76.6784 185.559 72.1741 185.619C66.6002 185.654 60.9668 185.262 55.4642 183.991C52.7188 183.349 50.0091 182.457 47.4301 181.221C46.1347 180.627 44.8986 179.878 43.7102 179.082C42.5217 178.25 41.2976 177.264 40.4894 175.814C40.0853 175.089 39.8476 174.245 39.812 173.389C39.7644 172.522 40.0021 171.702 40.323 170.989C40.9767 169.539 41.9988 168.469 43.0565 167.518C45.2195 165.652 47.6202 164.286 50.1517 163.145L50.532 163.965C48.2026 165.248 45.9445 166.793 44.1261 168.659C43.2348 169.586 42.4385 170.62 42.0701 171.714C41.666 172.807 41.8086 173.829 42.4028 174.72C43.6507 176.491 46.2297 177.668 48.5829 178.642C50.9955 179.581 53.5507 180.211 56.1416 180.615C61.3352 181.4 66.6715 181.376 71.9483 180.924C76.4051 180.52 80.945 179.831 85.2711 178.844C86.5427 178.559 87.8025 179.32 88.0996 180.592L88.1828 180.901Z" fill="#FFC536"/>
<defs>
<linearGradient id="paint0_linear_673_2254" x1="252.474" y1="134.008" x2="55.2056" y2="134.008" gradientUnits="userSpaceOnUse">
<stop stop-color="#C4C8D8"/>
<stop offset="0.0225" stop-color="#C4C8D8"/>
<stop offset="0.2827" stop-color="#C4C8D8"/>
<stop offset="0.3039" stop-color="#C0C5D6"/>
<stop offset="0.3229" stop-color="#B6BACE"/>
<stop offset="0.3409" stop-color="#A3A9C2"/>
<stop offset="0.3436" stop-color="#A0A6C0"/>
<stop offset="0.9862" stop-color="#A0A6C0"/>
<stop offset="0.9908" stop-color="#B4B9CD"/>
<stop offset="0.9954" stop-color="#C0C4D5"/>
<stop offset="1" stop-color="#C4C8D8"/>
</linearGradient>
<linearGradient id="paint1_linear_673_2254" x1="76.4704" y1="72.7713" x2="225.204" y2="221.505" gradientUnits="userSpaceOnUse">
<stop offset="0.1693" stop-color="#CACEFF"/>
<stop offset="0.5175" stop-color="#CCD6FD"/>
<stop offset="1" stop-color="#CEDDFB"/>
</linearGradient>
<linearGradient id="paint2_linear_673_2254" x1="102.488" y1="46.7538" x2="251.222" y2="195.488" gradientUnits="userSpaceOnUse">
<stop offset="0.1693" stop-color="#CACEFF"/>
<stop offset="0.5175" stop-color="#CCD6FD"/>
<stop offset="1" stop-color="#CEDDFB"/>
</linearGradient>
<linearGradient id="paint3_linear_673_2254" x1="127.663" y1="21.5789" x2="276.397" y2="170.314" gradientUnits="userSpaceOnUse">
<stop offset="0.1693" stop-color="#CACEFF"/>
<stop offset="0.5175" stop-color="#CCD6FD"/>
<stop offset="1" stop-color="#CEDDFB"/>
</linearGradient>
<linearGradient id="paint4_linear_673_2254" x1="145.847" y1="3.39445" x2="294.582" y2="152.129" gradientUnits="userSpaceOnUse">
<stop offset="0.1693" stop-color="#CACEFF"/>
<stop offset="0.5175" stop-color="#CCD6FD"/>
<stop offset="1" stop-color="#CEDDFB"/>
</linearGradient>
<linearGradient id="paint5_linear_673_2254" x1="154.133" y1="-4.89147" x2="302.868" y2="143.843" gradientUnits="userSpaceOnUse">
<stop offset="0.1693" stop-color="#CACEFF"/>
<stop offset="0.5175" stop-color="#CCD6FD"/>
<stop offset="1" stop-color="#CEDDFB"/>
</linearGradient>
<linearGradient id="paint6_linear_673_2254" x1="151.304" y1="-2.06165" x2="300.038" y2="146.672" gradientUnits="userSpaceOnUse">
<stop offset="0.1693" stop-color="#CACEFF"/>
<stop offset="0.5175" stop-color="#CCD6FD"/>
<stop offset="1" stop-color="#CEDDFB"/>
</linearGradient>
<linearGradient id="paint7_linear_673_2254" x1="137.738" y1="11.5019" x2="286.473" y2="160.237" gradientUnits="userSpaceOnUse">
<stop offset="0.1693" stop-color="#CACEFF"/>
<stop offset="0.5175" stop-color="#CCD6FD"/>
<stop offset="1" stop-color="#CEDDFB"/>
</linearGradient>
<linearGradient id="paint8_linear_673_2254" x1="115.577" y1="33.6605" x2="264.314" y2="182.397" gradientUnits="userSpaceOnUse">
<stop offset="0.1693" stop-color="#CACEFF"/>
<stop offset="0.5175" stop-color="#CCD6FD"/>
<stop offset="1" stop-color="#CEDDFB"/>
</linearGradient>
<linearGradient id="paint9_linear_673_2254" x1="88.2479" y1="60.9931" x2="236.983" y2="209.728" gradientUnits="userSpaceOnUse">
<stop offset="0.1693" stop-color="#CACEFF"/>
<stop offset="0.5175" stop-color="#CCD6FD"/>
<stop offset="1" stop-color="#CEDDFB"/>
</linearGradient>
<linearGradient id="paint10_linear_673_2254" x1="60.0277" y1="89.2136" x2="208.762" y2="237.948" gradientUnits="userSpaceOnUse">
<stop offset="0.1693" stop-color="#CACEFF"/>
<stop offset="0.5175" stop-color="#CCD6FD"/>
<stop offset="1" stop-color="#CEDDFB"/>
</linearGradient>
<linearGradient id="paint11_linear_673_2254" x1="35.855" y1="113.387" x2="184.59" y2="262.121" gradientUnits="userSpaceOnUse">
<stop offset="0.1693" stop-color="#CACEFF"/>
<stop offset="0.5175" stop-color="#CCD6FD"/>
<stop offset="1" stop-color="#CEDDFB"/>
</linearGradient>
<linearGradient id="paint12_linear_673_2254" x1="19.329" y1="129.912" x2="168.064" y2="278.647" gradientUnits="userSpaceOnUse">
<stop offset="0.1693" stop-color="#CACEFF"/>
<stop offset="0.5175" stop-color="#CCD6FD"/>
<stop offset="1" stop-color="#CEDDFB"/>
</linearGradient>
<linearGradient id="paint13_linear_673_2254" x1="12.8679" y1="136.373" x2="161.603" y2="285.108" gradientUnits="userSpaceOnUse">
<stop offset="0.1693" stop-color="#CACEFF"/>
<stop offset="0.5175" stop-color="#CCD6FD"/>
<stop offset="1" stop-color="#CEDDFB"/>
</linearGradient>
<linearGradient id="paint14_linear_673_2254" x1="17.9348" y1="131.306" x2="166.67" y2="280.041" gradientUnits="userSpaceOnUse">
<stop offset="0.1693" stop-color="#CACEFF"/>
<stop offset="0.5175" stop-color="#CCD6FD"/>
<stop offset="1" stop-color="#CEDDFB"/>
</linearGradient>
<linearGradient id="paint15_linear_673_2254" x1="33.2746" y1="115.967" x2="182.007" y2="264.7" gradientUnits="userSpaceOnUse">
<stop offset="0.1693" stop-color="#CACEFF"/>
<stop offset="0.5175" stop-color="#CCD6FD"/>
<stop offset="1" stop-color="#CEDDFB"/>
</linearGradient>
<linearGradient id="paint16_linear_673_2254" x1="54.4061" y1="94.8356" x2="203.139" y2="243.569" gradientUnits="userSpaceOnUse">
<stop offset="0.1693" stop-color="#CACEFF"/>
<stop offset="0.5175" stop-color="#CCD6FD"/>
<stop offset="1" stop-color="#CEDDFB"/>
</linearGradient>
<linearGradient id="paint17_linear_673_2254" x1="55.8062" y1="183.824" x2="94.2037" y2="151.272" gradientUnits="userSpaceOnUse">
<stop offset="0.0859" stop-color="#379ED6"/>
<stop offset="0.3014" stop-color="#58AEE5"/>
<stop offset="0.5438" stop-color="#76BDF3"/>
<stop offset="0.7514" stop-color="#88C6FC"/>
<stop offset="0.8984" stop-color="#8FC9FF"/>
</linearGradient>
<linearGradient id="paint18_linear_673_2254" x1="57.477" y1="182.408" x2="92.596" y2="152.634" gradientUnits="userSpaceOnUse">
<stop offset="0.0859" stop-color="#7282B5"/>
<stop offset="0.2291" stop-color="#7489C8"/>
<stop offset="0.501" stop-color="#7695E6"/>
<stop offset="0.7337" stop-color="#779CF8"/>
<stop offset="0.8984" stop-color="#789EFF"/>
</linearGradient>
<linearGradient id="paint19_linear_673_2254" x1="59.7608" y1="183.9" x2="92.5936" y2="147.956" gradientUnits="userSpaceOnUse">
<stop offset="0.0859" stop-color="#7CAB71"/>
<stop offset="0.2291" stop-color="#86BE78"/>
<stop offset="0.501" stop-color="#95DC84"/>
<stop offset="0.7337" stop-color="#9FEE8B"/>
<stop offset="0.8984" stop-color="#A2F58E"/>
</linearGradient>
</defs>
</svg>
