<svg width="160" height="48" viewBox="0 0 160 48" fill="none" xmlns="http://www.w3.org/2000/svg">
<g clip-path="url(#clip0_6811_7049)">
<path d="M153.852 47.8828H6.03193C2.77989 47.8828 0.119141 45.1962 0.119141 41.9127V6.09177C0.119141 2.80818 2.77989 0.121617 6.03193 0.121617H153.852C157.104 0.121617 159.764 2.80818 159.764 6.09177V41.9127C159.764 45.1962 157.104 47.8828 153.852 47.8828Z" fill="#202020"/>
<path d="M153.852 0.121617H6.03193C2.77989 0.121617 0.119141 2.80818 0.119141 6.09177V41.9127C0.119141 45.1962 2.77989 47.8828 6.03193 47.8828H153.852C157.104 47.8828 159.764 45.1962 159.764 41.9127V6.09177C159.764 2.80818 157.104 0.121617 153.852 0.121617ZM153.852 1.07684C156.59 1.07684 158.818 3.32687 158.818 6.09177V41.9127C158.818 44.678 156.59 46.9281 153.852 46.9281H6.03193C3.2936 46.9281 1.06519 44.678 1.06519 41.9127V6.09177C1.06519 3.32687 3.2936 1.07684 6.03193 1.07684H153.852Z" fill="#C7C7C7"/>
<path d="M56.1934 12.3532C56.1934 13.3536 55.9 14.1502 55.3124 14.7445C54.645 15.4511 53.7751 15.8047 52.7057 15.8047C51.6816 15.8047 50.8109 15.4465 50.0948 14.7291C49.3775 14.0122 49.0195 13.1233 49.0195 12.0626C49.0195 11.0015 49.3775 10.113 50.0948 9.39561C50.8109 8.67872 51.6816 8.32003 52.7057 8.32003C53.2138 8.32003 53.7003 8.42033 54.1622 8.62045C54.6241 8.82104 54.9946 9.08731 55.2718 9.42081L54.6481 10.0509C54.1784 9.48421 53.5317 9.2011 52.7057 9.2011C51.9588 9.2011 51.313 9.46606 50.7679 9.99633C50.2228 10.5272 49.9503 11.2156 49.9503 12.0626C49.9503 12.9096 50.2228 13.598 50.7679 14.1289C51.313 14.6591 51.9588 14.9241 52.7057 14.9241C53.498 14.9241 54.1586 14.6577 54.6874 14.1242C55.0307 13.7766 55.2293 13.2935 55.2823 12.6731H52.7057V11.8126H56.144C56.1772 11.9997 56.1934 12.1793 56.1934 12.3532" fill="white"/>
<path d="M56.1945 12.351H56.0762C56.0753 13.3286 55.7925 14.0878 55.2299 14.6579L55.2286 14.6588L55.2281 14.6598C54.5818 15.3421 53.7512 15.6816 52.7067 15.6831C51.71 15.6816 50.8757 15.3384 50.179 14.6425C49.4839 13.9452 49.1402 13.0939 49.1389 12.0604C49.1402 11.0264 49.4839 10.1756 50.179 9.47877C50.8757 8.78241 51.71 8.43865 52.7067 8.43722C53.1996 8.43722 53.669 8.53429 54.1166 8.72784C54.5647 8.92283 54.9186 9.17835 55.1823 9.4956L55.2729 9.41859L55.1893 9.33417L54.5656 9.96474L54.6492 10.0487L54.7403 9.97226C54.2487 9.37751 53.5587 9.0777 52.7067 9.07949C51.9322 9.07853 51.2508 9.35793 50.6872 9.90838C50.1181 10.4606 49.8322 11.1877 49.8331 12.0604C49.8322 12.9331 50.1181 13.6601 50.6872 14.2124C51.2508 14.7628 51.9322 15.0422 52.7067 15.0413C53.5253 15.0427 54.2229 14.7624 54.7721 14.2064C55.1389 13.8351 55.3468 13.3207 55.4013 12.6812L55.4123 12.5515H52.825V11.9298H56.145V11.8104L56.0286 11.8314C56.061 12.0124 56.0762 12.1844 56.0762 12.351H56.1945H56.3127C56.3127 12.1695 56.296 11.983 56.2614 11.789L56.2439 11.6909H52.5885V12.6709V12.7903H55.2834V12.6709L55.1656 12.6606C55.1135 13.2615 54.924 13.7139 54.6049 14.0376C54.0967 14.5487 53.4732 14.801 52.7067 14.8025C51.9875 14.8015 51.3773 14.5515 50.8512 14.0408C50.3302 13.5319 50.0709 12.8822 50.0696 12.0604C50.0709 11.2385 50.3302 10.5889 50.8512 10.08C51.3773 9.56928 51.9875 9.31925 52.7067 9.31829C53.5064 9.3202 54.1102 9.58695 54.5588 10.1257L54.6419 10.2255L55.3565 9.50301L55.4331 9.42563L55.3634 9.34205C55.0728 8.99232 54.6858 8.71471 54.2099 8.50862C53.7332 8.30193 53.2301 8.19841 52.7067 8.19841C51.6555 8.19746 50.7482 8.57059 50.0123 9.30898C49.2737 10.0459 48.9014 10.9723 48.9023 12.0604C48.9014 13.148 49.2737 14.0748 50.0128 14.8123C50.7482 15.5502 51.6555 15.9228 52.7067 15.9219C53.8016 15.9228 54.7098 15.5557 55.399 14.8248L55.3135 14.7423L55.3971 14.8267C56.0096 14.2087 56.3136 13.3738 56.3127 12.351H56.1945Z" fill="white"/>
<path d="M61.6441 9.35656H58.4129V11.6281H61.3268V12.489H58.4129V14.7605H61.6441V15.6406H57.502V8.47644H61.6441V9.35656Z" fill="white"/>
<path d="M61.6452 9.36216V9.24276H58.2957V11.7531H61.2096V12.3748L58.2957 12.3752V14.8855H61.5269V15.5268H57.6213V8.60145H61.5269V9.36216H61.6452V9.24276V9.36216H61.7634V8.48204V8.36264H57.3848V15.7656H61.7634V14.7661V14.6467H58.5322V12.614H61.4461V11.6337V11.5143H58.5322V9.48157H61.7634V9.36216H61.6452" fill="white"/>
<path d="M65.4898 15.6406H64.5774V9.35656H62.5957V8.47644H67.4715V9.35656H65.4898V15.6406Z" fill="white"/>
<path d="M65.4889 15.6462V15.5268H64.6948V9.24276H62.7131V8.60145H67.3524V9.24276H65.3706V15.6462H65.4889V15.5268V15.6462H65.6071V9.48157H67.5889V8.48204V8.36264H62.4766V9.36216V9.48157H64.4583V15.7656H65.4889H65.6071V15.6462H65.4889" fill="white"/>
<path d="M71 15.6406V8.47644H71.9114V15.6406H71Z" fill="white"/>
<path d="M70.9991 15.6462H71.1174V8.60145H71.7922V15.5268H70.9991V15.6462H71.1174H70.9991V15.7656H71.9105H72.0288V8.36264H70.9991H70.8809V15.7656H70.9991V15.6462Z" fill="white"/>
<path d="M75.9545 15.6406H75.0422V9.35656H73.0605V8.47644H77.9362V9.35656H75.9545V15.6406Z" fill="white"/>
<path d="M75.9556 15.6462V15.5268H75.1615V9.24276H73.1799V8.60145H77.819V9.24276H75.8373V15.6462H75.9556V15.5268V15.6462H76.0738V9.48157H78.0556V8.48204V8.36264H72.9434V9.36216V9.48157H74.925V15.7656H75.9556H76.0738V15.6462H75.9556" fill="white"/>
<path d="M82.6363 14.1191C83.1615 14.6559 83.8041 14.9241 84.564 14.9241C85.3239 14.9241 85.9669 14.6559 86.4912 14.1191C87.0169 13.5822 87.2802 12.896 87.2802 12.0626C87.2802 11.2292 87.0169 10.543 86.4912 10.0061C85.9669 9.46928 85.3239 9.2011 84.564 9.2011C83.8041 9.2011 83.1615 9.46928 82.6363 10.0061C82.112 10.543 81.8488 11.2292 81.8488 12.0626C81.8488 12.896 82.112 13.5822 82.6363 14.1191ZM87.1656 14.7188C86.4681 15.4431 85.6005 15.8047 84.564 15.8047C83.5264 15.8047 82.6594 15.4431 81.9633 14.7188C81.2653 13.9954 80.918 13.1098 80.918 12.0626C80.918 11.0154 81.2653 10.1297 81.9633 9.40636C82.6594 8.68194 83.5264 8.32003 84.564 8.32003C85.5951 8.32003 86.4602 8.68385 87.161 9.41101C87.8609 10.1382 88.211 11.022 88.211 12.0626C88.211 13.1098 87.8617 13.9954 87.1656 14.7188Z" fill="white"/>
<path d="M82.6374 14.1169L82.5533 14.2008C83.098 14.7591 83.7775 15.0427 84.5651 15.0413C85.3522 15.0427 86.0327 14.7591 86.5764 14.2008C87.1246 13.642 87.4004 12.919 87.3996 12.0604C87.4004 11.2018 87.1246 10.4788 86.5764 9.91996C86.0327 9.36164 85.3522 9.07805 84.5651 9.07949C83.7775 9.07805 83.098 9.36164 82.5533 9.91996C82.0064 10.4788 81.7302 11.2018 81.7316 12.0604C81.7302 12.919 82.0064 13.642 82.5533 14.2008L82.6374 14.1169L82.7215 14.0329C82.2199 13.5175 81.969 12.8691 81.9681 12.0604C81.969 11.2517 82.2199 10.6033 82.7215 10.0878C83.2277 9.5725 83.8324 9.31972 84.5651 9.31829C85.2972 9.31972 85.9033 9.5725 86.4082 10.0878C86.9108 10.6033 87.1616 11.2517 87.1626 12.0604C87.1616 12.8691 86.9108 13.5175 86.4082 14.0329C85.9033 14.5483 85.2972 14.801 84.5651 14.8025C83.8324 14.801 83.2277 14.5483 82.7215 14.0329L82.6374 14.1169ZM87.1667 14.7166L87.0822 14.6336C86.4041 15.3351 85.5749 15.6816 84.5651 15.6831C83.5548 15.6816 82.7256 15.3351 82.0488 14.6336L82.0457 14.6299L82.0488 14.6336C81.3722 13.9298 81.0382 13.0809 81.0373 12.0604C81.0382 11.0398 81.3722 10.191 82.0488 9.48713C82.7256 8.78564 83.5548 8.43865 84.5651 8.43722C85.5684 8.43865 86.3957 8.78707 87.0776 9.49226C87.7566 10.1994 88.0924 11.0469 88.0939 12.0604C88.0924 13.0809 87.7575 13.9298 87.0822 14.6336L87.1667 14.7166L87.2518 14.7996C87.9686 14.0562 88.3312 13.1341 88.3304 12.0604C88.3312 10.9928 87.9672 10.0726 87.247 9.32581C86.5265 8.5762 85.6238 8.1971 84.5651 8.19841C83.5008 8.1971 82.5954 8.57441 81.8794 9.32116V9.32068C81.1611 10.0646 80.7998 10.9867 80.8008 12.0604C80.7998 13.1341 81.1611 14.0562 81.8794 14.8001L81.8826 14.8034L81.8794 14.7996C82.5954 15.5464 83.5008 15.9228 84.5651 15.9219C85.6289 15.9228 86.5343 15.5464 87.2518 14.7996L87.1667 14.7166" fill="white"/>
<path d="M89.4922 15.6406V8.47644H90.6018L94.0501 14.0497H94.0894L94.0501 12.669V8.47644H94.9625V15.6406H94.0109L90.4031 9.79728H90.3638L90.4031 11.1784V15.6406H89.4922Z" fill="white"/>
<path d="M89.4913 15.6462H89.6096V8.60145H90.5353L93.9836 14.1747H94.0885H94.2099L94.1675 12.6728V8.60145H94.8433V15.5268H94.0756L90.4679 9.68348H90.363H90.2415L90.284 11.1859V15.5268H89.4913V15.6462H89.6096H89.4913V15.7656H90.4022H90.5205V11.1821L90.4812 9.79966L90.363 9.80288V9.92228H90.4022V9.80288L90.3019 9.8664L93.9443 15.7656H94.9616H95.0798V8.36264H94.0492H93.931V12.6761L93.9702 14.0585L94.0885 14.0553V13.9359H94.0492V14.0553L94.1495 13.9919L90.6664 8.36264H89.4913H89.373V15.7656H89.4913V15.6462Z" fill="white"/>
<path d="M126.578 35.9454H128.785V21.0186H126.578V35.9454ZM146.453 26.3955L143.924 32.8671H143.848L141.223 26.3955H138.846L142.783 35.4407L140.538 40.472H142.841L148.907 26.3955H146.453ZM133.939 34.25C133.216 34.25 132.208 33.8852 132.208 32.9823C132.208 31.8302 133.464 31.3885 134.547 31.3885C135.518 31.3885 135.973 31.5997 136.563 31.8881C136.392 33.2705 135.213 34.25 133.939 34.25V34.25ZM134.205 26.069C132.608 26.069 130.953 26.7798 130.269 28.3545L132.227 29.18C132.646 28.3545 133.425 28.0853 134.243 28.0853C135.384 28.0853 136.545 28.777 136.563 30.0061V30.1595C136.164 29.929 135.309 29.5835 134.262 29.5835C132.151 29.5835 130.001 30.7546 130.001 32.944C130.001 34.9412 131.733 36.228 133.672 36.228C135.156 36.228 135.973 35.5559 136.488 34.7687H136.563V35.9207H138.693V30.1977C138.693 27.548 136.735 26.069 134.205 26.069V26.069ZM120.568 28.2126H117.43V23.0961H120.568C122.218 23.0961 123.154 24.4752 123.154 25.6543C123.154 26.8111 122.218 28.2126 120.568 28.2126ZM120.511 21.0186H115.224V35.9454H117.43V30.2901H120.511C122.957 30.2901 125.361 28.5023 125.361 25.6543C125.361 22.8064 122.957 21.0186 120.511 21.0186ZM91.6795 34.2527C90.1551 34.2527 88.8787 32.964 88.8787 31.194C88.8787 29.4053 90.1551 28.097 91.6795 28.097C93.1846 28.097 94.3657 29.4053 94.3657 31.194C94.3657 32.964 93.1846 34.2527 91.6795 34.2527V34.2527ZM94.2133 27.2314H94.137C93.6419 26.6352 92.6888 26.0966 91.4888 26.0966C88.9739 26.0966 86.6689 28.3278 86.6689 31.194C86.6689 34.041 88.9739 36.2532 91.4888 36.2532C92.6888 36.2532 93.6419 35.7145 94.137 35.0993H94.2133V35.8302C94.2133 37.7733 93.1846 38.812 91.5271 38.812C90.1745 38.812 89.3362 37.8307 88.9929 37.0037L87.069 37.8115C87.6215 39.1581 89.0885 40.8125 91.5271 40.8125C94.1181 40.8125 96.309 39.2733 96.309 35.5224V26.4044H94.2133V27.2314ZM97.833 35.9454H100.043V21.0181H97.833V35.9454ZM103.301 31.021C103.244 29.0587 104.806 28.0587 105.93 28.0587C106.807 28.0587 107.549 28.5009 107.797 29.1362L103.301 31.021ZM110.159 29.3283C109.741 28.193 108.464 26.0966 105.854 26.0966C103.263 26.0966 101.11 28.1548 101.11 31.1749C101.11 34.0219 103.244 36.2532 106.101 36.2532C108.407 36.2532 109.741 34.8297 110.293 34.0027L108.578 32.8483C108.007 33.6949 107.225 34.2527 106.101 34.2527C104.977 34.2527 104.177 33.7332 103.663 32.714L110.388 29.9053L110.159 29.3283ZM56.5798 27.6548V29.8092H61.6855C61.5331 31.021 61.133 31.9058 60.5233 32.5214C59.7805 33.2718 58.6183 34.0988 56.5798 34.0988C53.4362 34.0988 50.9787 31.5405 50.9787 28.3665C50.9787 25.1926 53.4362 22.6339 56.5798 22.6339C58.2755 22.6339 59.5135 23.3073 60.4281 24.173L61.9331 22.6535C60.6568 21.4221 58.961 20.4795 56.5798 20.4795C52.274 20.4795 48.6543 24.0191 48.6543 28.3665C48.6543 32.714 52.274 36.2532 56.5798 36.2532C58.9042 36.2532 60.6568 35.4841 62.0283 34.041C63.4382 32.6175 63.8765 30.617 63.8765 29.0014C63.8765 28.5009 63.8386 28.0396 63.7619 27.6548H56.5798ZM69.6812 34.2527C68.1568 34.2527 66.8421 32.9831 66.8421 31.1749C66.8421 29.3474 68.1568 28.097 69.6812 28.097C71.2051 28.097 72.5197 29.3474 72.5197 31.1749C72.5197 32.9831 71.2051 34.2527 69.6812 34.2527V34.2527ZM69.6812 26.0966C66.8994 26.0966 64.6322 28.2317 64.6322 31.1749C64.6322 34.0988 66.8994 36.2532 69.6812 36.2532C72.4625 36.2532 74.7297 34.0988 74.7297 31.1749C74.7297 28.2317 72.4625 26.0966 69.6812 26.0966ZM80.6946 34.2527C79.1708 34.2527 77.856 32.9831 77.856 31.1749C77.856 29.3474 79.1708 28.097 80.6946 28.097C82.2186 28.097 83.5332 29.3474 83.5332 31.1749C83.5332 32.9831 82.2186 34.2527 80.6946 34.2527ZM80.6946 26.0966C77.9129 26.0966 75.6462 28.2317 75.6462 31.1749C75.6462 34.0988 77.9129 36.2532 80.6946 36.2532C83.476 36.2532 85.7432 34.0988 85.7432 31.1749C85.7432 28.2317 83.476 26.0966 80.6946 26.0966Z" fill="white"/>
<path d="M12.5473 38.7969L12.4594 38.712C12.1153 38.3443 11.9121 37.7735 11.9121 37.0342V37.2082V10.8011C11.9121 10.7987 11.9121 10.7969 11.9121 10.795C11.9121 10.7972 11.9121 10.7991 11.9121 10.8015V10.976C11.9121 10.1755 12.149 9.57252 12.5458 9.21097L27.1975 24.0044L12.5473 38.7969ZM11.9121 10.7935C11.9121 10.7277 11.9139 10.6639 11.9172 10.6009C11.9139 10.6634 11.9121 10.7277 11.9121 10.7935ZM11.9172 10.5981C11.9172 10.5972 11.9172 10.5963 11.9175 10.5953C11.9172 10.5963 11.9172 10.5972 11.9172 10.5981ZM11.9175 10.5897C11.9175 10.5892 11.9175 10.5888 11.9175 10.5883C11.9175 10.5888 11.9175 10.5892 11.9175 10.5897Z" fill="url(#paint0_linear_6811_7049)"/>
<path d="M32.0804 29.1094L32.1918 29.0455L37.9779 25.726C38.5296 25.4093 38.8973 25.0254 39.0807 24.6192C38.8977 25.0254 38.53 25.4098 37.9779 25.7265L32.1918 29.046L32.0804 29.1094V29.1094ZM32.0818 28.9345L27.1973 24.0017L32.0813 19.0697L37.9779 22.4522C38.7267 22.8818 39.1471 23.4355 39.2174 24.0012C39.2174 24.0017 39.2174 24.0026 39.2174 24.0035C39.1471 24.5679 38.7267 25.122 37.9779 25.5515L32.0818 28.9345" fill="url(#paint1_linear_6811_7049)"/>
<path d="M13.5916 39.3594C13.1824 39.3594 12.8252 39.225 12.5467 38.9713L12.5472 38.9708C12.8257 39.2246 13.1833 39.3594 13.5926 39.3594C13.6281 39.3594 13.6641 39.3584 13.7007 39.3566C13.6637 39.3584 13.6271 39.3594 13.5916 39.3594V39.3594ZM13.5921 39.1844C13.1828 39.1849 12.8257 39.0501 12.5472 38.7964V38.796L27.1974 24.0035L32.082 28.9363L14.9169 38.7839C14.442 39.0557 13.9921 39.1844 13.5921 39.1844V39.1844ZM12.5431 38.9681C12.5172 38.9443 12.4917 38.9191 12.4668 38.893L12.5431 38.9681Z" fill="url(#paint2_linear_6811_7049)"/>
<path d="M27.1985 24L12.5469 9.20657C12.8254 8.95332 13.182 8.81899 13.5908 8.81899C13.9918 8.81899 14.4422 8.94818 14.918 9.22054L32.0826 19.0681L27.1985 24V24ZM32.1931 18.9567L14.918 9.04621C14.4422 8.77373 13.9918 8.64454 13.5908 8.64454C13.5889 8.64454 13.5876 8.64454 13.5858 8.64454C13.5881 8.64454 13.5899 8.64454 13.5927 8.64454C13.9928 8.64454 14.4426 8.77325 14.918 9.04573L32.1931 18.9567V18.9567Z" fill="url(#paint3_linear_6811_7049)"/>
<path d="M13.7003 39.3594C14.0721 39.3379 14.4838 39.2087 14.9166 38.961L32.0802 29.114L14.9166 38.961C14.4841 39.2092 14.0721 39.3379 13.7003 39.3594V39.3594ZM12.5464 38.9741L12.5427 38.9708C12.544 38.9718 12.5454 38.9731 12.5464 38.9741ZM12.4664 38.8957L12.459 38.8883V38.8879C12.4618 38.8906 12.4641 38.8933 12.4664 38.8957Z" fill="#202020"/>
<path d="M32.0801 29.1094L32.1915 29.0461L32.0801 29.1094Z" fill="url(#paint4_linear_6811_7049)"/>
<path d="M13.5922 39.3594C13.1829 39.3594 12.8253 39.2246 12.5468 38.9708L12.5464 38.9713C12.5454 38.9704 12.544 38.969 12.5427 38.9681L12.4664 38.893C12.4641 38.8906 12.4618 38.8879 12.459 38.8851L12.5468 38.7964C12.8253 39.0501 13.1825 39.1849 13.5918 39.1844C13.9917 39.1844 14.4417 39.0557 14.9166 38.7839L32.0816 28.9363L32.1916 29.0474L32.0802 29.1113L14.9166 38.9583C14.4838 39.2059 14.0721 39.3351 13.7003 39.3566C13.6638 39.3584 13.6277 39.3594 13.5922 39.3594" fill="url(#paint5_linear_6811_7049)"/>
<path d="M12.4594 38.8828C12.1153 38.5152 11.9121 37.9443 11.9121 37.2051V37.2046C11.9121 37.9443 12.1153 38.5147 12.4594 38.8823V38.8828" fill="#202020"/>
<path d="M12.4594 38.8828C12.1153 38.5152 11.9121 37.9448 11.9121 37.2051V37.0311C11.9121 37.7703 12.1153 38.3412 12.4594 38.7088L12.5473 38.7937L12.4594 38.8828" fill="url(#paint6_linear_6811_7049)"/>
<path d="M12.459 38.8828L12.5469 38.7946V38.7949L12.459 38.8828" fill="url(#paint7_linear_6811_7049)"/>
<path d="M39.082 24.6172C39.173 24.4156 39.2187 24.2086 39.2187 24.0014C39.2187 24.0011 39.2187 24.0006 39.2187 24.0006C39.2187 24.2081 39.173 24.4152 39.082 24.6172Z" fill="#202020"/>
<path d="M32.192 29.0469L32.082 28.9358L37.9781 25.5529C38.7269 25.1234 39.1473 24.5693 39.2176 24.0048C39.2176 24.212 39.1718 24.419 39.0809 24.6206C38.8975 25.0268 38.5298 25.4107 37.9781 25.7274L32.192 29.0469Z" fill="url(#paint8_linear_6811_7049)"/>
<path d="M39.2175 24V23.9995C39.217 23.3749 38.8036 22.7504 37.978 22.2765L32.1919 18.957H32.1914L32.1919 18.9567L37.978 22.2761C38.8045 22.75 39.2184 23.3754 39.2175 24Z" fill="#4B4B4B"/>
<path d="M39.218 24C39.1478 23.4343 38.7274 22.8806 37.9786 22.451L32.082 19.0685L32.192 18.9575H32.1925L37.9786 22.277C38.8042 22.7509 39.2176 23.3754 39.218 24Z" fill="url(#paint9_linear_6811_7049)"/>
<path d="M11.9121 10.7969C11.9121 10.7964 11.9121 10.7959 11.9121 10.7954C11.9121 10.7959 11.9121 10.7964 11.9121 10.7969ZM11.9172 10.6028C11.9172 10.6019 11.9172 10.6009 11.9172 10.6C11.9172 10.6009 11.9172 10.6019 11.9172 10.6028ZM11.9175 10.5972C11.9175 10.5953 11.9175 10.5935 11.9175 10.5916C11.9175 10.5935 11.9175 10.5953 11.9175 10.5972ZM11.9175 10.5902C11.986 9.36356 12.6466 8.65503 13.5811 8.65085C13.1759 8.65324 12.823 8.78756 12.5468 9.03891V9.03843L12.5435 9.04177C12.5144 9.06828 12.4867 9.09634 12.4594 9.12523C12.149 9.45682 11.9531 9.95353 11.9175 10.5902Z" fill="#4B4B4B"/>
<path d="M11.9121 10.9766V10.8021C11.9121 10.7997 11.9121 10.7978 11.9121 10.7955C11.9121 10.7951 11.9121 10.7946 11.9121 10.7941C11.9121 10.7283 11.9139 10.664 11.9172 10.6015C11.9172 10.6006 11.9172 10.5996 11.9172 10.5987C11.9172 10.5978 11.9172 10.5969 11.9175 10.5959C11.9175 10.594 11.9175 10.5922 11.9175 10.5903C11.9175 10.5898 11.9175 10.5893 11.9175 10.5889C11.9531 9.95221 12.149 9.45549 12.4594 9.1239L12.5458 9.21155C12.149 9.5731 11.9121 10.1761 11.9121 10.9766V10.9766ZM12.5435 9.04044L12.5468 9.0371C12.5458 9.03853 12.5444 9.03949 12.5435 9.04044Z" fill="url(#paint10_linear_6811_7049)"/>
<path d="M32.0812 19.0703L14.9166 9.22279C14.4407 8.95043 13.9904 8.82124 13.5894 8.82124C13.1806 8.82124 12.8239 8.95557 12.5454 9.20882L12.459 9.12118C12.4863 9.09228 12.514 9.06422 12.5431 9.03771C12.544 9.03676 12.5454 9.0358 12.5464 9.03485C12.8226 8.78351 13.1755 8.64918 13.5806 8.64679C13.5816 8.64679 13.5829 8.64679 13.5843 8.64679C13.5862 8.64679 13.5875 8.64679 13.5894 8.64679C13.9904 8.64679 14.4407 8.77598 14.9166 9.04846L32.1916 18.9589L32.1911 18.9593L32.0812 19.0703Z" fill="url(#paint11_linear_6811_7049)"/>
</g>
<defs>
<linearGradient id="paint0_linear_6811_7049" x1="25.8983" y1="10.5225" x2="5.86046" y2="30.3678" gradientUnits="userSpaceOnUse">
<stop stop-color="#00A0FF"/>
<stop offset="0.00657445" stop-color="#00A1FF"/>
<stop offset="0.2601" stop-color="#00BEFF"/>
<stop offset="0.5122" stop-color="#00D2FF"/>
<stop offset="0.7604" stop-color="#00DFFF"/>
<stop offset="1" stop-color="#00E3FF"/>
</linearGradient>
<linearGradient id="paint1_linear_6811_7049" x1="40.1297" y1="24.0024" x2="11.5154" y2="24.0024" gradientUnits="userSpaceOnUse">
<stop stop-color="#FFE000"/>
<stop offset="0.4087" stop-color="#FFBD00"/>
<stop offset="0.7754" stop-color="#FFA500"/>
<stop offset="1" stop-color="#FF9C00"/>
</linearGradient>
<linearGradient id="paint2_linear_6811_7049" x1="29.4781" y1="26.7442" x2="2.30529" y2="53.6559" gradientUnits="userSpaceOnUse">
<stop stop-color="#FF3A44"/>
<stop offset="1" stop-color="#C31162"/>
</linearGradient>
<linearGradient id="paint3_linear_6811_7049" x1="8.74933" y1="0.328837" x2="20.8831" y2="12.346" gradientUnits="userSpaceOnUse">
<stop stop-color="#32A071"/>
<stop offset="0.0685" stop-color="#2DA771"/>
<stop offset="0.4762" stop-color="#15CF74"/>
<stop offset="0.8009" stop-color="#06E775"/>
<stop offset="1" stop-color="#00F076"/>
</linearGradient>
<linearGradient id="paint4_linear_6811_7049" x1="40.1294" y1="24.0517" x2="11.515" y2="24.0517" gradientUnits="userSpaceOnUse">
<stop stop-color="#CCB300"/>
<stop offset="0.4087" stop-color="#CC9700"/>
<stop offset="0.7754" stop-color="#CC8400"/>
<stop offset="1" stop-color="#CC7D00"/>
</linearGradient>
<linearGradient id="paint5_linear_6811_7049" x1="29.4778" y1="26.7442" x2="2.30493" y2="53.656" gradientUnits="userSpaceOnUse">
<stop stop-color="#CC2E36"/>
<stop offset="1" stop-color="#9C0E4E"/>
</linearGradient>
<linearGradient id="paint6_linear_6811_7049" x1="25.8984" y1="10.5193" x2="5.86049" y2="30.3647" gradientUnits="userSpaceOnUse">
<stop stop-color="#008DE0"/>
<stop offset="0.00657445" stop-color="#008DE0"/>
<stop offset="0.2601" stop-color="#00A7E0"/>
<stop offset="0.5122" stop-color="#00B8E0"/>
<stop offset="0.7604" stop-color="#00C4E0"/>
<stop offset="1" stop-color="#00C7E0"/>
</linearGradient>
<linearGradient id="paint7_linear_6811_7049" x1="29.4783" y1="26.8587" x2="2.56564" y2="53.7726" gradientUnits="userSpaceOnUse">
<stop stop-color="#E0333C"/>
<stop offset="1" stop-color="#AB0F56"/>
</linearGradient>
<linearGradient id="paint8_linear_6811_7049" x1="40.1299" y1="24.0038" x2="11.5156" y2="24.0038" gradientUnits="userSpaceOnUse">
<stop stop-color="#E0C500"/>
<stop offset="0.4087" stop-color="#E0A600"/>
<stop offset="0.7754" stop-color="#E09100"/>
<stop offset="1" stop-color="#E08900"/>
</linearGradient>
<linearGradient id="paint9_linear_6811_7049" x1="40.1304" y1="24.0012" x2="11.5161" y2="24.0012" gradientUnits="userSpaceOnUse">
<stop stop-color="#FFE840"/>
<stop offset="0.4087" stop-color="#FFCE40"/>
<stop offset="0.7754" stop-color="#FFBC40"/>
<stop offset="1" stop-color="#FFB540"/>
</linearGradient>
<linearGradient id="paint10_linear_6811_7049" x1="25.8983" y1="10.5231" x2="5.86046" y2="30.3684" gradientUnits="userSpaceOnUse">
<stop stop-color="#40B8FF"/>
<stop offset="0.00657445" stop-color="#40B9FF"/>
<stop offset="0.2601" stop-color="#40CEFF"/>
<stop offset="0.5122" stop-color="#40DDFF"/>
<stop offset="0.7604" stop-color="#40E7FF"/>
<stop offset="1" stop-color="#40EAFF"/>
</linearGradient>
<linearGradient id="paint11_linear_6811_7049" x1="8.74788" y1="0.331085" x2="20.8816" y2="12.3483" gradientUnits="userSpaceOnUse">
<stop stop-color="#65B895"/>
<stop offset="0.0685" stop-color="#62BD95"/>
<stop offset="0.4762" stop-color="#50DB97"/>
<stop offset="0.8009" stop-color="#44ED98"/>
<stop offset="1" stop-color="#40F498"/>
</linearGradient>
<clipPath id="clip0_6811_7049">
<rect width="160" height="48" fill="white"/>
</clipPath>
</defs>
</svg>
