<svg width="313" height="188" viewBox="0 0 313 188" fill="none" xmlns="http://www.w3.org/2000/svg">
<path d="M73.978 21.395C63.7508 25.0373 54.0784 29.3911 45.2261 34.5047C42.3557 36.1569 39.618 37.8695 37.025 39.6183L72.3137 59.9883C75.763 61.9782 75.763 66.9592 72.3137 68.9491L0.325195 110.509C2.60461 120.929 7.97147 131.181 16.4379 140.769L104.913 89.693C110.75 86.3282 117.938 86.3282 123.763 89.693L261.662 169.304C264.689 167.796 267.68 166.24 270.55 164.588C279.403 159.474 286.977 153.903 293.284 148.005L73.978 21.395Z" fill="#85787C"/>
<path d="M7.34424 122.075L10.2025 123.727L20.6227 117.721L17.7523 116.069L7.34424 122.075Z" fill="url(#paint0_linear_673_2465)"/>
<path d="M23.8066 112.572L26.677 114.224L37.0851 108.206L34.2268 106.553L23.8066 112.572Z" fill="url(#paint1_linear_673_2465)"/>
<path d="M40.2812 103.056L43.1396 104.708L53.5597 98.7021L50.6894 97.0498L40.2812 103.056Z" fill="url(#paint2_linear_673_2465)"/>
<path d="M56.7437 93.5524L59.614 95.2047L70.0222 89.1987L67.1638 87.5464L56.7437 93.5524Z" fill="url(#paint3_linear_673_2465)"/>
<path d="M73.218 84.0366L76.0884 85.7009L86.4965 79.6828L83.6261 78.0305L73.218 84.0366Z" fill="url(#paint4_linear_673_2465)"/>
<path d="M89.6926 74.5332L92.5509 76.1855L102.959 70.1794L100.101 68.5271L89.6926 74.5332Z" fill="url(#paint5_linear_673_2465)"/>
<path d="M107.373 65.2707L108.615 66.7903C108.905 67.1521 109.387 67.309 109.833 67.2004C111.594 66.7904 113.488 66.5733 115.381 66.5733C117.287 66.5733 119.18 66.7783 120.941 67.1883C121.399 67.2969 121.882 67.1401 122.171 66.7662L123.353 65.2587C120.845 64.5954 118.095 64.2456 115.345 64.2456C112.607 64.2456 109.857 64.5954 107.373 65.2707Z" fill="url(#paint6_linear_673_2465)"/>
<path d="M127.888 70.1431L138.368 76.1975L141.215 74.5452L130.734 68.5029L127.888 70.1431Z" fill="url(#paint7_linear_673_2465)"/>
<path d="M144.459 79.7071L154.939 85.7614L157.786 84.1212L147.305 78.0669L144.459 79.7071Z" fill="url(#paint8_linear_673_2465)"/>
<path d="M161.03 89.2831L171.51 95.3253L174.357 93.6851L163.888 87.6428L161.03 89.2831Z" fill="url(#paint9_linear_673_2465)"/>
<path d="M177.613 98.8468L188.081 104.901L190.927 103.249L180.459 97.2065L177.613 98.8468Z" fill="url(#paint10_linear_673_2465)"/>
<path d="M194.184 108.423L204.652 114.465L207.499 112.825L197.03 106.771L194.184 108.423Z" fill="url(#paint11_linear_673_2465)"/>
<path d="M210.755 117.987L221.223 124.029L224.082 122.389L213.601 116.346L210.755 117.987Z" fill="url(#paint12_linear_673_2465)"/>
<path d="M227.326 127.551L237.806 133.605L240.653 131.953L230.172 125.91L227.326 127.551Z" fill="url(#paint13_linear_673_2465)"/>
<path d="M246.743 135.474L243.897 137.127L254.377 143.169L257.223 141.529L246.743 135.474Z" fill="url(#paint14_linear_673_2465)"/>
<path d="M217.099 52.3662L201.987 43.4777L221.115 33.0696L222.659 52.3662H217.099Z" fill="#DFE4EB"/>
<path d="M241.798 30.6333V41.958L222.658 52.3661V41.0414L241.798 30.6333Z" fill="#EDF4FF"/>
<path d="M222.659 41.0416V52.3663L207.547 43.4778V32.1531L222.659 41.0416Z" fill="#DDE7F8"/>
<path d="M222.671 41.0415L207.547 32.153L226.675 21.7449L241.798 30.6334L222.671 41.0415Z" fill="#EBF4FF"/>
<path d="M248.239 68.9372L226.904 56.3944L253.895 41.7048L253.786 68.9372H248.239Z" fill="#DFE4EB"/>
<path d="M280.79 30.4524V54.2475L253.786 68.9371V45.1419L280.79 30.4524Z" fill="#EDF4FF"/>
<path d="M253.786 45.1421V68.9372L232.464 56.3944V32.6113L253.786 45.1421Z" fill="#DDE7F8"/>
<path d="M253.798 45.1541L232.464 32.6113L259.455 17.9097L280.79 30.4525L253.798 45.1541Z" fill="#EBF4FF"/>
<path d="M277.907 78.1152L262.795 69.2267L281.923 58.8186L283.467 78.1152H277.907Z" fill="#DFE4EB"/>
<path d="M302.595 56.3823V67.707L283.467 78.1151V66.7904L302.595 56.3823Z" fill="#EDF4FF"/>
<path d="M283.467 66.7905V78.1152L268.355 69.2267V57.9141L283.467 66.7905Z" fill="#DDE7F8"/>
<path d="M283.467 66.8026L268.355 57.9141L287.483 47.4939L302.595 56.3824L283.467 66.8026Z" fill="#EBF4FF"/>
<path d="M107.711 30.766L94.1309 22.7699L111.329 13.4231L113.271 30.766H107.711Z" fill="#DFE4EB"/>
<path d="M130.469 7.98389V21.4071L113.271 30.766V17.3427L130.469 7.98389Z" fill="#EDF4FF"/>
<path d="M113.271 17.3429V30.7661L99.6907 22.77V9.35889L113.271 17.3429Z" fill="#DDE7F8"/>
<path d="M113.283 17.3428L99.6907 9.35884L116.889 0L130.469 7.98398L113.283 17.3428Z" fill="#EBF4FF"/>
<path d="M162.079 27.4374L151.768 21.3831L164.817 14.2795L167.639 27.7389L162.079 27.4374Z" fill="#DFE4EB"/>
<path d="M180.688 6.27148V20.6354L167.639 27.739V13.3751L180.688 6.27148Z" fill="#EDF4FF"/>
<path d="M167.639 13.375V27.7389L157.327 21.6725V7.30859L167.639 13.375Z" fill="#DDE7F8"/>
<path d="M167.639 13.375L157.327 7.30867L170.377 0.205078L180.688 6.27146L167.639 13.375Z" fill="#EBF4FF"/>
<path d="M295.95 96.5194L282.37 88.5234L293.453 82.4932L301.509 96.5194H295.95Z" fill="#DFE4EB"/>
<path d="M312.593 83.7715V90.4891L301.51 96.5193V89.8017L312.593 83.7715Z" fill="#EDF4FF"/>
<path d="M301.509 89.8017V96.5194L287.929 88.5233V81.8057L301.509 89.8017Z" fill="#DDE7F8"/>
<path d="M301.522 89.8016L287.929 81.8177L299.013 75.7754L312.605 83.7714L301.522 89.8016Z" fill="#EBF4FF"/>
<path d="M286.386 123.836L272.794 115.852L291.029 105.926L291.946 123.836H286.386Z" fill="#DFE4EB"/>
<path d="M310.181 107.205V113.922L291.946 123.836V117.118L310.181 107.205Z" fill="#EDF4FF"/>
<path d="M291.945 117.118V123.836L278.365 115.852V109.135L291.945 117.118Z" fill="#DDE7F8"/>
<path d="M291.945 117.118L278.365 109.134L296.601 99.2087L310.181 107.205L291.945 117.118Z" fill="#EBF4FF"/>
<path d="M195.426 30.8504L181.846 22.8664L192.93 16.8362L200.986 30.8504H195.426Z" fill="#DFE4EB"/>
<path d="M212.07 18.1025V24.8202L200.986 30.8504V24.1327L212.07 18.1025Z" fill="#EDF4FF"/>
<path d="M200.986 24.1329V30.8506L187.406 22.8666V16.1489L200.986 24.1329Z" fill="#DDE7F8"/>
<path d="M200.998 24.1328L187.406 16.1488L198.49 10.1187L212.082 18.1026L200.998 24.1328Z" fill="#EBF4FF"/>
<path d="M174.176 51.751L141.444 32.5147L156.966 24.0603L189.697 43.3087L174.176 51.751Z" fill="#DFE4EB"/>
<path d="M195.257 36.5913V45.7813L179.736 54.2236V45.0336L195.257 36.5913Z" fill="#EDF4FF"/>
<path d="M179.736 45.0335V54.2235L147.004 34.9751V25.7971L179.736 45.0335Z" fill="#DDE7F8"/>
<path d="M179.736 45.0335L147.004 25.7971L162.525 17.3428L195.257 36.5912L179.736 45.0335Z" fill="#EBF4FF"/>
<path d="M261.794 107.711L225.288 86.6297L240.628 77.7773L267.354 107.711H261.794Z" fill="#DFE4EB"/>
<path d="M282.695 82.4207V98.859L267.354 107.711V91.273L282.695 82.4207Z" fill="#EDF4FF"/>
<path d="M267.354 91.273V107.711L230.847 86.6297V70.1914L267.354 91.273Z" fill="#DDE7F8"/>
<path d="M267.354 91.273L230.847 70.1914L246.188 61.3391L282.695 82.4207L267.354 91.273Z" fill="#EBF4FF"/>
<path d="M210.357 81.3594L185.332 66.899L201.492 57.5884L215.917 81.3232L210.357 81.3594Z" fill="#DFE4EB"/>
<path d="M232.078 60.7361V72.0126L215.917 81.3232V70.0467L232.078 60.7361Z" fill="#EDF4FF"/>
<path d="M215.917 70.0468V81.3232L190.891 66.8749V55.5984L215.917 70.0468Z" fill="#DDE7F8"/>
<path d="M215.929 70.0589L190.891 55.5985L207.052 46.2878L232.078 60.7362L215.929 70.0589Z" fill="#EBF4FF"/>
<path d="M273.24 152.009C270.478 153.601 265.992 153.601 263.206 151.997C260.432 150.393 260.408 147.8 263.169 146.208C265.931 144.616 270.418 144.616 273.204 146.232C275.99 147.812 276.002 150.405 273.24 152.009Z" fill="url(#paint15_linear_673_2465)"/>
<path d="M273.3 85.4478L273.288 85.4599C270.78 84.4227 267.523 84.7845 263.953 86.8469C256.066 91.3936 249.674 102.417 249.674 111.462C249.674 123.776 263.953 137.778 263.953 137.778L268.199 139.876L277.618 87.5946L273.3 85.4478Z" fill="#FF4C4A"/>
<path d="M268.211 88.9332C276.098 84.3865 282.49 88.0287 282.49 97.074C282.49 109.388 268.211 139.876 268.211 139.876C268.211 139.876 253.931 125.874 253.931 113.561C253.931 104.515 260.323 93.4921 268.211 88.9332Z" fill="#FF4C4A"/>
<path d="M274.023 108.713C277.273 103.152 277.308 97.124 274.099 95.2482C270.89 93.3724 265.654 96.3594 262.403 101.92C259.152 107.48 259.118 113.509 262.327 115.385C265.535 117.26 270.772 114.273 274.023 108.713Z" fill="#FCFBFA"/>
<path d="M255.065 114.031C255.065 105.191 261.3 94.4328 269.007 89.9825C276.629 85.5804 282.333 88.8126 282.466 97.4358C282.466 97.3152 282.478 97.1825 282.478 97.074C282.478 88.0287 276.086 84.3865 268.199 88.9332C260.311 93.48 253.919 104.503 253.919 113.549C253.919 125.862 268.199 139.864 268.199 139.864C268.199 139.876 255.065 126.055 255.065 114.031Z" fill="#FF8685"/>
<path d="M143.265 61.5562L241.69 118.397L208.427 137.597L110.014 80.7684L143.265 61.5562Z" fill="#BFB5BF"/>
<path d="M129.227 85.3271L133.689 81.8899L149.512 93.0096L187.563 119L192.507 116.033L205.714 124.403L199.599 107.446L129.42 72.5913L129.227 85.3271Z" fill="#0F0E1B"/>
<path d="M207.812 124.174C207.812 119.856 204.761 114.598 201.01 112.427C199.141 111.342 197.44 111.233 196.21 111.933C196.198 111.933 196.186 111.945 196.186 111.945L191.892 114.429V117.758L201.553 131.012L205.581 128.672C205.774 128.588 205.955 128.479 206.124 128.359C207.161 127.599 207.812 126.164 207.812 124.174Z" fill="#23222D"/>
<path d="M148.993 90.2117C148.993 85.8941 145.942 80.6357 142.191 78.4649C140.201 77.3191 138.417 77.2588 137.174 78.103L132.917 80.5634L135.799 85.2669C136.547 88.0649 138.272 90.8871 140.406 92.7806L142.939 96.9173L146.678 94.7343C146.919 94.6258 147.148 94.4931 147.353 94.3364C148.366 93.5766 148.993 92.1534 148.993 90.2117Z" fill="#23222D"/>
<path d="M238.072 97.1946V109.219L232.934 106.252C231.583 101.898 228.484 97.9303 224.878 95.8438C220.029 93.0458 219.366 96.3021 216.64 101.162C216.423 101.548 216.11 102.513 216.11 102.513L175.285 78.9472C175.297 78.4286 175.297 77.8738 175.297 77.2949C175.297 71.7351 171.366 61.942 166.517 59.144C161.669 56.346 157.737 58.5892 157.737 64.1491C157.737 64.74 157.75 65.2948 157.774 65.8255L144.76 58.3119V15.0874L224.287 61.0013L228.978 86.1473L238.072 97.1946Z" fill="#E4DFD9"/>
<path d="M232.15 110.123C232.15 114.441 229.099 116.178 225.348 114.007C221.585 111.836 218.546 106.578 218.546 102.26C218.546 97.9424 221.597 96.2057 225.348 98.3766C229.099 100.547 232.15 105.806 232.15 110.123Z" fill="#2D2C37"/>
<path d="M173.331 76.1614C173.331 80.479 170.28 82.2157 166.529 80.0448C162.767 77.874 159.727 69.6126 159.727 65.295C159.727 60.9773 162.779 59.2406 166.529 61.4115C170.28 63.5824 173.331 71.8438 173.331 76.1614Z" fill="#2D2C37"/>
<path d="M171.257 74.9674C171.257 77.9704 169.134 79.1765 166.529 77.6689C163.912 76.1614 161.802 69.504 161.802 66.501C161.802 63.4979 163.924 62.2919 166.529 63.7995C169.134 65.307 171.257 71.9643 171.257 74.9674Z" fill="#504F58"/>
<path d="M170.811 74.702C170.811 77.4156 168.893 78.5132 166.529 77.1503C164.166 75.7875 162.248 69.4678 162.248 66.7542C162.248 64.0407 164.166 62.9432 166.529 64.306C168.893 65.6688 170.811 71.9884 170.811 74.702Z" fill="#C2C7D6"/>
<path d="M170.377 74.4608C170.377 76.9091 168.652 77.886 166.517 76.6558C164.383 75.4257 162.658 69.4437 162.658 66.9954C162.658 64.5472 164.383 63.5703 166.517 64.8004C168.652 66.0306 170.377 72.0126 170.377 74.4608Z" fill="#A5ACC2"/>
<path d="M168.893 70.5893C168.893 72.0848 167.832 75.7029 166.529 74.9431C165.227 74.1833 164.166 69.3592 164.166 67.8516C164.166 66.3561 165.227 65.7531 166.529 66.5009C167.832 67.2607 168.893 69.0939 168.893 70.5893Z" fill="#CFD9E7"/>
<path d="M230.076 108.917C230.076 111.92 227.953 113.126 225.348 111.619C222.731 110.111 220.62 106.457 220.62 103.466C220.62 100.475 222.743 99.257 225.348 100.765C227.953 102.272 230.076 105.926 230.076 108.917Z" fill="#504F58"/>
<path d="M229.629 108.664C229.629 111.378 227.712 112.475 225.348 111.112C222.984 109.749 221.066 106.433 221.066 103.719C221.066 101.006 222.984 99.9082 225.348 101.271C227.712 102.646 229.629 105.95 229.629 108.664Z" fill="#B5BBCD"/>
<path d="M228.628 108.085C228.628 110.172 227.157 111.004 225.348 109.955C223.539 108.905 222.067 106.373 222.067 104.286C222.067 102.2 223.539 101.368 225.348 102.417C227.157 103.466 228.628 106.011 228.628 108.085Z" fill="#CFD9E7"/>
<path d="M227.133 107.229C227.133 108.363 226.325 108.821 225.336 108.254C224.347 107.687 223.539 106.3 223.539 105.167C223.539 104.033 224.347 103.575 225.336 104.141C226.337 104.708 227.133 106.095 227.133 107.229Z" fill="#E1E7EF"/>
<path d="M226.325 106.758C226.325 107.374 225.891 107.627 225.348 107.313C224.805 107 224.371 106.252 224.371 105.637C224.371 105.022 224.805 104.768 225.348 105.082C225.879 105.384 226.325 106.131 226.325 106.758Z" fill="#C2C7D6"/>
<path d="M239.459 113.898L210.779 126.477L205.979 124.837L202.988 123.1L233.561 105.444L238.265 108.157L239.459 109.918V113.898Z" fill="#6B6164"/>
<path d="M223.768 59.2647L145.424 14.0261L144.76 15.0995L224.299 61.0135L223.768 59.2647Z" fill="#F3F1EE"/>
<path d="M202.783 76.6195L145.979 43.8273V42.175L202.783 74.9672V76.6195Z" fill="#98979D"/>
<path d="M203.543 93.6006V53.9219L219.921 63.3772V89.7895L214.53 99.9564L203.543 93.6006Z" fill="#CDC6BC"/>
<path d="M224.648 66.1149L220.958 63.9802V84.8688L226.421 88.0287L227.977 85.508L224.648 66.1149Z" fill="#2D2C37"/>
<path d="M221.452 84.5914V64.8245L224.275 66.4526L227.446 85.1462L226.132 87.2929L221.452 84.5914Z" fill="#7572A4"/>
<path d="M216.11 101.356L202.783 93.6731V94.8309L216.11 102.525V101.356Z" fill="#9B897F"/>
<path d="M144.76 57.1662L140.093 54.4646V55.6345L144.76 58.3239V57.1662Z" fill="#9B897F"/>
<path d="M236.6 101.572L234.646 100.439V98.1956L236.6 99.3292V101.572Z" fill="#504F58"/>
<path d="M236.444 101.283L234.815 100.354V98.4851L236.444 99.4258V101.283Z" fill="#FF9A2E"/>
<path d="M148.969 49.556C148.969 50.2434 148.475 50.5328 147.872 50.1831C147.269 49.8333 146.774 48.9891 146.774 48.3017C146.774 47.6142 147.269 47.3248 147.872 47.6745C148.475 48.0122 148.969 48.8685 148.969 49.556Z" fill="#504F58"/>
<path d="M148.74 49.4235C148.74 49.9783 148.354 50.1954 147.872 49.918C147.39 49.6406 147.004 48.9773 147.004 48.4225C147.004 47.8677 147.39 47.6506 147.872 47.928C148.354 48.2054 148.74 48.8808 148.74 49.4235Z" fill="#FF512E"/>
<path d="M148.487 53.5359C148.487 54.0062 148.149 54.1992 147.739 53.958C147.329 53.7168 146.991 53.1499 146.991 52.6796C146.991 52.2092 147.329 52.0163 147.739 52.2575C148.161 52.4866 148.487 53.0655 148.487 53.5359Z" fill="#F9F1EC"/>
<path d="M148.379 53.4756C148.379 53.8736 148.101 54.0304 147.751 53.8374C147.402 53.6324 147.124 53.15 147.124 52.752C147.124 52.354 147.402 52.1972 147.751 52.3901C148.101 52.5831 148.379 53.0656 148.379 53.4756Z" fill="#FF9A2E"/>
<path d="M178.807 74.0508C178.807 74.5212 178.469 74.7142 178.059 74.473C177.649 74.2318 177.311 73.6649 177.311 73.1945C177.311 72.7242 177.649 69.5282 178.059 69.7573C178.469 69.9865 178.807 73.5805 178.807 74.0508Z" fill="#F9F1EC"/>
<path d="M178.698 73.9783C178.698 74.3763 178.421 74.5331 178.071 74.3401C177.722 74.1351 177.444 73.6527 177.444 73.2547C177.444 72.8567 177.722 72.6999 178.071 72.8928C178.409 73.0979 178.698 73.5803 178.698 73.9783Z" fill="#FF9A2E"/>
<path d="M201.095 83.904C201.095 84.3744 200.757 84.5674 200.347 84.3261C199.937 84.0849 199.599 83.5181 199.599 83.0477C199.599 82.5774 199.937 82.3844 200.347 82.6256C200.757 82.8548 201.095 83.4337 201.095 83.904Z" fill="#F9F1EC"/>
<path d="M200.974 83.8318C200.974 84.2298 200.697 84.3866 200.347 84.1936C199.997 83.9886 199.72 83.5061 199.72 83.1081C199.72 82.7102 199.997 82.5534 200.347 82.7464C200.697 82.9514 200.974 83.4338 200.974 83.8318Z" fill="#FF9A2E"/>
<path d="M149.548 19.6824L147.004 18.2111V17.0774L149.548 18.5488V19.6824Z" fill="#CDC6BC"/>
<path d="M149.319 19.3449L147.233 18.1388V17.3066L149.319 18.5127V19.3449Z" fill="#FF9A2E"/>
<path d="M181.231 37.9781L178.698 36.5067V35.373L181.231 36.8444V37.9781Z" fill="#CDC6BC"/>
<path d="M181.014 37.6405L178.916 36.4345V35.6023L181.014 36.8083V37.6405Z" fill="#FF9A2E"/>
<path d="M221.187 61.0376L218.655 59.5783V58.4446L221.187 59.9159V61.0376Z" fill="#CDC6BC"/>
<path d="M220.97 60.7119L218.872 59.5059V58.6616L220.97 59.8797V60.7119Z" fill="#FF9A2E"/>
<path d="M167.108 49.5681C166.71 49.5681 166.276 49.4475 165.842 49.1942L149.826 39.9439C148.186 38.9911 146.847 36.4584 146.847 34.2876V25.1458C146.847 23.9518 147.257 23.0232 147.956 22.6131C148.56 22.2634 149.307 22.3236 150.079 22.7578L166.095 32.0081C167.736 32.9609 169.074 35.4936 169.074 37.6645V46.8063C169.074 48.0002 168.664 48.9289 167.965 49.3389C167.711 49.4836 167.422 49.5681 167.108 49.5681ZM166.107 48.7239C166.71 49.0736 167.277 49.1218 167.699 48.8686C168.242 48.555 168.556 47.8073 168.556 46.7942V37.6524C168.556 35.6504 167.338 33.3107 165.842 32.4423L149.826 23.192C149.235 22.8422 148.656 22.794 148.234 23.0473C147.691 23.3608 147.378 24.1086 147.378 25.1216V34.2634C147.378 36.2654 148.596 38.6052 150.091 39.4615L166.107 48.7239Z" fill="#CDC6BC"/>
<path d="M192.025 63.9563C191.627 63.9563 191.193 63.8357 190.759 63.5824L174.743 54.3321C173.102 53.3793 171.764 50.8466 171.764 48.6757V39.534C171.764 38.34 172.174 37.4113 172.873 37.0013C173.476 36.6515 174.224 36.7118 174.996 37.146L191.012 46.3963C192.652 47.3491 193.991 49.8818 193.991 52.0526V61.1944C193.991 62.3884 193.581 63.3171 192.881 63.7271C192.628 63.8719 192.339 63.9563 192.025 63.9563ZM173.754 37.3028C173.537 37.3028 173.332 37.351 173.151 37.4596C172.608 37.7732 172.294 38.5209 172.294 39.534V48.6757C172.294 50.6778 173.512 53.0175 175.008 53.8738L191.024 63.1241C191.627 63.4739 192.194 63.5221 192.616 63.2688C193.159 62.9553 193.472 62.2075 193.472 61.1944V52.0526C193.472 50.0506 192.254 47.7109 190.759 46.8546L174.743 37.6043C174.405 37.3993 174.067 37.3028 173.754 37.3028Z" fill="#CDC6BC"/>
<path d="M215.772 81.878L206.968 73.7855C206.039 73.2428 205.28 71.8076 205.28 70.5654V58.5774C205.28 57.3351 206.039 56.7683 206.968 57.299L215.772 62.3764C216.701 62.9191 217.461 64.3543 217.461 65.5965V80.5876C217.461 81.8419 216.701 82.4087 215.772 81.878Z" fill="#2D2C37"/>
<path d="M205.774 70.939V58.7701C205.774 57.8897 206.305 57.4796 206.968 57.8656L215.772 62.943C216.435 63.3289 216.966 64.342 216.966 65.2224V80.3944C216.966 81.2748 216.435 81.6848 215.772 81.2989L206.968 73.2064C206.305 72.8325 205.774 71.8194 205.774 70.939Z" fill="#7572A4"/>
<path d="M209.682 92.093L206.968 90.5252C206.039 89.9825 205.28 85.5322 205.28 84.2899V76.6557C205.28 75.4135 206.039 74.8467 206.968 75.3773L209.682 76.9452C210.61 77.4879 211.37 78.9231 211.37 80.1653V90.8025C211.37 92.0689 210.61 92.6357 209.682 92.093Z" fill="#2D2C37"/>
<path d="M205.774 84.6761V76.8609C205.774 75.9805 206.305 75.5705 206.968 75.9564L209.681 77.5243C210.345 77.9102 210.875 78.9233 210.875 79.8037V90.6218C210.875 91.5023 210.345 91.9123 209.681 91.5264L206.968 89.9585C206.305 89.5847 205.774 85.5565 205.774 84.6761Z" fill="#7572A4"/>
<path d="M223.466 106.228C223.671 106.855 223.864 107.181 224.299 107.699C224.455 107.88 224.552 108.133 224.504 108.29C224.455 108.447 224.226 108.399 224.021 108.158C223.575 107.651 223.117 106.855 222.924 106.216C222.827 105.914 222.912 105.709 223.068 105.758C223.225 105.782 223.394 105.999 223.466 106.228Z" fill="#504F58"/>
<path d="M227.217 106.156C227.012 105.528 226.819 105.203 226.385 104.684C226.228 104.503 226.132 104.25 226.18 104.093C226.228 103.937 226.458 103.985 226.663 104.226C227.109 104.732 227.567 105.528 227.76 106.168C227.857 106.469 227.772 106.674 227.615 106.626C227.459 106.602 227.29 106.385 227.217 106.156Z" fill="#504F58"/>
<path d="M226.313 108.905C226.759 108.917 226.952 108.821 227.169 108.459C227.254 108.326 227.422 108.314 227.579 108.459C227.736 108.604 227.808 108.905 227.7 109.074C227.483 109.46 227.012 109.713 226.554 109.677C226.349 109.665 226.12 109.448 226.084 109.243C226.06 109.026 226.156 108.905 226.313 108.905Z" fill="#504F58"/>
<path d="M224.371 103.478C223.925 103.466 223.732 103.563 223.515 103.924C223.43 104.057 223.262 104.069 223.105 103.924C222.948 103.78 222.876 103.478 222.984 103.309C223.201 102.923 223.672 102.67 224.13 102.706C224.335 102.718 224.564 102.935 224.6 103.141C224.636 103.358 224.528 103.49 224.371 103.478Z" fill="#504F58"/>
<path d="M227.507 97.6891H227.241L227.254 90.1272L228.858 86.1111L229.111 86.2076L227.507 90.2116V97.6891Z" fill="#C9C3B9"/>
<path d="M237.975 99.2689L228.086 88.2578L228.279 88.0769L238.168 99.088L237.975 99.2689Z" fill="#C9C3B9"/>
<path d="M116.214 76.9813L111.546 74.2798L117.094 71.0837L121.761 73.7732L116.214 76.9813Z" fill="#6B6164"/>
<path d="M209.525 113.681V125.705L204.387 122.739C203.036 118.385 199.937 114.417 196.331 112.33C191.483 109.532 190.819 112.789 188.094 117.649C187.877 118.035 187.563 119 187.563 119L146.738 95.4337C146.751 94.9151 146.751 94.3604 146.751 93.7815C146.751 88.2216 142.819 81.4437 137.971 78.6457C133.122 75.8477 129.191 78.0909 129.191 83.6508C129.191 84.2417 129.203 84.7965 129.227 85.3272L116.214 77.8135V31.574L195.74 77.4879L200.431 102.634L209.525 113.681Z" fill="#DED8D1"/>
<path d="M119.988 69.7573C119.988 70.3121 119.602 70.5292 119.12 70.2518C118.638 69.9744 118.252 69.311 118.252 68.7563C118.252 68.2015 118.638 67.9844 119.12 68.2618C119.602 68.5392 119.988 69.2025 119.988 69.7573Z" fill="#CDC6BC"/>
<path d="M173.5 96.9413L116.708 64.1491V62.5089L117.432 61.6768L173.5 95.3012L174.236 96.1092L173.5 96.9413Z" fill="#CDC6BC"/>
<path d="M207.197 118.397L205.883 117.649V116.142L206.269 114.972L207.885 117.77L207.197 118.397Z" fill="#B5AA9C"/>
<path d="M203.603 126.61C203.603 130.928 200.552 132.664 196.801 130.493C193.038 128.323 189.999 123.064 189.999 118.747C189.999 114.429 193.05 112.692 196.801 114.863C200.552 117.034 203.603 122.292 203.603 126.61Z" fill="#2D2C37"/>
<path d="M203.603 126.61C203.603 130.928 200.552 132.664 196.801 130.493C193.038 128.323 189.999 123.064 189.999 118.747C189.999 114.429 193.05 112.692 196.801 114.863C200.552 117.034 203.603 122.292 203.603 126.61Z" fill="#393843"/>
<path d="M203.181 126.526C203.181 130.674 200.25 132.351 196.632 130.264C193.014 128.178 190.083 123.125 190.083 118.964C190.083 114.815 193.014 113.139 196.632 115.225C200.25 117.323 203.181 122.377 203.181 126.526Z" fill="#2D2C37"/>
<path d="M144.785 92.6478C144.785 96.9654 141.733 98.7021 137.982 96.5313C134.22 94.3604 131.18 89.1021 131.18 84.7845C131.18 80.4668 134.232 78.7301 137.982 80.901C141.733 83.0719 144.785 88.3302 144.785 92.6478Z" fill="#393843"/>
<path d="M144.097 92.5635C144.097 96.7122 141.166 98.3886 137.548 96.3021C133.93 94.2157 131 89.1624 131 85.0016C131 80.8528 133.93 79.1764 137.548 81.2628C141.166 83.3613 144.097 88.4147 144.097 92.5635Z" fill="#2D2C37"/>
<path d="M142.577 91.5383C142.577 94.5413 140.455 95.7473 137.85 94.2398C135.233 92.7322 133.122 89.0779 133.122 86.0869C133.122 83.096 135.245 81.8779 137.85 83.3854C140.467 84.893 142.577 88.5473 142.577 91.5383Z" fill="#504F58"/>
<path d="M142.264 91.1885C142.264 93.9021 140.346 94.9996 137.983 93.6368C135.619 92.2739 133.701 88.9573 133.701 86.2437C133.701 83.5302 135.619 82.4327 137.983 83.7955C140.346 85.1583 142.264 88.4749 142.264 91.1885Z" fill="#C4C2BB"/>
<path d="M141.83 90.9352C141.83 93.3835 140.105 94.3604 137.97 93.1302C135.836 91.9001 134.111 88.9211 134.111 86.4849C134.111 84.0367 135.836 83.0598 137.97 84.2899C138.163 84.3985 138.356 84.5311 138.549 84.6638C140.214 85.906 141.528 88.1734 141.782 90.2237C141.818 90.4649 141.83 90.7061 141.83 90.9352Z" fill="#B0AC9E"/>
<path d="M139.37 92.1413C137.355 90.9835 135.715 88.1613 135.715 85.8457C135.715 84.905 135.981 84.2055 136.439 83.7713C135.076 83.6628 134.123 84.6759 134.123 86.4849C134.123 88.9332 135.848 91.9001 137.983 93.1302C139.538 94.0227 140.865 93.7453 141.48 92.5875C140.877 92.7322 140.153 92.5996 139.37 92.1413Z" fill="#B7B4A9"/>
<path d="M141.601 90.5131C141.601 92.0086 140.539 92.6116 139.237 91.8638C137.934 91.104 136.873 89.2829 136.873 87.7874C136.873 86.2919 137.934 85.6889 139.237 86.4366C140.551 87.1844 141.601 89.0055 141.601 90.5131Z" fill="#CDC6BC"/>
<path d="M141.782 90.2238C141.372 90.8148 140.612 90.9233 139.719 90.4168C138.417 89.657 137.355 87.8359 137.355 86.3404C137.355 85.3394 137.838 84.7363 138.537 84.676C140.214 85.9182 141.528 88.1735 141.782 90.2238Z" fill="#9D9783"/>
<path d="M137.982 84.8689L136.198 85.894L139.695 91.5624L141.444 90.5614L140.25 87.7031L137.982 84.8689Z" fill="#9D9783"/>
<path d="M140.346 90.0789C140.346 91.5744 139.285 92.1775 137.982 91.4297C136.68 90.6699 135.619 88.8488 135.619 87.3533C135.619 85.8578 136.68 85.2548 137.982 86.0026C139.285 86.7503 140.346 88.5835 140.346 90.0789Z" fill="#B7B4A9"/>
<path d="M140.105 90.0428C140.105 91.4779 139.092 92.0569 137.85 91.3332C136.595 90.6096 135.594 88.8609 135.594 87.4377C135.594 86.0026 136.608 85.4237 137.85 86.1473C139.104 86.8588 140.105 88.6076 140.105 90.0428Z" fill="#D5D2C9"/>
<path d="M201.396 125.5C201.396 128.503 199.273 129.709 196.668 128.202C194.051 126.694 191.941 123.04 191.941 120.049C191.941 117.058 194.063 115.84 196.668 117.348C199.273 118.855 201.396 122.497 201.396 125.5Z" fill="#504F58"/>
<path d="M201.082 125.151C201.082 127.864 199.165 128.962 196.801 127.599C194.437 126.236 192.52 122.919 192.52 120.206C192.52 117.492 194.437 116.395 196.801 117.758C199.165 119.12 201.082 122.437 201.082 125.151Z" fill="#C4C2BB"/>
<path d="M200.552 124.837C200.552 127.213 198.875 128.166 196.801 126.972C194.727 125.778 193.05 122.883 193.05 120.507C193.05 118.132 194.727 117.179 196.801 118.373C198.863 119.567 200.552 122.461 200.552 124.837Z" fill="#B7B4A9"/>
<path d="M200.082 124.572C200.082 126.658 198.61 127.49 196.801 126.441C194.992 125.392 193.521 122.859 193.521 120.773C193.521 118.686 194.992 117.854 196.801 118.903C198.61 119.953 200.082 122.485 200.082 124.572Z" fill="#D5D2C9"/>
<path d="M198.49 124.053C198.49 125.295 197.609 125.802 196.524 125.175C195.438 124.548 194.558 123.028 194.558 121.786C194.558 120.543 195.438 120.037 196.524 120.664C197.609 121.291 198.49 122.811 198.49 124.053Z" fill="#CAC6BC"/>
<path d="M194.92 122.714C195.125 123.342 195.318 123.667 195.752 124.186C195.909 124.367 196.005 124.62 195.957 124.777C195.909 124.934 195.679 124.885 195.474 124.644C195.028 124.138 194.57 123.342 194.377 122.702C194.28 122.401 194.365 122.196 194.522 122.244C194.678 122.268 194.847 122.485 194.92 122.714Z" fill="#504F58"/>
<path d="M198.019 123.932C198.019 125.03 197.247 125.476 196.294 124.921C195.342 124.367 194.57 123.028 194.57 121.942C194.57 120.845 195.342 120.399 196.294 120.953C197.247 121.496 198.019 122.835 198.019 123.932Z" fill="#DDDDDB"/>
<path d="M197.223 123.474C197.223 124.065 196.801 124.306 196.283 124.005C195.764 123.703 195.342 122.98 195.342 122.389C195.342 121.798 195.764 121.557 196.283 121.858C196.801 122.16 197.223 122.883 197.223 123.474Z" fill="#B7B4A9"/>
<path d="M210.779 130.457L205.822 129.914L203.519 128.588L202.988 123.1L205.979 124.837L210.779 126.477V130.457Z" fill="#493F41"/>
<path d="M195.221 75.7513L116.877 30.5127L116.214 31.574L195.752 77.5L195.221 75.7513Z" fill="#F3F1EE"/>
<path d="M173.693 94.7705L116.901 61.9783L117.432 61.6768L174.236 94.469L173.693 94.7705Z" fill="#6B6164"/>
<path d="M173.693 94.7705V96.4228L174.236 96.1092V94.469L173.693 94.7705Z" fill="#554D4E"/>
<path d="M174.996 110.087V73.4236L191.374 82.8669V106.276L185.983 116.431L174.996 110.087Z" fill="#CDC6BC"/>
<path d="M196.102 82.5894L192.411 80.4668V101.355L197.874 104.515L199.418 101.995L196.102 82.5894Z" fill="#2D2C37"/>
<path d="M192.906 101.078V81.311L195.728 82.9392L198.9 101.621L197.585 103.767L192.906 101.078Z" fill="#573F3F"/>
<path d="M116.214 76.9813L111.546 74.2798V75.124L116.214 77.8135V76.9813Z" fill="#493F41"/>
<path d="M208.053 118.059L206.1 116.925V114.682L208.053 115.816V118.059Z" fill="#504F58"/>
<path d="M207.885 117.77L205.738 115.635L206.268 114.972L207.885 115.912V117.77Z" fill="#FF9A2E"/>
<path d="M207.052 117.89L205.738 117.131V115.635L207.052 116.395V117.89Z" fill="#E06F2E"/>
<path d="M120.423 69.0457C120.423 69.7332 119.928 70.0226 119.325 69.6729C118.722 69.3231 118.228 68.4789 118.228 67.7914C118.228 67.104 118.722 66.8145 119.325 67.1643C119.928 67.514 120.423 68.3583 120.423 69.0457Z" fill="#504F58"/>
<path d="M120.193 68.913C120.193 69.4678 119.808 69.6849 119.325 69.4075C118.843 69.1301 118.457 68.4668 118.457 67.912C118.457 67.3572 118.843 67.1401 119.325 67.4175C119.808 67.6949 120.193 68.3703 120.193 68.913Z" fill="#D83B2E"/>
<path d="M118.65 67.4055C118.65 67.4055 118.252 67.8035 118.179 68.0085C118.095 68.2136 119.108 69.6126 119.108 69.6126C119.108 69.6126 119.614 69.6246 119.94 69.4799C120.242 69.3231 118.65 67.4055 118.65 67.4055Z" fill="#D83B2E"/>
<path d="M120.025 73.3271C120.025 73.7975 119.687 73.9905 119.277 73.7492C118.867 73.508 118.529 72.9412 118.529 72.4708C118.529 72.0005 118.867 71.8075 119.277 72.0487C119.687 72.2899 120.025 72.8568 120.025 73.3271Z" fill="#B5AA9C"/>
<path d="M150.344 90.8388C150.344 91.3092 150.007 91.5022 149.597 91.261C149.187 91.0198 148.849 90.4529 148.849 89.9826C148.849 89.5122 149.187 89.3192 149.597 89.5604C150.007 89.7896 150.344 90.3685 150.344 90.8388Z" fill="#B5AA9C"/>
<path d="M172.62 103.695C172.62 104.165 172.282 104.358 171.872 104.117C171.462 103.876 171.125 103.309 171.125 102.839C171.125 102.368 171.462 102.175 171.872 102.417C172.294 102.658 172.62 103.225 172.62 103.695Z" fill="#B5AA9C"/>
<path d="M119.446 69.13C119.446 69.5642 119.144 69.7331 118.77 69.516C118.396 69.2989 118.095 68.7682 118.095 68.3461C118.095 67.9119 118.396 67.7431 118.77 67.9602C119.132 68.1773 119.446 68.6959 119.446 69.13Z" fill="#FF512E"/>
<path d="M120.109 72.9533C120.109 73.4237 119.771 73.6167 119.361 73.3755C118.951 73.1343 118.614 72.5674 118.614 72.0971C118.614 71.6267 118.951 71.4337 119.361 71.6749C119.771 71.9162 120.109 72.483 120.109 72.9533Z" fill="#9DA1BF"/>
<path d="M150.417 90.4529C150.417 90.9232 150.079 91.1162 149.669 90.875C149.259 90.6338 148.921 90.0669 148.921 89.5966C148.921 89.1262 149.259 88.9332 149.669 89.1745C150.091 89.4157 150.417 89.9825 150.417 90.4529Z" fill="#9DA1BF"/>
<path d="M172.704 103.321C172.704 103.792 172.367 103.985 171.957 103.743C171.547 103.502 171.209 102.935 171.209 102.465C171.209 101.995 171.547 101.802 171.957 102.043C172.367 102.272 172.704 102.851 172.704 103.321Z" fill="#9DA1BF"/>
<path d="M119.94 73.0256C119.94 73.496 119.602 73.6889 119.192 73.4477C118.782 73.2065 118.445 72.6397 118.445 72.1693C118.445 71.699 118.782 71.506 119.192 71.7472C119.614 71.9764 119.94 72.5553 119.94 73.0256Z" fill="#F9F1EC"/>
<path d="M119.832 72.9654C119.832 73.3633 119.554 73.5201 119.205 73.3272C118.855 73.1221 118.577 72.6397 118.577 72.2417C118.577 71.8437 118.855 71.6869 119.205 71.8799C119.554 72.0729 119.832 72.5674 119.832 72.9654Z" fill="#E06F2E"/>
<path d="M150.26 90.5251C150.26 90.9955 149.922 91.1884 149.512 90.9472C149.102 90.706 148.764 90.1392 148.764 89.6688C148.764 89.1985 149.102 89.0055 149.512 89.2467C149.922 89.4879 150.26 90.0548 150.26 90.5251Z" fill="#F9F1EC"/>
<path d="M150.152 90.4648C150.152 90.8628 149.874 91.0196 149.524 90.8267C149.175 90.6337 148.897 90.1392 148.897 89.7412C148.897 89.3432 149.175 89.1864 149.524 89.3794C149.862 89.5724 150.152 90.0668 150.152 90.4648Z" fill="#E06F2E"/>
<path d="M172.536 103.394C172.536 103.864 172.198 104.057 171.788 103.816C171.378 103.574 171.04 103.008 171.04 102.537C171.04 102.067 171.378 101.874 171.788 102.115C172.21 102.344 172.536 102.923 172.536 103.394Z" fill="#F9F1EC"/>
<path d="M172.427 103.333C172.427 103.731 172.15 103.888 171.8 103.695C171.45 103.49 171.173 103.008 171.173 102.61C171.173 102.212 171.45 102.055 171.8 102.248C172.15 102.441 172.427 102.923 172.427 103.333Z" fill="#E06F2E"/>
<path d="M121.002 36.1569L118.457 34.6856V33.564L121.002 35.0353V36.1569Z" fill="#CDC6BC"/>
<path d="M120.772 35.8313L118.686 34.6252V33.781L120.772 34.9991V35.8313Z" fill="#E06F2E"/>
<path d="M152.684 54.4526L150.152 52.9812V51.8596L152.684 53.331V54.4526Z" fill="#CDC6BC"/>
<path d="M152.467 54.1269L150.369 52.9209V52.0767L152.467 53.2947V54.1269Z" fill="#E06F2E"/>
<path d="M192.64 77.5242L190.095 76.0528V74.9312L192.64 76.3905V77.5242Z" fill="#CDC6BC"/>
<path d="M192.423 77.1984L190.325 75.9804V75.1482L192.423 76.3542V77.1984Z" fill="#E06F2E"/>
<path d="M187.225 98.3525L178.421 93.275C177.492 92.7323 176.733 91.2971 176.733 90.0549V78.0669C176.733 76.8246 177.492 76.2578 178.421 76.7885L187.225 81.8659C188.154 82.4086 188.914 83.8438 188.914 85.086V97.0741C188.914 98.3283 188.154 98.8952 187.225 98.3525Z" fill="#2D2C37"/>
<path d="M177.227 90.4288V78.2599C177.227 77.3794 177.758 76.9694 178.421 77.3553L187.225 82.4327C187.888 82.8187 188.419 83.8318 188.419 84.7122V96.8811C188.419 97.7615 187.888 98.1716 187.225 97.7856L178.421 92.7082C177.758 92.3343 177.227 91.3092 177.227 90.4288Z" fill="#573F3F"/>
<path d="M181.135 108.58L178.421 107.012C177.492 106.469 176.733 105.034 176.733 103.792V96.1574C176.733 94.9152 177.492 94.3484 178.421 94.879L181.135 96.4469C182.063 96.9896 182.823 98.4248 182.823 99.667V107.301C182.823 108.543 182.063 109.122 181.135 108.58Z" fill="#2D2C37"/>
<path d="M177.227 104.166V96.3504C177.227 95.47 177.758 95.06 178.421 95.4459L181.135 97.0137C181.798 97.3997 182.329 98.4128 182.329 99.2932V107.108C182.329 107.989 181.798 108.399 181.135 108.013L178.421 106.445C177.758 106.071 177.227 105.046 177.227 104.166Z" fill="#573F3F"/>
<path d="M198.671 122.642C198.465 122.015 198.273 121.689 197.838 121.171C197.682 120.99 197.585 120.736 197.633 120.58C197.682 120.423 197.911 120.471 198.116 120.712C198.562 121.219 199.02 122.015 199.213 122.654C199.31 122.956 199.225 123.161 199.069 123.112C198.912 123.076 198.743 122.859 198.671 122.642Z" fill="#504F58"/>
<path d="M197.766 125.392C198.212 125.404 198.405 125.307 198.622 124.946C198.707 124.813 198.875 124.801 199.032 124.946C199.189 125.09 199.261 125.392 199.153 125.561C198.936 125.947 198.465 126.2 198.007 126.164C197.802 126.152 197.573 125.935 197.537 125.73C197.501 125.512 197.609 125.38 197.766 125.392Z" fill="#504F58"/>
<path d="M195.824 119.965C195.378 119.953 195.185 120.049 194.968 120.411C194.884 120.544 194.715 120.556 194.558 120.411C194.401 120.266 194.329 119.965 194.437 119.796C194.654 119.41 195.125 119.157 195.583 119.193C195.788 119.205 196.017 119.422 196.053 119.627C196.09 119.844 195.981 119.965 195.824 119.965Z" fill="#504F58"/>
<path d="M195.631 124.427C195.185 123.92 194.727 123.124 194.534 122.485C194.498 122.389 194.498 122.304 194.498 122.232C194.365 122.22 194.293 122.413 194.389 122.69C194.582 123.329 195.04 124.125 195.487 124.632C195.692 124.873 195.921 124.921 195.969 124.765C195.981 124.728 195.957 124.68 195.957 124.644C195.848 124.632 195.74 124.56 195.631 124.427Z" fill="#B7B4A9"/>
<path d="M199.225 122.932C199.068 122.883 198.9 122.666 198.827 122.449C198.622 121.822 198.429 121.496 197.995 120.978C197.874 120.833 197.814 120.652 197.802 120.507C197.73 120.495 197.669 120.519 197.645 120.592C197.597 120.749 197.694 121.002 197.85 121.183C198.285 121.689 198.465 122.015 198.683 122.654C198.755 122.883 198.924 123.1 199.08 123.137C199.189 123.161 199.249 123.076 199.261 122.932C199.237 122.919 199.237 122.932 199.225 122.932Z" fill="#B7B4A9"/>
<path d="M198.176 125.959C197.971 125.947 197.742 125.73 197.706 125.525C197.693 125.476 197.718 125.452 197.718 125.416C197.597 125.44 197.513 125.549 197.549 125.718C197.585 125.923 197.814 126.152 198.019 126.152C198.477 126.188 198.948 125.947 199.165 125.549V125.537C198.924 125.814 198.55 125.983 198.176 125.959Z" fill="#B7B4A9"/>
<path d="M194.702 120.218C194.546 120.073 194.473 119.784 194.57 119.615C194.522 119.675 194.461 119.736 194.425 119.796C194.317 119.965 194.389 120.266 194.546 120.411C194.703 120.556 194.871 120.544 194.956 120.411C195.004 120.339 195.052 120.278 195.088 120.23C195.016 120.339 194.859 120.351 194.702 120.218Z" fill="#B7B4A9"/>
<path d="M195.969 119.76C195.547 119.748 195.354 119.844 195.137 120.182C195.306 120.001 195.499 119.953 195.824 119.965C195.945 119.965 196.017 119.868 196.029 119.736C196.005 119.736 195.993 119.76 195.969 119.76Z" fill="#B7B4A9"/>
<path d="M198.96 114.164H198.695L198.707 106.614L200.311 102.586L200.552 102.682L198.96 106.686V114.164Z" fill="#C9C3B9"/>
<path d="M209.428 115.756L199.539 104.744L199.732 104.563L209.621 115.575L209.428 115.756Z" fill="#C9C3B9"/>
<path d="M238.072 97.1946L209.525 113.681V125.705L238.072 109.219V97.1946Z" fill="#E4DFD9"/>
<path d="M231.897 101.38L215.7 110.738V122.606L231.897 113.247V101.38Z" fill="#EBE7E3"/>
<path d="M231.077 103.333L216.52 111.74V114.694L231.077 106.288V103.333Z" fill="#554D4E"/>
<path d="M231.077 108.58L216.52 116.986V121.339L231.077 112.933V108.58Z" fill="#554D4E"/>
<path d="M230.232 105.806L216.52 113.717V114.694L231.077 106.288V103.333L230.232 103.816V105.806Z" fill="#CDC6BC"/>
<path d="M230.232 109.074V112.451L216.52 120.363V121.339L231.077 112.933V108.58L230.232 109.074Z" fill="#CDC6BC"/>
<path d="M209.525 113.681L238.072 97.1947L228.978 86.1594L200.431 102.634L209.525 113.681Z" fill="#F3F1EE"/>
<path d="M200.431 102.634L209.597 113.139L214.964 110.232L237.686 97.0379L228.978 86.1594L238.072 97.1947L209.525 113.681L200.431 102.634Z" fill="#FAF8F5"/>
<path d="M215.7 110.738L231.897 101.38L226.156 94.6619L209.959 104.009L215.7 110.738Z" fill="#F3F1EE"/>
<path d="M195.752 77.5L224.299 61.0134L228.978 86.1593L200.431 102.634L195.752 77.5Z" fill="#EBE7E3"/>
<path d="M214.988 92.696L215.085 93.1784L200.853 101.404L197.489 82.0949L211.647 73.918L211.744 74.4124L214.988 92.696Z" fill="#554D4E"/>
<path d="M214.554 92.9374L209.38 95.9283L201.179 100.668L200.431 96.3384L198.116 82.8428L198.019 82.3363L205.943 77.7654L211.322 74.6538L213.408 86.4368L213.83 88.8248L214.554 92.9374Z" fill="#B08480"/>
<path d="M228.182 85.6167L215.615 92.877L215.519 92.3826L212.274 74.099L212.178 73.6166L224.817 66.3201L228.182 85.6167Z" fill="#554D4E"/>
<path d="M227.652 85.3754L223.358 87.8598L217.533 91.2247L215.953 92.1413L215.338 88.68L215.229 88.0408L213.083 75.9201L212.709 73.8577L220.005 69.6487L224.492 67.0557L226.168 76.8005L227.483 84.4227L227.652 85.3754Z" fill="#B08480"/>
<path d="M227.446 85.1462L227.109 85.689L225.239 86.7744L221.452 84.5915V68.8044L224.383 67.116L227.446 85.1462Z" fill="#D6B6B2"/>
<path d="M195.752 77.5L224.299 61.0134L223.768 59.2646L195.221 75.7512L195.752 77.5Z" fill="#F3F1EE"/>
<path d="M223.768 59.2647L145.424 14.0261L116.877 30.5127L195.221 75.7513L223.768 59.2647Z" fill="#FCFBFA"/>
<path d="M239.459 109.918L210.779 126.477V130.457L239.459 113.898V109.918Z" fill="#554D4E"/>
<path d="M207.884 115.912L207.052 116.395V117.89L207.884 117.77V115.912Z" fill="#E07427"/>
<path d="M215.133 110.449V122.461L215.7 122.606V110.738L215.133 110.449Z" fill="#DED8D1"/>
<path d="M173.693 96.4228L116.901 63.6305V61.9783L173.693 94.7705V96.4228Z" fill="#493F41"/>
<path d="M232.355 111.305L236.263 109.05L232.693 109.593L232.355 110.123V111.305Z" fill="#B5AA9C"/>
<path d="M232.62 101.5L235.635 100.077C235.937 99.908 236.166 100.041 236.166 100.378V106.662C236.166 107 235.925 107.41 235.635 107.59L232.62 109.327C232.319 109.496 232.09 109.363 232.09 109.026V102.742C232.09 102.404 232.319 101.669 232.62 101.5Z" fill="#B5AA9C"/>
<path d="M236.552 99.6307L236.251 99.4498C236.251 99.4498 236.251 99.4498 236.238 99.4498C236.142 99.4016 236.009 99.4016 235.865 99.486L232.85 101.223C232.548 101.392 232.319 101.802 232.319 102.151V108.435C232.319 108.592 232.367 108.712 232.464 108.76C232.476 108.773 232.488 108.773 232.5 108.785L232.801 108.953L232.898 108.712L235.877 106.988C236.178 106.819 236.407 106.409 236.407 106.059V99.9925L236.552 99.6307Z" fill="#393843"/>
<path d="M233.139 101.391L236.154 99.6547C236.455 99.4859 236.685 99.6186 236.685 99.9562V106.24C236.685 106.577 236.443 106.987 236.154 107.168L233.139 108.905C232.837 109.074 232.608 108.941 232.608 108.604V102.32C232.596 101.982 232.837 101.56 233.139 101.391Z" fill="#5C5B64"/>
<path d="M233.283 101.753L235.997 100.186C236.202 100.065 236.359 100.161 236.359 100.391V106.168C236.359 106.397 236.202 106.674 235.997 106.795L233.283 108.362C233.078 108.483 232.922 108.387 232.922 108.157V102.381C232.922 102.151 233.078 101.874 233.283 101.753Z" fill="#CFCEDF"/>
<path d="M236.901 100.692L236.274 100.185L233.054 108.411L233.814 108.567L236.901 100.692Z" fill="#CFCEDF"/>
<path d="M234.031 102.199L236.624 100.704C236.817 100.595 236.974 100.68 236.974 100.897V106.433C236.974 106.65 236.817 106.915 236.624 107.036L234.031 108.531C233.838 108.64 233.681 108.555 233.681 108.338V102.802C233.681 102.573 233.838 102.308 234.031 102.199Z" fill="#F3F1EE"/>
<path d="M233.416 101.958L236.009 100.463C236.202 100.354 236.359 100.439 236.359 100.656V106.191C236.359 106.409 236.202 106.674 236.009 106.794L233.416 108.29C233.223 108.398 233.066 108.314 233.066 108.097V102.561C233.066 102.332 233.223 102.067 233.416 101.958Z" fill="#EEFAF9"/>
<path d="M233.175 111.052L237.083 108.797V107.615L233.175 109.87V111.052Z" fill="#E07427"/>
<path d="M233.175 109.87L232.693 109.593L236.588 107.337L237.083 107.615L233.175 109.87Z" fill="#FF9A2E"/>
<path d="M233.175 109.87L232.693 109.593V110.762L233.175 111.052V109.87Z" fill="#E06F2E"/>
<path d="M210.405 123.993L214.313 121.738L210.743 122.28L210.405 122.823V123.993Z" fill="#B5AA9C"/>
<path d="M210.671 114.188L213.686 112.765C213.987 112.596 214.216 112.728 214.216 113.066V119.35C214.216 119.687 213.975 120.097 213.686 120.278L210.671 122.015C210.369 122.184 210.14 122.051 210.14 121.713V115.43C210.14 115.092 210.381 114.369 210.671 114.188Z" fill="#B5AA9C"/>
<path d="M214.614 112.33L214.313 112.15C214.313 112.15 214.313 112.15 214.301 112.15C214.204 112.101 214.072 112.101 213.927 112.186L210.912 113.922C210.61 114.091 210.381 114.501 210.381 114.851V121.135C210.381 121.291 210.429 121.412 210.514 121.46C210.526 121.472 210.538 121.472 210.55 121.484L210.851 121.653L210.948 121.412L213.927 119.687C214.228 119.518 214.458 119.108 214.458 118.759V112.692L214.614 112.33Z" fill="#393843"/>
<path d="M211.189 114.091L214.204 112.355C214.506 112.186 214.735 112.319 214.735 112.656V118.94C214.735 119.277 214.494 119.687 214.204 119.868L211.189 121.605C210.888 121.774 210.658 121.641 210.658 121.304V115.02C210.646 114.67 210.888 114.26 211.189 114.091Z" fill="#5C5B64"/>
<path d="M211.334 114.453L214.047 112.885C214.252 112.765 214.409 112.861 214.409 113.091V118.867C214.409 119.097 214.252 119.374 214.047 119.495L211.334 121.062C211.129 121.183 210.972 121.087 210.972 120.857V115.08C210.972 114.851 211.141 114.574 211.334 114.453Z" fill="#CFCEDF"/>
<path d="M214.964 113.392L214.325 112.873L211.105 121.098L211.877 121.255L214.964 113.392Z" fill="#CFCEDF"/>
<path d="M212.081 114.887L214.674 113.392C214.867 113.283 215.024 113.368 215.024 113.585V119.121C215.024 119.338 214.867 119.603 214.674 119.724L212.081 121.219C211.888 121.328 211.732 121.243 211.732 121.026V115.49C211.744 115.273 211.888 115.008 212.081 114.887Z" fill="#F3F1EE"/>
<path d="M211.225 123.74L215.133 121.484V120.302L211.225 122.558V123.74Z" fill="#E07427"/>
<path d="M232.765 110.823L236.673 108.568V107.386L232.765 109.641V110.823Z" fill="#F5EC73"/>
<path d="M210.827 123.523L214.723 121.267V120.085L210.827 122.341V123.523Z" fill="#F5EC73"/>
<path d="M211.225 122.558L210.743 122.28L214.65 120.025L215.133 120.303L211.225 122.558Z" fill="#FF9A2E"/>
<path d="M211.225 122.558L210.743 122.28V123.462L211.225 123.74V122.558Z" fill="#E06F2E"/>
<path d="M175.852 109.593V73.906L174.996 73.4236V110.087L185.983 116.431L186.381 115.683L175.852 109.593Z" fill="#9B897F"/>
<path d="M213.83 88.8247L214.554 92.9373L201.179 100.668L200.431 96.3383L213.83 88.8247Z" fill="#997A77"/>
<path d="M227.651 85.3755L215.953 92.1414L215.229 88.0409L223.37 83.47L227.483 84.4228L227.651 85.3755Z" fill="#997A77"/>
<path d="M175.852 109.593L174.996 110.087L185.983 116.431L186.381 115.683L175.852 109.593Z" fill="#F3F1EE"/>
<path d="M185.452 119.386L172.125 111.691V112.523L185.452 120.218V119.386Z" fill="#493F41"/>
<path d="M185.452 119.386L187.563 118.168V119L185.452 120.218V119.386Z" fill="#554D4E"/>
<path d="M185.452 119.386L187.563 118.168L174.236 110.473L172.125 111.691L185.452 119.386Z" fill="#6B6164"/>
<path d="M211.454 114.562L214.047 113.066C214.24 112.957 214.397 113.042 214.397 113.259V118.795C214.397 119.012 214.24 119.277 214.047 119.398L211.454 120.893C211.262 121.002 211.105 120.917 211.105 120.7V115.165C211.105 114.935 211.262 114.67 211.454 114.562Z" fill="#EEFAF9"/>
<path d="M175.852 73.906V74.6537L190.325 83.1805V106.192L185.681 115.273L186.381 115.683L191.374 106.276V82.8669L175.852 73.906Z" fill="#F2F1F0"/>
<path d="M215.133 110.449L207.487 101.15L215.7 110.738L215.133 110.449Z" fill="#DED8D1"/>
<path d="M230.232 105.806L231.077 106.288L216.52 114.694V113.717L230.232 105.806Z" fill="#F3F1EE"/>
<path d="M230.232 112.451L231.077 112.933L216.52 121.339V120.363L230.232 112.451Z" fill="#F3F1EE"/>
<path d="M211.322 74.6538L211.864 77.7171L209.609 75.6428L211.322 74.6538Z" fill="#CBCADD"/>
<path d="M216.966 71.3975V80.4066C216.966 81.287 216.435 81.697 215.772 81.3111L213.698 79.4056L212.721 73.8578L216.966 71.3975Z" fill="#CBCADD"/>
<path d="M211.864 77.7171L209.609 75.6428L211.322 74.6538L211.864 77.7171Z" fill="#D6B6B2"/>
<path d="M212.709 73.8578L216.966 71.3975V80.4066C216.966 81.287 216.435 81.697 215.772 81.3111L213.698 79.4056L212.709 73.8578Z" fill="#D6B6B2"/>
<path d="M194.907 74.1349L118.746 30.1024L119.289 29.7888L195.1 74.1349H194.907Z" fill="#EBE7E3"/>
<path d="M195.1 73.9541L118.939 29.9216L119.47 29.6201L195.631 73.6526L195.1 73.9541Z" fill="#FCFBFA"/>
<path d="M195.1 73.9541V74.135L195.631 73.8215V73.6526L195.1 73.9541Z" fill="#EBE7E3"/>
<path d="M195.1 74.135L118.939 30.1025V29.9216L195.1 73.9541V74.135Z" fill="#CDC6BC"/>
<path d="M198.417 72.109L122.256 28.0765L122.786 27.7629L198.598 72.109H198.417Z" fill="#EBE7E3"/>
<path d="M198.598 71.9401L122.437 27.8955L122.967 27.594L199.141 71.6265L198.598 71.9401Z" fill="#FCFBFA"/>
<path d="M198.598 71.94V72.1089L199.141 71.7953V71.6265L198.598 71.94Z" fill="#EBE7E3"/>
<path d="M198.598 72.1089L122.437 28.0764V27.8955L198.598 71.9401V72.1089Z" fill="#CDC6BC"/>
<path d="M201.927 70.0829L125.765 26.0504L126.296 25.7368L202.107 70.0829H201.927Z" fill="#EBE7E3"/>
<path d="M202.107 69.914L125.946 25.8694L126.477 25.5679L202.638 69.6004L202.107 69.914Z" fill="#FCFBFA"/>
<path d="M202.107 69.9139V70.0828L202.638 69.7812V69.6003L202.107 69.9139Z" fill="#EBE7E3"/>
<path d="M202.107 70.0828L125.946 26.0503V25.8694L202.107 69.914V70.0828Z" fill="#CDC6BC"/>
<path d="M205.424 68.0567L129.263 24.0242L129.793 23.7227L205.617 68.0567H205.424Z" fill="#EBE7E3"/>
<path d="M205.617 67.8878L129.444 23.8553L129.986 23.5417L206.148 67.5743L205.617 67.8878Z" fill="#FCFBFA"/>
<path d="M205.617 67.8878V68.0566L206.148 67.7551V67.5742L205.617 67.8878Z" fill="#EBE7E3"/>
<path d="M205.617 68.0566L129.444 24.0241V23.8552L205.617 67.8877V68.0566Z" fill="#CDC6BC"/>
<path d="M208.934 66.0426L132.772 21.998L133.303 21.6965L209.115 66.0426H208.934Z" fill="#EBE7E3"/>
<path d="M209.115 65.8617L132.953 21.8292L133.484 21.5156L209.645 65.5602L209.115 65.8617Z" fill="#FCFBFA"/>
<path d="M209.115 65.8616V66.0425L209.645 65.7289V65.5601L209.115 65.8616Z" fill="#EBE7E3"/>
<path d="M209.115 66.0425L132.953 21.998V21.8291L209.115 65.8616V66.0425Z" fill="#CDC6BC"/>
<path d="M212.431 64.0165L136.27 19.984L136.812 19.6704L212.624 64.0165H212.431Z" fill="#EBE7E3"/>
<path d="M212.624 63.8355L136.463 19.803L136.993 19.5015L213.155 63.534L212.624 63.8355Z" fill="#FCFBFA"/>
<path d="M212.624 63.8354V64.0163L213.155 63.7028V63.5339L212.624 63.8354Z" fill="#EBE7E3"/>
<path d="M212.624 64.0164L136.463 19.9839V19.803L212.624 63.8355V64.0164Z" fill="#CDC6BC"/>
<path d="M215.941 61.9904L139.78 17.9579L140.31 17.6443L216.122 61.9904H215.941Z" fill="#EBE7E3"/>
<path d="M216.122 61.8214L139.96 17.7769L140.503 17.4753L216.665 61.5079L216.122 61.8214Z" fill="#FCFBFA"/>
<path d="M216.122 61.8214V61.9902L216.665 61.6887V61.5078L216.122 61.8214Z" fill="#EBE7E3"/>
<path d="M216.122 61.9903L139.96 17.9578V17.7769L216.122 61.8214V61.9903Z" fill="#CDC6BC"/>
<path d="M219.45 59.9641L143.289 15.9316L143.82 15.6301L219.631 59.9641H219.45Z" fill="#EBE7E3"/>
<path d="M219.631 59.7953L143.47 15.7628L144.001 15.4492L220.162 59.4817L219.631 59.7953Z" fill="#FCFBFA"/>
<path d="M219.631 59.7953V59.9641L220.162 59.6626V59.4817L219.631 59.7953Z" fill="#EBE7E3"/>
<path d="M219.631 59.9641L143.47 15.9316V15.7627L219.631 59.7952V59.9641Z" fill="#CDC6BC"/>
<path d="M202.337 70.8065L201.083 70.0829L202.071 69.4919L203.048 70.8065H202.337Z" fill="#EBE7E3"/>
<path d="M203.048 70.8066L204.037 70.2157V69.7212L203.048 70.3121V70.8066Z" fill="#E07427"/>
<path d="M203.048 70.3121L201.794 69.5885L202.783 68.9976L204.037 69.7212L203.048 70.3121Z" fill="#FF9A2E"/>
<path d="M203.048 70.3123L201.794 69.5886V70.0831L203.048 70.8067V70.3123Z" fill="#E06F2E"/>
<path d="M207.306 67.8517L206.039 67.1281L207.04 66.5371L208.017 67.8517H207.306Z" fill="#EBE7E3"/>
<path d="M208.017 67.8518L209.006 67.2608V66.7664L208.017 67.3573V67.8518Z" fill="#E07427"/>
<path d="M208.017 67.3573L206.763 66.6337L207.752 66.0427L209.006 66.7664L208.017 67.3573Z" fill="#FF9A2E"/>
<path d="M208.017 67.3574L206.763 66.6338V67.1282L208.017 67.8519V67.3574Z" fill="#E06F2E"/>
<path d="M212.263 64.8969L211.008 64.1732L212.009 63.5823L212.974 64.8969H212.263Z" fill="#EBE7E3"/>
<path d="M212.974 64.897L213.975 64.306V63.8115L212.974 64.4025V64.897Z" fill="#E07427"/>
<path d="M212.974 64.4025L211.72 63.6788L212.721 63.0879L213.975 63.8115L212.974 64.4025Z" fill="#FF9A2E"/>
<path d="M212.974 64.4026L211.72 63.679V64.1734L212.974 64.8971V64.4026Z" fill="#E06F2E"/>
<path d="M209.85 100.137L216.363 96.3745L215.109 94.8308L208.584 98.5816L209.85 100.137Z" fill="#CDC6BC"/>
<path d="M218.944 94.8429L225.457 91.0801L224.202 89.5364L217.69 93.2992L218.944 94.8429Z" fill="#CDC6BC"/>
<path d="M212.612 95.3011C212.757 95.4458 212.962 95.4217 213.082 95.2408C213.203 95.0599 213.179 94.8066 213.046 94.6619C212.902 94.5172 212.696 94.5413 212.576 94.7222C212.455 94.9031 212.467 95.1564 212.612 95.3011Z" fill="#493F41"/>
<path d="M212.636 95.2649C212.757 95.3855 212.938 95.3734 213.046 95.2167C213.155 95.0599 213.131 94.8428 213.01 94.7101C212.902 94.5895 212.733 94.6016 212.624 94.7222C212.612 94.7342 212.612 94.7463 212.6 94.7584C212.504 94.9151 212.516 95.1323 212.636 95.2649Z" fill="#493F41"/>
<path d="M212.829 94.6257C212.829 94.6257 213.058 94.6378 213.131 94.674C213.203 94.7102 213.179 95.2167 213.179 95.2167C213.179 95.2167 213.01 95.3132 212.866 95.3373C212.721 95.3614 212.829 94.6257 212.829 94.6257Z" fill="#493F41"/>
<path d="M212.95 95.1684C213.046 95.2649 213.191 95.2528 213.276 95.1322C213.36 95.0116 213.348 94.8307 213.251 94.7342C213.155 94.6378 213.01 94.6498 212.926 94.7704C212.841 94.891 212.853 95.0719 212.95 95.1684Z" fill="#5C504E"/>
<path d="M213.83 88.8248L214.554 92.9374L209.38 95.9283L198.116 82.8428L198.019 82.3363L205.943 77.7654L213.408 86.4368L213.83 88.8248Z" fill="#383838"/>
<path d="M217.533 91.2247L215.953 92.1413L215.338 88.6799L217.533 91.2247Z" fill="#383838"/>
<path d="M227.652 85.3754L223.358 87.8598L213.083 75.9201L212.709 73.8577L220.005 69.6487L226.168 76.8005L227.483 84.4227L227.652 85.3754Z" fill="#383838"/>
<path d="M219.282 123.366L217.46 124.415V123.607L219.282 122.558V123.366Z" fill="#493F41"/>
<path d="M219.125 123.318L217.629 124.186V123.583L219.125 122.727V123.318Z" fill="#E06F2E"/>
<path d="M232.223 115.55L230.727 116.419V115.816L232.223 114.959V115.55Z" fill="#E06F2E"/>
<path d="M209.766 95.1564L209.356 95.5544L212.817 95.1926L212.769 94.7102L209.766 95.1564Z" fill="#493F41"/>
<path d="M213.07 93.7213C213.034 93.7213 203.265 98.7866 203.265 98.7866L203.157 98.4731L212.672 93.3232L213.07 93.7213Z" fill="#5C504E"/>
<path d="M163.49 84.266C163.044 84.266 162.561 84.1212 162.079 83.8439L146.063 74.6056C144.314 73.5925 142.939 70.9875 142.939 68.6839V59.5422C142.939 58.2276 143.397 57.2145 144.206 56.7562C144.905 56.3582 145.761 56.4065 146.63 56.9009L162.646 66.1512C164.395 67.1643 165.77 69.7694 165.77 72.0729V81.2147C165.77 82.5293 165.311 83.5424 164.503 84.0006C164.202 84.1816 163.852 84.266 163.49 84.266ZM162.646 82.867C162.996 83.072 163.514 83.265 163.936 83.0117C164.371 82.7584 164.636 82.083 164.636 81.2026V72.0609C164.636 70.1794 163.466 67.9241 162.079 67.1161L146.063 57.8899C145.713 57.6849 145.207 57.4919 144.772 57.7451C144.338 57.9984 144.073 58.6738 144.073 59.5542V68.696C144.073 70.5774 145.243 72.8327 146.63 73.6408L162.646 82.867Z" fill="#E9E5E1"/>
<path d="M163.478 83.7474C163.032 83.7474 162.55 83.6027 162.067 83.3253L146.051 74.0749C144.302 73.0619 142.927 70.4568 142.927 68.1533V59.0115C142.927 57.6969 143.386 56.6838 144.194 56.2135C144.893 55.8155 145.761 55.8637 146.618 56.3582L162.634 65.6086C164.383 66.6216 165.758 69.2267 165.758 71.5302V80.672C165.758 81.9866 165.299 82.9996 164.491 83.4579C164.19 83.6629 163.84 83.7474 163.478 83.7474ZM145.207 57.0939C145.05 57.0939 144.905 57.1301 144.76 57.2145C144.326 57.4678 144.061 58.1431 144.061 59.0235V68.1653C144.061 70.0468 145.231 72.3021 146.618 73.1101L162.634 82.3604C162.984 82.5654 163.502 82.7584 163.924 82.5051C164.359 82.2519 164.624 81.5765 164.624 80.6961V71.5543C164.624 69.6729 163.454 67.4176 162.067 66.6095L146.051 57.3592C145.81 57.2266 145.508 57.0939 145.207 57.0939Z" fill="#D9D3CC"/>
<path d="M138.573 69.8779C138.127 69.8779 137.645 69.7332 137.162 69.4559L121.146 60.2055C119.397 59.1924 118.022 56.5874 118.022 54.2839V45.1421C118.022 43.8275 118.481 42.8144 119.289 42.3561C119.988 41.9461 120.845 42.0064 121.713 42.5009L137.729 51.7512C139.478 52.7642 140.853 55.3693 140.853 57.6728V66.8146C140.853 68.1292 140.395 69.1423 139.586 69.6006C139.273 69.7935 138.935 69.8779 138.573 69.8779ZM137.729 68.479C138.079 68.684 138.597 68.877 139.02 68.6237C139.454 68.3704 139.719 67.695 139.719 66.8146V57.6728C139.719 55.7914 138.549 53.5361 137.162 52.7281L121.146 43.4778C120.796 43.2727 120.278 43.0798 119.856 43.333C119.421 43.5863 119.156 44.2617 119.156 45.1421V54.2839C119.156 56.1653 120.326 58.4206 121.713 59.2286L137.729 68.479Z" fill="#E9E5E1"/>
<path d="M138.561 69.3593C138.115 69.3593 137.633 69.2146 137.15 68.9372L121.134 59.6869C119.385 58.6738 118.01 56.0688 118.01 53.7653V44.6235C118.01 43.3089 118.469 42.2958 119.277 41.8375C119.976 41.4395 120.845 41.4878 121.701 41.9823L137.717 51.2326C139.466 52.2456 140.841 54.8507 140.841 57.1542V66.296C140.841 67.6106 140.383 68.6237 139.574 69.082C139.261 69.2749 138.923 69.3593 138.561 69.3593ZM120.29 42.7059C120.133 42.7059 119.988 42.742 119.844 42.8265C119.41 43.0797 119.144 43.7551 119.144 44.6355V53.7653C119.144 55.6467 120.314 57.902 121.701 58.71L137.717 67.9603C138.067 68.1653 138.586 68.3583 139.008 68.1051C139.442 67.8518 139.707 67.1764 139.707 66.296V57.1542C139.707 55.2728 138.537 53.0175 137.15 52.2094L121.134 42.9591C120.893 42.8385 120.591 42.7059 120.29 42.7059Z" fill="#D9D3CC"/>
<path d="M173.018 92.3705L116.213 59.5783V57.926L173.018 90.7303V92.3705Z" fill="#F5B53D"/>
<path d="M124.74 49.8456V53.1743C124.74 53.8014 125.416 54.1994 125.958 53.8858L128.865 52.2336C129.408 51.92 129.42 51.136 128.865 50.8225L125.958 49.1461C125.428 48.8205 124.74 49.2184 124.74 49.8456Z" fill="#DE4037"/>
<path d="M133.351 61.8458V58.5171C133.351 57.8899 132.676 57.492 132.133 57.8055L129.227 59.4578C128.684 59.7714 128.672 60.5553 129.227 60.8689L132.133 62.5453C132.664 62.8709 133.351 62.485 133.351 61.8458Z" fill="#DE4037"/>
<path d="M125.15 58.529L127.454 59.8556C128.177 60.2777 128.985 59.4576 128.563 58.734L126.26 54.7661C125.838 54.0425 124.74 54.344 124.74 55.1762V57.8174C124.74 58.1189 124.897 58.3843 125.15 58.529Z" fill="#F5B53D"/>
<path d="M132.941 53.1621L130.638 51.8355C129.914 51.4134 129.106 52.2335 129.528 52.9571L131.832 56.925C132.254 57.6486 133.351 57.3471 133.351 56.5149V53.8737C133.351 53.5722 133.195 53.3068 132.941 53.1621Z" fill="#F5B53D"/>
<path d="M139.598 59.7593C139.598 60.9533 138.851 61.3031 137.693 60.6277L136.209 59.7714V55.8276L137.741 56.7081C138.863 57.3593 139.598 58.5533 139.598 59.7593ZM138.429 59.096C138.429 58.5171 138.139 57.9623 137.693 57.7091L137.319 57.492V59.4096L137.741 59.6508C138.175 59.892 138.429 59.6749 138.429 59.096Z" fill="#493F41"/>
<path d="M142.819 59.6508V60.6397L141.046 59.6146V60.097L142.65 61.0256V62.0146L141.046 61.086V61.5804L142.855 62.6297V63.6187L139.912 61.9181V57.9744L142.819 59.6508Z" fill="#493F41"/>
<path d="M144.435 60.5793V63.4376L145.87 64.2578V65.3432L143.301 63.8598V59.916L144.435 60.5793Z" fill="#493F41"/>
<path d="M147.293 62.2318V66.1756L146.159 65.5243V61.5806L147.293 62.2318Z" fill="#493F41"/>
<path d="M148.728 63.064L149.44 66.055L150.151 63.8721L151.309 64.5474L149.995 67.7314L148.825 67.056L147.522 62.3645L148.728 63.064Z" fill="#493F41"/>
<path d="M154.433 66.3563V67.3453L152.66 66.3202V66.8026L154.264 67.7312V68.7202L152.66 67.7915V68.286L154.469 69.3353V70.3242L151.526 68.6237V64.6799L154.433 66.3563Z" fill="#493F41"/>
<path d="M156.881 71.7112L156.471 70.4448L156.049 70.2037V71.2288L154.915 70.5775V66.6338L156.58 67.5986C157.508 68.1413 158.039 68.9614 158.039 69.8539C158.039 70.4328 157.846 70.7464 157.496 70.7825L158.172 72.4589L156.881 71.7112ZM156.037 69.2147L156.556 69.5162C156.797 69.6609 156.941 69.5645 156.941 69.2629C156.941 68.9735 156.797 68.7202 156.556 68.5755L156.037 68.274V69.2147Z" fill="#493F41"/>
<path d="M160.523 72.5916V73.8218L159.39 73.1705V71.9766L158.135 68.5032L159.269 69.1544L159.957 71.072L160.62 69.9384L161.754 70.5896L160.523 72.5916Z" fill="#493F41"/>
<path d="M137.126 62.9795C137.03 62.9313 136.981 62.9192 136.981 63.0036C136.981 63.3534 138.248 63.872 138.248 64.885C138.248 65.5122 137.765 65.5122 137.211 65.1865C136.789 64.9453 136.306 64.4991 135.98 64.0288L136.282 63.4981C136.535 63.884 136.969 64.3303 137.223 64.475C137.343 64.5473 137.416 64.5473 137.416 64.4388C137.416 64.077 136.149 63.5825 136.149 62.5936C136.149 62.0267 136.559 61.9182 137.199 62.28C137.584 62.5091 137.995 62.871 138.272 63.2328L137.982 63.7634C137.717 63.4981 137.331 63.1001 137.126 62.9795Z" fill="#493F41"/>
<path d="M140.527 64.27V64.9816L139.261 64.2459V64.5957L140.407 65.259V65.9706L139.261 65.3072V65.657L140.563 66.4047V67.1163L138.453 65.8982V63.0881L140.527 64.27Z" fill="#493F41"/>
<path d="M142.276 68.0931L141.986 67.1886L141.685 67.0077V67.7433L140.877 67.273V64.4629L142.059 65.1503C142.722 65.5363 143.108 66.1152 143.108 66.7664C143.108 67.1765 142.975 67.4056 142.722 67.4297L143.205 68.6237L142.276 68.0931ZM141.673 66.3081L142.047 66.5252C142.228 66.6217 142.324 66.5614 142.324 66.3443C142.324 66.1393 142.228 65.9584 142.047 65.8498L141.673 65.6328V66.3081Z" fill="#493F41"/>
<path d="M144.061 66.308L144.568 68.4427L145.074 66.8869L145.906 67.3694L144.966 69.6367L144.121 69.1543L143.193 65.8015L144.061 66.308Z" fill="#493F41"/>
<path d="M146.871 67.9362V70.7462L146.063 70.2759V67.4658L146.871 67.9362Z" fill="#493F41"/>
<path d="M148.439 69.5887C148.149 69.4198 147.932 69.5646 147.932 69.9384C147.932 70.3123 148.149 70.7103 148.439 70.8791C148.62 70.9756 148.837 70.9877 148.994 70.8791L149.464 71.7234C149.187 71.9043 148.777 71.8922 148.391 71.6631C147.631 71.2289 147.088 70.3002 147.088 69.456C147.088 68.6238 147.643 68.3464 148.415 68.7927C148.789 69.0098 149.199 69.4439 149.452 69.9022L148.982 70.264C148.849 69.9746 148.632 69.6972 148.439 69.5887Z" fill="#493F41"/>
<path d="M151.707 70.7222V71.4338L150.441 70.6981V71.0478L151.587 71.7112V72.4227L150.441 71.7594V72.1092L151.743 72.8569V73.5685L149.633 72.3504V69.5403L151.707 70.7222Z" fill="#493F41"/>
<path d="M225.625 87.7635C225.77 87.9082 225.975 87.8841 226.096 87.7032C226.216 87.5223 226.192 87.269 226.059 87.1243C225.915 86.9796 225.71 87.0037 225.589 87.1846C225.468 87.3655 225.481 87.6188 225.625 87.7635Z" fill="#493F41"/>
<path d="M225.65 87.7273C225.77 87.8479 225.951 87.8359 226.06 87.6791C226.168 87.5223 226.144 87.3052 226.023 87.1726C225.915 87.0519 225.746 87.064 225.638 87.1846C225.625 87.1966 225.625 87.2087 225.613 87.2208C225.517 87.3776 225.529 87.5947 225.65 87.7273Z" fill="#493F41"/>
<path d="M225.842 87.0881C225.842 87.0881 226.071 87.1002 226.144 87.1364C226.216 87.1726 226.192 87.6791 226.192 87.6791C226.192 87.6791 226.023 87.7756 225.878 87.7997C225.734 87.8238 225.842 87.0881 225.842 87.0881Z" fill="#493F41"/>
<path d="M225.963 87.6308C226.06 87.7273 226.204 87.7152 226.289 87.5946C226.373 87.474 226.361 87.2931 226.265 87.1966C226.168 87.1002 226.023 87.1122 225.939 87.2328C225.855 87.3534 225.867 87.5343 225.963 87.6308Z" fill="#5C504E"/>
<path d="M222.779 87.6186L222.369 88.0166L225.818 87.6668L225.782 87.1724L222.779 87.6186Z" fill="#493F41"/>
<path d="M226.084 86.1834C226.047 86.1834 216.278 91.2488 216.278 91.2488L216.17 90.9352L225.686 85.7854L226.084 86.1834Z" fill="#5C504E"/>
<path d="M226.156 94.6619L231.475 101.283L215.784 110.352L207.487 101.15L215.7 110.738L231.897 101.38L226.156 94.6619Z" fill="#FAF8F5"/>
<path d="M221.235 126.031L225.855 123.366C226.313 123.1 226.675 122.401 226.675 121.798V119.157C226.675 118.554 226.313 118.276 225.855 118.542L221.235 121.207C220.777 121.472 220.415 122.172 220.415 122.775V125.416C220.415 126.007 220.789 126.284 221.235 126.031Z" fill="#FAF8F5"/>
<path d="M226.94 119.265V121.906C226.94 122.509 226.566 123.209 226.108 123.474L221.489 126.14C221.03 126.405 220.668 126.128 220.668 125.525V122.883C220.668 122.28 221.03 121.581 221.489 121.315L226.108 118.638C226.566 118.373 226.94 118.662 226.94 119.265Z" fill="#EBE7E3"/>
<path d="M226.94 119.265V119.555L220.668 123.173V122.883C220.668 122.28 221.03 121.581 221.489 121.315L226.108 118.638C226.566 118.373 226.94 118.662 226.94 119.265Z" fill="#FF8E8C"/>
<path d="M113.452 74.1352C113.452 74.0628 113.428 68.7924 113.44 65.6326C112.861 65.3552 112.246 65.0537 111.896 64.8728L111.57 64.704L111.655 64.2698C111.824 63.7874 113.343 62.9673 113.862 63.0517C114.115 63.0999 114.296 63.317 114.296 63.5703C114.296 63.8597 114.284 64.4024 114.284 65.1019C114.851 65.3793 115.321 65.5844 115.321 65.5964C115.707 65.8497 116.153 65.8497 116.491 65.6326L117.07 65.2587L117.528 65.9703L116.949 66.3442C116.322 66.7422 115.526 66.7422 114.899 66.3321C114.887 66.3321 114.634 66.2115 114.272 66.0427C114.272 69.2145 114.284 74.0749 114.284 74.1352H113.452ZM112.764 64.3542C112.969 64.4627 113.211 64.5713 113.452 64.6919C113.452 64.4266 113.452 64.1854 113.452 63.9924C113.235 64.0768 112.969 64.2215 112.764 64.3542Z" fill="#898184"/>
<path d="M114.187 73.9542C114.019 73.8577 113.753 73.8577 113.584 73.9542C113.416 74.0507 113.416 74.2075 113.584 74.304C113.753 74.4004 114.019 74.4004 114.187 74.304C114.344 74.2075 114.344 74.0507 114.187 73.9542Z" fill="#898184"/>
<path d="M117.021 65.4396C117.021 65.6326 117.166 65.8617 117.335 65.9582C117.504 66.0547 117.637 65.9703 117.637 65.7773C117.637 65.5843 117.492 65.3552 117.323 65.2587C117.154 65.1743 117.021 65.2466 117.021 65.4396Z" fill="#898184"/>
<path d="M24.3254 67.2005L14.5444 61.4477L26.9184 54.718L29.5958 67.4779L24.3254 67.2005Z" fill="#DFE4EB"/>
<path d="M41.9697 43.0435V60.7481L29.5957 67.4778V49.7732L41.9697 43.0435Z" fill="#EDF4FF"/>
<path d="M29.5957 49.7733V67.478L19.8147 61.7252V44.0205L29.5957 49.7733Z" fill="#DDE7F8"/>
<path d="M29.5957 49.7733L19.8147 44.0205L32.1886 37.2908L41.9696 43.0436L29.5957 49.7733Z" fill="#EBF4FF"/>
<path d="M44.9248 74.8469L32.9729 67.8157L49.0253 59.084L49.8213 74.8469H44.9248Z" fill="#DFE4EB"/>
<path d="M65.8737 60.2056V66.1152L49.8213 74.8469V68.9373L65.8737 60.2056Z" fill="#EDF4FF"/>
<path d="M49.8212 68.9372V74.8468L37.8694 67.8156V61.906L49.8212 68.9372Z" fill="#DDE7F8"/>
<path d="M49.8212 68.9372L37.8694 61.906L53.9097 53.1743L65.8736 60.2055L49.8212 68.9372Z" fill="#EBF4FF"/>
<path d="M20.5385 88.3665L6.9585 80.3825L18.042 74.3523L26.0983 88.3665H20.5385Z" fill="#DFE4EB"/>
<path d="M37.1819 75.6187V82.3363L26.0984 88.3665V81.6488L37.1819 75.6187Z" fill="#EDF4FF"/>
<path d="M26.0983 81.649V88.3667L12.5183 80.3827V73.665L26.0983 81.649Z" fill="#DDE7F8"/>
<path d="M26.0983 81.6489L12.5183 73.665L23.6018 67.6348L37.1818 75.6187L26.0983 81.6489Z" fill="#EBF4FF"/>
<path d="M222.297 178.12L208.705 170.124L219.788 164.094L227.857 178.12H222.297Z" fill="#DFE4EB"/>
<path d="M238.94 165.372V172.09L227.856 178.12V171.403L238.94 165.372Z" fill="#EDF4FF"/>
<path d="M227.856 171.403V178.12L214.264 170.124V163.406L227.856 171.403Z" fill="#DDE7F8"/>
<path d="M227.856 171.402L214.264 163.406L225.348 157.376L238.94 165.372L227.856 171.402Z" fill="#EBF4FF"/>
<path d="M88.5953 122.172L75.7268 114.61L106.589 97.822L94.1551 122.172H88.5953Z" fill="#DFE4EB"/>
<path d="M125.018 97.5444V105.384L94.155 122.172V114.333L125.018 97.5444Z" fill="#EDF4FF"/>
<path d="M94.155 114.333V122.172L81.2866 114.61V106.771L94.155 114.333Z" fill="#DDE7F8"/>
<path d="M94.155 114.333L81.2866 106.783L112.149 89.9827L125.018 97.5445L94.155 114.333Z" fill="#EBF4FF"/>
<path d="M123.438 136.753L105.89 126.441L128.093 114.344L128.008 136.801L123.438 136.753Z" fill="#DFE4EB"/>
<path d="M144.953 107.868V127.575L128.008 136.801V117.082L144.953 107.868Z" fill="#EDF4FF"/>
<path d="M128.008 117.082V136.801L110.46 126.489V106.771L128.008 117.082Z" fill="#DDE7F8"/>
<path d="M128.008 117.094L110.46 106.771L127.405 97.5444L144.965 107.868L128.008 117.094Z" fill="#EBF4FF"/>
<path d="M163.37 158.896L135.16 142.614L153.372 132.122L168.93 159.306L163.37 158.896Z" fill="#DFE4EB"/>
<path d="M187.141 126.309V148.813L168.929 159.306V136.813L187.141 126.309Z" fill="#EDF4FF"/>
<path d="M168.929 136.813V159.306L140.732 143.024V120.532L168.929 136.813Z" fill="#DDE7F8"/>
<path d="M168.929 136.813L140.732 120.532L158.931 110.027L187.141 126.309L168.929 136.813Z" fill="#EBF4FF"/>
<path d="M184.801 172.801L171.945 165.239L202.807 148.451L190.361 172.608L184.801 172.801Z" fill="#DFE4EB"/>
<path d="M216.411 150.61V158.437L190.361 172.608V164.781L216.411 150.61Z" fill="#EDF4FF"/>
<path d="M190.361 164.781V172.608L177.504 165.058V157.219L190.361 164.781Z" fill="#DDE7F8"/>
<path d="M190.373 164.781L177.504 157.219L203.555 143.048L216.411 150.61L190.373 164.781Z" fill="#EBF4FF"/>
<path d="M157.159 187.31L136.427 175.129L147.51 169.099L162.718 187.31H157.159Z" fill="#DFE4EB"/>
<path d="M173.802 167.555V181.292L162.719 187.31V173.585L173.802 167.555Z" fill="#EDF4FF"/>
<path d="M162.718 173.585V187.31L141.987 175.129V161.404L162.718 173.585Z" fill="#DDE7F8"/>
<path d="M162.718 173.585L141.987 161.404L153.07 155.374L173.802 167.555L162.718 173.585Z" fill="#EBF4FF"/>
<path d="M86.9429 150.562L54.2109 131.314L69.7447 122.859L92.5027 150.562H86.9429Z" fill="#DFE4EB"/>
<path d="M108.024 132.918V142.108L92.5027 150.562V141.372L108.024 132.918Z" fill="#EDF4FF"/>
<path d="M92.5026 141.372V150.562L59.7708 131.314V122.124L92.5026 141.372Z" fill="#DDE7F8"/>
<path d="M92.5026 141.372L59.7708 122.124L75.3045 113.681L108.036 132.918L92.5026 141.372Z" fill="#EBF4FF"/>
<path d="M67.1035 169.292L45.4792 156.58L62.4121 147.378L72.6634 169.702L67.1035 169.292Z" fill="#DFE4EB"/>
<path d="M89.5843 150.478V160.488L72.6636 169.702V159.68L89.5843 150.478Z" fill="#EDF4FF"/>
<path d="M72.6635 159.68V169.702L51.0513 156.99V146.968L72.6635 159.68Z" fill="#DDE7F8"/>
<path d="M72.6635 159.68L51.0513 146.968L67.972 137.766L89.5842 150.478L72.6635 159.68Z" fill="#EBF4FF"/>
<path d="M113.777 174.707L97.6887 165.252L118.059 154.168L119.337 174.924L113.777 174.707Z" fill="#DFE4EB"/>
<path d="M139.707 140.926V163.841L119.337 174.924V152.009L139.707 140.926Z" fill="#EDF4FF"/>
<path d="M119.337 152.009V174.924L103.249 165.469V142.554L119.337 152.009Z" fill="#DDE7F8"/>
<path d="M119.349 152.009L103.249 142.554L123.619 131.47L139.707 140.926L119.349 152.009Z" fill="#EBF4FF"/>
<defs>
<linearGradient id="paint0_linear_673_2465" x1="-5.27055" y1="131.105" x2="164.421" y2="32.3173" gradientUnits="userSpaceOnUse">
<stop stop-color="#FFE25B"/>
<stop offset="1" stop-color="#FF7270"/>
</linearGradient>
<linearGradient id="paint1_linear_673_2465" x1="-5.23638" y1="131.164" x2="164.457" y2="32.3757" gradientUnits="userSpaceOnUse">
<stop stop-color="#FFE25B"/>
<stop offset="1" stop-color="#FF7270"/>
</linearGradient>
<linearGradient id="paint2_linear_673_2465" x1="-5.20155" y1="131.223" x2="164.49" y2="32.4349" gradientUnits="userSpaceOnUse">
<stop stop-color="#FFE25B"/>
<stop offset="1" stop-color="#FF7270"/>
</linearGradient>
<linearGradient id="paint3_linear_673_2465" x1="-5.16736" y1="131.282" x2="164.524" y2="32.4942" gradientUnits="userSpaceOnUse">
<stop stop-color="#FFE25B"/>
<stop offset="1" stop-color="#FF7270"/>
</linearGradient>
<linearGradient id="paint4_linear_673_2465" x1="-5.13268" y1="131.341" x2="164.56" y2="32.5536" gradientUnits="userSpaceOnUse">
<stop stop-color="#FFE25B"/>
<stop offset="1" stop-color="#FF7270"/>
</linearGradient>
<linearGradient id="paint5_linear_673_2465" x1="-5.09858" y1="131.401" x2="164.594" y2="32.6126" gradientUnits="userSpaceOnUse">
<stop stop-color="#FFE25B"/>
<stop offset="1" stop-color="#FF7270"/>
</linearGradient>
<linearGradient id="paint6_linear_673_2465" x1="-3.16529" y1="134.722" x2="166.528" y2="35.9344" gradientUnits="userSpaceOnUse">
<stop stop-color="#FFE25B"/>
<stop offset="1" stop-color="#FF7270"/>
</linearGradient>
<linearGradient id="paint7_linear_673_2465" x1="4.57345" y1="148.015" x2="174.266" y2="49.2273" gradientUnits="userSpaceOnUse">
<stop stop-color="#FFE25B"/>
<stop offset="1" stop-color="#FF7270"/>
</linearGradient>
<linearGradient id="paint8_linear_673_2465" x1="12.9291" y1="162.367" x2="182.621" y2="63.5797" gradientUnits="userSpaceOnUse">
<stop stop-color="#FFE25B"/>
<stop offset="1" stop-color="#FF7270"/>
</linearGradient>
<linearGradient id="paint9_linear_673_2465" x1="21.2831" y1="176.719" x2="190.976" y2="77.9311" gradientUnits="userSpaceOnUse">
<stop stop-color="#FFE25B"/>
<stop offset="1" stop-color="#FF7270"/>
</linearGradient>
<linearGradient id="paint10_linear_673_2465" x1="29.638" y1="191.072" x2="199.332" y2="92.283" gradientUnits="userSpaceOnUse">
<stop stop-color="#FFE25B"/>
<stop offset="1" stop-color="#FF7270"/>
</linearGradient>
<linearGradient id="paint11_linear_673_2465" x1="37.9935" y1="205.423" x2="207.686" y2="106.635" gradientUnits="userSpaceOnUse">
<stop stop-color="#FFE25B"/>
<stop offset="1" stop-color="#FF7270"/>
</linearGradient>
<linearGradient id="paint12_linear_673_2465" x1="46.3511" y1="219.774" x2="216.042" y2="120.987" gradientUnits="userSpaceOnUse">
<stop stop-color="#FFE25B"/>
<stop offset="1" stop-color="#FF7270"/>
</linearGradient>
<linearGradient id="paint13_linear_673_2465" x1="54.7045" y1="234.127" x2="224.397" y2="135.339" gradientUnits="userSpaceOnUse">
<stop stop-color="#FFE25B"/>
<stop offset="1" stop-color="#FF7270"/>
</linearGradient>
<linearGradient id="paint14_linear_673_2465" x1="63.0601" y1="248.479" x2="232.752" y2="149.692" gradientUnits="userSpaceOnUse">
<stop stop-color="#FFE25B"/>
<stop offset="1" stop-color="#FF7270"/>
</linearGradient>
<linearGradient id="paint15_linear_673_2465" x1="35.7282" y1="149.099" x2="265.232" y2="149.099" gradientUnits="userSpaceOnUse">
<stop stop-color="#57A2FF"/>
<stop offset="1" stop-color="#FF7270"/>
</linearGradient>
</defs>
</svg>
